Bailey-Regular.ufo
<glyph name="exclam" format="2">
  <advance width="408"/>
  <unicode hex="0021"/>
  <outline>
    <contour>
      <point x="282" y="223" type="curve" smooth="yes"/>
      <point x="210" y="223"/>
      <point x="146" y="179"/>
      <point x="146" y="97" type="curve" smooth="yes"/>
      <point x="146" y="20"/>
      <point x="203" y="-40"/>
      <point x="282" y="-40" type="curve" smooth="yes"/>
      <point x="357" y="-40"/>
      <point x="414" y="23"/>
      <point x="414" y="97" type="curve" smooth="yes"/>
      <point x="414" y="169"/>
      <point x="350" y="223"/>
    </contour>
    <contour>
      <point x="278" y="1222" type="curve" smooth="yes"/>
      <point x="203" y="1222"/>
      <point x="166" y="1155"/>
      <point x="168" y="1094" type="curve"/>
      <point x="168" y="1080" type="line"/>
      <point x="237" y="314" type="line"/>
      <point x="313" y="314" type="line"/>
      <point x="384" y="1072" type="line"/>
      <point x="393" y="1219"/>
      <point x="286" y="1222"/>
    </contour>
  </outline>
</glyph>
<glyph name="quotedbl" format="2">
  <advance width="495"/>
  <unicode hex="0022"/>
  <outline>
    <contour>
      <point x="495" y="1206" type="line"/>
      <point x="350" y="1206" type="line"/>
      <point x="360" y="786" type="line"/>
      <point x="485" y="786" type="line"/>
    </contour>
    <contour>
      <point x="282" y="1212" type="line"/>
      <point x="137" y="1212" type="line"/>
      <point x="147" y="792" type="line"/>
      <point x="272" y="792" type="line"/>
    </contour>
  </outline>
</glyph>
<glyph name="numbersign" format="2">
  <advance width="1071"/>
  <unicode hex="0023"/>
  <outline>
    <contour>
      <point x="695" y="425" type="line"/>
      <point x="450" y="425" type="line"/>
      <point x="530" y="799" type="line"/>
      <point x="775" y="799" type="line"/>
    </contour>
    <contour>
      <point x="1076" y="886" type="line"/>
      <point x="916" y="886" type="line"/>
      <point x="984" y="1203" type="line"/>
      <point x="861" y="1203" type="line"/>
      <point x="793" y="886" type="line"/>
      <point x="549" y="886" type="line"/>
      <point x="616" y="1203" type="line"/>
      <point x="493" y="1203" type="line"/>
      <point x="426" y="886" type="line"/>
      <point x="239" y="886" type="line"/>
      <point x="239" y="799" type="line"/>
      <point x="407" y="799" type="line"/>
      <point x="328" y="425" type="line"/>
      <point x="152" y="425" type="line"/>
      <point x="152" y="337" type="line"/>
      <point x="309" y="337" type="line"/>
      <point x="238" y="7" type="line"/>
      <point x="361" y="7" type="line"/>
      <point x="432" y="337" type="line"/>
      <point x="677" y="337" type="line"/>
      <point x="606" y="7" type="line"/>
      <point x="729" y="7" type="line"/>
      <point x="798" y="337" type="line"/>
      <point x="989" y="337" type="line"/>
      <point x="989" y="425" type="line"/>
      <point x="817" y="425" type="line"/>
      <point x="897" y="799" type="line"/>
      <point x="1076" y="799" type="line"/>
    </contour>
  </outline>
</glyph>
<glyph name="dollar" format="2">
  <advance width="899"/>
  <unicode hex="0024"/>
  <outline>
    <contour>
      <point x="578" y="77" type="curve"/>
      <point x="578" y="474" type="line"/>
      <point x="740" y="429"/>
      <point x="750" y="339"/>
      <point x="750" y="285" type="curve" smooth="yes"/>
      <point x="750" y="180"/>
      <point x="671" y="101"/>
    </contour>
    <contour>
      <point x="481" y="1067" type="curve"/>
      <point x="481" y="713" type="line"/>
      <point x="375" y="751"/>
      <point x="314" y="788"/>
      <point x="314" y="883" type="curve" smooth="yes"/>
      <point x="314" y="1015"/>
      <point x="433" y="1056"/>
    </contour>
    <contour>
      <point x="578" y="683" type="curve"/>
      <point x="578" y="1074" type="line"/>
      <point x="675" y="1063"/>
      <point x="755" y="1014"/>
      <point x="819" y="926" type="curve"/>
      <point x="883" y="1005" type="line"/>
      <point x="798" y="1102"/>
      <point x="696" y="1155"/>
      <point x="578" y="1164" type="curve"/>
      <point x="578" y="1217" type="line"/>
      <point x="481" y="1217" type="line"/>
      <point x="481" y="1160" type="line"/>
      <point x="387" y="1147"/>
      <point x="310" y="1111"/>
      <point x="252" y="1051" type="curve" smooth="yes"/>
      <point x="192" y="991"/>
      <point x="163" y="914"/>
      <point x="163" y="821" type="curve" smooth="yes"/>
      <point x="163" y="650"/>
      <point x="269" y="542"/>
      <point x="481" y="497" type="curve"/>
      <point x="481" y="72" type="line"/>
      <point x="368" y="80"/>
      <point x="278" y="146"/>
      <point x="210" y="271" type="curve"/>
      <point x="145" y="168" type="line"/>
      <point x="230" y="57"/>
      <point x="342" y="-4"/>
      <point x="481" y="-14" type="curve"/>
      <point x="481" y="-71" type="line"/>
      <point x="578" y="-71" type="line"/>
      <point x="578" y="-14" type="line"/>
      <point x="770" y="5"/>
      <point x="902" y="146"/>
      <point x="902" y="342" type="curve" smooth="yes"/>
      <point x="902" y="540"/>
      <point x="794" y="616"/>
    </contour>
  </outline>
</glyph>
<glyph name="percent" format="2">
  <advance width="1079"/>
  <unicode hex="0025"/>
  <outline>
    <contour>
      <point x="962" y="239" type="curve" smooth="yes"/>
      <point x="962" y="112"/>
      <point x="933" y="49"/>
      <point x="876" y="49" type="curve" smooth="yes"/>
      <point x="817" y="49"/>
      <point x="787" y="112"/>
      <point x="787" y="239" type="curve" smooth="yes"/>
      <point x="787" y="366"/>
      <point x="817" y="429"/>
      <point x="876" y="429" type="curve" smooth="yes"/>
      <point x="933" y="429"/>
      <point x="962" y="366"/>
    </contour>
    <contour>
      <point x="443" y="822" type="curve" smooth="yes"/>
      <point x="443" y="695"/>
      <point x="414" y="632"/>
      <point x="356" y="632" type="curve" smooth="yes"/>
      <point x="297" y="632"/>
      <point x="268" y="695"/>
      <point x="268" y="822" type="curve" smooth="yes"/>
      <point x="268" y="949"/>
      <point x="297" y="1012"/>
      <point x="356" y="1012" type="curve" smooth="yes"/>
      <point x="414" y="1012"/>
      <point x="443" y="949"/>
    </contour>
    <contour>
      <point x="820" y="925" type="line"/>
      <point x="293" y="17" type="line"/>
      <point x="362" y="-14" type="line"/>
      <point x="889" y="892" type="line"/>
    </contour>
    <contour>
      <point x="876" y="493" type="curve" smooth="yes"/>
      <point x="674" y="493"/>
      <point x="670" y="257"/>
      <point x="670" y="239" type="curve" smooth="yes"/>
      <point x="670" y="150"/>
      <point x="706" y="-13"/>
      <point x="876" y="-13" type="curve" smooth="yes"/>
      <point x="1074" y="-13"/>
      <point x="1080" y="213"/>
      <point x="1080" y="239" type="curve" smooth="yes"/>
      <point x="1080" y="338"/>
      <point x="1031" y="493"/>
    </contour>
    <contour>
      <point x="356" y="1076" type="curve" smooth="yes"/>
      <point x="154" y="1076"/>
      <point x="150" y="840"/>
      <point x="150" y="822" type="curve" smooth="yes"/>
      <point x="150" y="667"/>
      <point x="234" y="568"/>
      <point x="356" y="568" type="curve" smooth="yes"/>
      <point x="525" y="568"/>
      <point x="560" y="736"/>
      <point x="560" y="822" type="curve" smooth="yes"/>
      <point x="560" y="968"/>
      <point x="480" y="1076"/>
    </contour>
  </outline>
</glyph>
<glyph name="ampersand" format="2">
  <advance width="1296"/>
  <unicode hex="0026"/>
  <outline>
    <contour>
      <point x="316" y="335" type="curve" smooth="yes"/>
      <point x="316" y="497"/>
      <point x="414" y="592"/>
      <point x="458" y="627" type="curve"/>
      <point x="527" y="488"/>
      <point x="619" y="350"/>
      <point x="736" y="211" type="curve"/>
      <point x="696" y="160"/>
      <point x="605" y="84"/>
      <point x="519" y="84" type="curve" smooth="yes"/>
      <point x="373" y="84"/>
      <point x="316" y="231"/>
    </contour>
    <contour>
      <point x="576" y="764" type="curve"/>
      <point x="536" y="857"/>
      <point x="516" y="934"/>
      <point x="516" y="995" type="curve" smooth="yes"/>
      <point x="516" y="1124"/>
      <point x="579" y="1147"/>
      <point x="624" y="1147" type="curve" smooth="yes"/>
      <point x="717" y="1147"/>
      <point x="748" y="1061"/>
      <point x="748" y="999" type="curve" smooth="yes"/>
      <point x="748" y="916"/>
      <point x="715" y="852"/>
    </contour>
    <contour>
      <point x="845" y="1005" type="curve" smooth="yes"/>
      <point x="845" y="1136"/>
      <point x="757" y="1221"/>
      <point x="628" y="1221" type="curve" smooth="yes"/>
      <point x="455" y="1221"/>
      <point x="365" y="1089"/>
      <point x="365" y="940" type="curve" smooth="yes"/>
      <point x="365" y="865"/>
      <point x="387" y="781"/>
      <point x="431" y="688" type="curve"/>
      <point x="232" y="552"/>
      <point x="159" y="429"/>
      <point x="159" y="286" type="curve" smooth="yes"/>
      <point x="159" y="130"/>
      <point x="266" y="-3"/>
      <point x="434" y="-3" type="curve" smooth="yes"/>
      <point x="547" y="-3"/>
      <point x="654" y="25"/>
      <point x="786" y="152" type="curve"/>
      <point x="865" y="49"/>
      <point x="959" y="-3"/>
      <point x="1069" y="-3" type="curve" smooth="yes"/>
      <point x="1153" y="-3"/>
      <point x="1234" y="30"/>
      <point x="1312" y="97" type="curve"/>
      <point x="1277" y="161" type="line"/>
      <point x="1230" y="107"/>
      <point x="1186" y="80"/>
      <point x="1145" y="80" type="curve" smooth="yes"/>
      <point x="1068" y="80"/>
      <point x="986" y="144"/>
      <point x="898" y="272" type="curve"/>
      <point x="999" y="395"/>
      <point x="1064" y="497"/>
      <point x="1094" y="580" type="curve"/>
      <point x="1019" y="642" type="line"/>
      <point x="962" y="501"/>
      <point x="904" y="397"/>
      <point x="846" y="330" type="curve"/>
      <point x="841" y="338"/>
      <point x="820" y="366"/>
      <point x="786" y="414" type="curve" smooth="yes"/>
      <point x="704" y="527"/>
      <point x="645" y="616"/>
      <point x="605" y="698" type="curve"/>
      <point x="711" y="759"/>
      <point x="845" y="846"/>
    </contour>
  </outline>
</glyph>
<glyph name="quotesingle" format="2">
  <advance width="282"/>
  <unicode hex="0027"/>
  <outline>
    <contour>
      <point x="282" y="1212" type="line"/>
      <point x="137" y="1212" type="line"/>
      <point x="147" y="792" type="line"/>
      <point x="272" y="792" type="line"/>
    </contour>
  </outline>
</glyph>
<glyph name="parenleft" format="2">
  <advance width="580"/>
  <unicode hex="0028"/>
  <outline>
    <contour>
      <point x="586" y="1157" type="curve"/>
      <point x="538" y="1229" type="line"/>
      <point x="294" y="1038"/>
      <point x="140" y="747"/>
      <point x="140" y="421" type="curve" smooth="yes"/>
      <point x="140" y="-16"/>
      <point x="403" y="-280"/>
      <point x="538" y="-386" type="curve"/>
      <point x="586" y="-314" type="line"/>
      <point x="421" y="-87"/>
      <point x="338" y="158"/>
      <point x="338" y="421" type="curve" smooth="yes"/>
      <point x="338" y="752"/>
      <point x="477" y="1008"/>
    </contour>
  </outline>
</glyph>
<glyph name="parenright" format="2">
  <advance width="580"/>
  <unicode hex="0029"/>
  <outline>
    <contour>
      <point x="186" y="1229" type="curve"/>
      <point x="138" y="1157" type="line"/>
      <point x="345" y="873"/>
      <point x="386" y="595"/>
      <point x="386" y="421" type="curve" smooth="yes"/>
      <point x="386" y="158"/>
      <point x="303" y="-87"/>
      <point x="138" y="-314" type="curve"/>
      <point x="186" y="-386" type="line"/>
      <point x="537" y="-107"/>
      <point x="584" y="250"/>
      <point x="584" y="421" type="curve" smooth="yes"/>
      <point x="584" y="865"/>
      <point x="310" y="1131"/>
    </contour>
  </outline>
</glyph>
<glyph name="asterisk" format="2">
  <advance width="782"/>
  <unicode hex="002A"/>
  <outline>
    <contour>
      <point x="695" y="1095" type="curve" smooth="yes"/>
      <point x="682" y="1095"/>
      <point x="665" y="1089"/>
      <point x="645" y="1077" type="curve" smooth="yes"/>
      <point x="581" y="1038"/>
      <point x="535" y="982"/>
      <point x="507" y="959" type="curve"/>
      <point x="517" y="1009"/>
      <point x="549" y="1093"/>
      <point x="549" y="1157" type="curve" smooth="yes"/>
      <point x="549" y="1224"/>
      <point x="485" y="1229"/>
      <point x="464" y="1229" type="curve" smooth="yes"/>
      <point x="427" y="1229"/>
      <point x="380" y="1213"/>
      <point x="380" y="1155" type="curve" smooth="yes"/>
      <point x="380" y="1095"/>
      <point x="413" y="1007"/>
      <point x="424" y="959" type="curve"/>
      <point x="420" y="962"/>
      <point x="408" y="973"/>
      <point x="388" y="990" type="curve" smooth="yes"/>
      <point x="333" y="1039"/>
      <point x="269" y="1096"/>
      <point x="232" y="1096" type="curve" smooth="yes"/>
      <point x="185" y="1096"/>
      <point x="150" y="1046"/>
      <point x="150" y="1003" type="curve" smooth="yes"/>
      <point x="150" y="970"/>
      <point x="166" y="950"/>
      <point x="199" y="941" type="curve" smooth="yes"/>
      <point x="380" y="891" type="line"/>
      <point x="219" y="839" type="line" smooth="yes"/>
      <point x="164" y="821"/>
      <point x="159" y="779"/>
      <point x="159" y="764" type="curve" smooth="yes"/>
      <point x="159" y="719"/>
      <point x="195" y="679"/>
      <point x="240" y="679" type="curve" smooth="yes"/>
      <point x="285" y="679"/>
      <point x="320" y="714"/>
      <point x="425" y="819" type="curve"/>
      <point x="416" y="780"/>
      <point x="379" y="678"/>
      <point x="379" y="623" type="curve" smooth="yes"/>
      <point x="379" y="571"/>
      <point x="426" y="549"/>
      <point x="464" y="549" type="curve" smooth="yes"/>
      <point x="512" y="549"/>
      <point x="550" y="580"/>
      <point x="550" y="630" type="curve" smooth="yes"/>
      <point x="550" y="658"/>
      <point x="550" y="658"/>
      <point x="506" y="819" type="curve"/>
      <point x="638" y="698" type="line" smooth="yes"/>
      <point x="653" y="685"/>
      <point x="670" y="678"/>
      <point x="688" y="678" type="curve" smooth="yes"/>
      <point x="736" y="678"/>
      <point x="785" y="725"/>
      <point x="785" y="776" type="curve" smooth="yes"/>
      <point x="785" y="806"/>
      <point x="767" y="826"/>
      <point x="732" y="837" type="curve" smooth="yes"/>
      <point x="551" y="891" type="line"/>
      <point x="716" y="939" type="line" smooth="yes"/>
      <point x="756" y="951"/>
      <point x="776" y="975"/>
      <point x="776" y="1011" type="curve" smooth="yes"/>
      <point x="776" y="1054"/>
      <point x="741" y="1095"/>
    </contour>
  </outline>
</glyph>
<glyph name="plus" format="2">
  <advance width="984"/>
  <unicode hex="002B"/>
  <outline>
    <contour>
      <point x="989" y="500" type="line"/>
      <point x="661" y="500" type="line"/>
      <point x="661" y="883" type="line"/>
      <point x="474" y="883" type="line"/>
      <point x="474" y="500" type="line"/>
      <point x="153" y="500" type="line"/>
      <point x="153" y="353" type="line"/>
      <point x="474" y="353" type="line"/>
      <point x="474" y="-30" type="line"/>
      <point x="661" y="-30" type="line"/>
      <point x="661" y="353" type="line"/>
      <point x="989" y="353" type="line"/>
    </contour>
  </outline>
</glyph>
<glyph name="comma" format="2">
  <advance width="414"/>
  <unicode hex="002C"/>
  <outline>
    <contour>
      <point x="279" y="233" type="curve" smooth="yes"/>
      <point x="208" y="233"/>
      <point x="147" y="186"/>
      <point x="147" y="107" type="curve" smooth="yes"/>
      <point x="147" y="42"/>
      <point x="185" y="-24"/>
      <point x="265" y="-24" type="curve" smooth="yes"/>
      <point x="284" y="-24"/>
      <point x="294" y="-35"/>
      <point x="294" y="-56" type="curve" smooth="yes"/>
      <point x="294" y="-130"/>
      <point x="208" y="-207"/>
      <point x="186" y="-225" type="curve"/>
      <point x="240" y="-273" type="line"/>
      <point x="351" y="-199"/>
      <point x="415" y="-48"/>
      <point x="415" y="72" type="curve" smooth="yes"/>
      <point x="415" y="217"/>
      <point x="320" y="233"/>
    </contour>
  </outline>
</glyph>
<glyph name="hyphen" format="2">
  <advance width="737"/>
  <unicode hex="002D"/>
  <outline>
    <contour>
      <point x="743" y="500" type="line"/>
      <point x="148" y="500" type="line"/>
      <point x="148" y="383" type="line"/>
      <point x="743" y="383" type="line"/>
    </contour>
  </outline>
</glyph>
<glyph name="period" format="2">
  <advance width="413"/>
  <unicode hex="002E"/>
  <outline>
    <contour>
      <point x="282" y="235" type="curve" smooth="yes"/>
      <point x="214" y="235"/>
      <point x="146" y="194"/>
      <point x="146" y="112" type="curve" smooth="yes"/>
      <point x="146" y="32"/>
      <point x="207" y="-20"/>
      <point x="282" y="-20" type="curve" smooth="yes"/>
      <point x="356" y="-20"/>
      <point x="414" y="38"/>
      <point x="414" y="112" type="curve" smooth="yes"/>
      <point x="414" y="184"/>
      <point x="347" y="235"/>
    </contour>
  </outline>
</glyph>
<glyph name="slash" format="2">
  <advance width="980"/>
  <unicode hex="002F"/>
  <outline>
    <contour>
      <point x="877" y="1225" type="line"/>
      <point x="141" y="-221" type="line"/>
      <point x="250" y="-221" type="line"/>
      <point x="986" y="1225" type="line"/>
    </contour>
  </outline>
</glyph>
<glyph name="zero" format="2">
  <advance width="1005"/>
  <unicode hex="0030"/>
  <outline>
    <contour>
      <point x="588" y="54" type="curve" smooth="yes"/>
      <point x="396" y="54"/>
      <point x="375" y="354"/>
      <point x="375" y="485" type="curve" smooth="yes"/>
      <point x="375" y="917"/>
      <point x="516" y="997"/>
      <point x="620" y="997" type="curve" smooth="yes"/>
      <point x="807" y="997"/>
      <point x="831" y="719"/>
      <point x="831" y="577" type="curve" smooth="yes"/>
      <point x="831" y="363"/>
      <point x="795" y="54"/>
    </contour>
    <contour>
      <point x="604" y="1075" type="curve" smooth="yes"/>
      <point x="319" y="1075"/>
      <point x="202" y="821"/>
      <point x="202" y="529" type="curve" smooth="yes"/>
      <point x="202" y="234"/>
      <point x="320" y="-22"/>
      <point x="604" y="-22" type="curve" smooth="yes"/>
      <point x="977" y="-22"/>
      <point x="1003" y="407"/>
      <point x="1003" y="528" type="curve" smooth="yes"/>
      <point x="1003" y="802"/>
      <point x="899" y="1075"/>
    </contour>
  </outline>
</glyph>
<glyph name="one" format="2">
  <advance width="497"/>
  <unicode hex="0031"/>
  <outline>
    <contour>
      <point x="156" y="904" type="curve"/>
      <point x="156" y="796" type="line"/>
      <point x="300" y="872" type="line"/>
      <point x="300" y="-1" type="line"/>
      <point x="493" y="-1" type="line"/>
      <point x="476" y="178"/>
      <point x="467" y="351"/>
      <point x="467" y="520" type="curve" smooth="yes"/>
      <point x="467" y="695"/>
      <point x="476" y="872"/>
      <point x="493" y="1053" type="curve"/>
      <point x="334" y="1053" type="line"/>
      <point x="279" y="997"/>
      <point x="229" y="951"/>
    </contour>
  </outline>
</glyph>
<glyph name="two" format="2">
  <advance width="948"/>
  <unicode hex="0032"/>
  <outline>
    <contour>
      <point x="558" y="1076" type="curve" smooth="yes"/>
      <point x="464" y="1076"/>
      <point x="336" y="1053"/>
      <point x="205" y="870" type="curve"/>
      <point x="236" y="802" type="line"/>
      <point x="333" y="935"/>
      <point x="430" y="957"/>
      <point x="511" y="957" type="curve" smooth="yes"/>
      <point x="710" y="957"/>
      <point x="749" y="830"/>
      <point x="749" y="730" type="curve" smooth="yes"/>
      <point x="749" y="633"/>
      <point x="710" y="558"/>
      <point x="631" y="505" type="curve" smooth="yes"/>
      <point x="609" y="490"/>
      <point x="557" y="464"/>
      <point x="476" y="428" type="curve" smooth="yes"/>
      <point x="284" y="340"/>
      <point x="201" y="259"/>
      <point x="203" y="37" type="curve"/>
      <point x="203" y="6" type="line"/>
      <point x="316" y="13"/>
      <point x="437" y="17"/>
      <point x="566" y="17" type="curve" smooth="yes"/>
      <point x="667" y="17"/>
      <point x="791" y="13"/>
      <point x="939" y="6" type="curve"/>
      <point x="939" y="103" type="line"/>
      <point x="422" y="103" type="line"/>
      <point x="422" y="270"/>
      <point x="483" y="325"/>
      <point x="670" y="402" type="curve" smooth="yes"/>
      <point x="818" y="464"/>
      <point x="947" y="517"/>
      <point x="947" y="728" type="curve" smooth="yes"/>
      <point x="947" y="959"/>
      <point x="749" y="1076"/>
    </contour>
  </outline>
</glyph>
<glyph name="three" format="2">
  <advance width="960"/>
  <unicode hex="0033"/>
  <outline>
    <contour>
      <point x="776" y="564" type="curve"/>
      <point x="925" y="641"/>
      <point x="947" y="739"/>
      <point x="947" y="790" type="curve" smooth="yes"/>
      <point x="947" y="986"/>
      <point x="704" y="1077"/>
      <point x="551" y="1077" type="curve" smooth="yes"/>
      <point x="366" y="1077"/>
      <point x="260" y="966"/>
      <point x="230" y="929" type="curve"/>
      <point x="252" y="866" type="line"/>
      <point x="304" y="947"/>
      <point x="396" y="994"/>
      <point x="488" y="994" type="curve" smooth="yes"/>
      <point x="592" y="994"/>
      <point x="751" y="935"/>
      <point x="751" y="787" type="curve" smooth="yes"/>
      <point x="751" y="634"/>
      <point x="570" y="608"/>
      <point x="495" y="608" type="curve" smooth="yes"/>
      <point x="391" y="608" type="line"/>
      <point x="391" y="514" type="line"/>
      <point x="539" y="514" type="line" smooth="yes"/>
      <point x="665" y="514"/>
      <point x="752" y="423"/>
      <point x="752" y="299" type="curve" smooth="yes"/>
      <point x="752" y="136"/>
      <point x="616" y="67"/>
      <point x="489" y="67" type="curve" smooth="yes"/>
      <point x="329" y="67"/>
      <point x="245" y="164"/>
      <point x="223" y="194" type="curve"/>
      <point x="183" y="115" type="line"/>
      <point x="299" y="-6"/>
      <point x="463" y="-22"/>
      <point x="541" y="-22" type="curve" smooth="yes"/>
      <point x="716" y="-22"/>
      <point x="960" y="71"/>
      <point x="960" y="305" type="curve" smooth="yes"/>
      <point x="960" y="470"/>
      <point x="822" y="544"/>
    </contour>
  </outline>
</glyph>
<glyph name="four" format="2">
  <advance width="1082"/>
  <unicode hex="0034"/>
  <outline>
    <contour>
      <point x="332" y="355" type="line"/>
      <point x="745" y="872" type="line"/>
      <point x="745" y="355" type="line"/>
    </contour>
    <contour>
      <point x="1078" y="355" type="line"/>
      <point x="923" y="355" type="line"/>
      <point x="922" y="430"/>
      <point x="921" y="485"/>
      <point x="921" y="521" type="curve" smooth="yes"/>
      <point x="921" y="694"/>
      <point x="927" y="871"/>
      <point x="938" y="1054" type="curve"/>
      <point x="772" y="1054" type="line"/>
      <point x="685" y="943"/>
      <point x="594" y="784"/>
      <point x="502" y="674" type="curve" smooth="yes"/>
      <point x="417" y="573"/>
      <point x="275" y="427"/>
      <point x="195" y="337" type="curve"/>
      <point x="195" y="229" type="line"/>
      <point x="745" y="229" type="line"/>
      <point x="745" y="1" type="line"/>
      <point x="938" y="1" type="line"/>
      <point x="933" y="82"/>
      <point x="929" y="158"/>
      <point x="926" y="230" type="curve"/>
      <point x="1078" y="230" type="line"/>
    </contour>
  </outline>
</glyph>
<glyph name="five" format="2">
  <advance width="1018"/>
  <unicode hex="0035"/>
  <outline>
    <contour>
      <point x="594" y="695" type="curve" smooth="yes"/>
      <point x="509" y="695"/>
      <point x="424" y="675"/>
      <point x="340" y="636" type="curve"/>
      <point x="384" y="911" type="line"/>
      <point x="978" y="911" type="line"/>
      <point x="978" y="1057" type="line"/>
      <point x="857" y="1046"/>
      <point x="738" y="1040"/>
      <point x="623" y="1040" type="curve" smooth="yes"/>
      <point x="510" y="1040"/>
      <point x="394" y="1046"/>
      <point x="275" y="1057" type="curve"/>
      <point x="226" y="560" type="line"/>
      <point x="307" y="524" type="line"/>
      <point x="368" y="579"/>
      <point x="441" y="607"/>
      <point x="525" y="607" type="curve" smooth="yes"/>
      <point x="692" y="607"/>
      <point x="813" y="476"/>
      <point x="813" y="314" type="curve" smooth="yes"/>
      <point x="813" y="76"/>
      <point x="574" y="67"/>
      <point x="538" y="67" type="curve" smooth="yes"/>
      <point x="368" y="67"/>
      <point x="261" y="153"/>
      <point x="224" y="189" type="curve"/>
      <point x="181" y="112" type="line"/>
      <point x="305" y="-5"/>
      <point x="480" y="-21"/>
      <point x="569" y="-21" type="curve" smooth="yes"/>
      <point x="759" y="-21"/>
      <point x="1020" y="70"/>
      <point x="1020" y="334" type="curve" smooth="yes"/>
      <point x="1020" y="552"/>
      <point x="830" y="695"/>
    </contour>
  </outline>
</glyph>
<glyph name="six" format="2">
  <advance width="1057"/>
  <unicode hex="0036"/>
  <outline>
    <contour>
      <point x="657" y="51" type="curve" smooth="yes"/>
      <point x="455" y="51"/>
      <point x="393" y="280"/>
      <point x="393" y="455" type="curve" smooth="yes"/>
      <point x="393" y="487"/>
      <point x="395" y="518"/>
      <point x="399" y="549" type="curve"/>
      <point x="465" y="594"/>
      <point x="535" y="616"/>
      <point x="610" y="616" type="curve" smooth="yes"/>
      <point x="787" y="616"/>
      <point x="873" y="484"/>
      <point x="873" y="333" type="curve" smooth="yes"/>
      <point x="873" y="172"/>
      <point x="787" y="51"/>
    </contour>
    <contour>
      <point x="656" y="685" type="curve" smooth="yes"/>
      <point x="566" y="685"/>
      <point x="483" y="666"/>
      <point x="406" y="629" type="curve"/>
      <point x="428" y="846"/>
      <point x="597" y="996"/>
      <point x="855" y="996" type="curve" smooth="yes"/>
      <point x="886" y="996"/>
      <point x="919" y="993"/>
      <point x="954" y="988" type="curve"/>
      <point x="972" y="1064" type="line"/>
      <point x="920" y="1073"/>
      <point x="871" y="1077"/>
      <point x="826" y="1077" type="curve" smooth="yes"/>
      <point x="454" y="1077"/>
      <point x="201" y="834"/>
      <point x="201" y="485" type="curve" smooth="yes"/>
      <point x="201" y="189"/>
      <point x="390" y="-19"/>
      <point x="664" y="-19" type="curve" smooth="yes"/>
      <point x="893" y="-19"/>
      <point x="1060" y="130"/>
      <point x="1060" y="339" type="curve" smooth="yes"/>
      <point x="1060" y="547"/>
      <point x="900" y="685"/>
    </contour>
  </outline>
</glyph>
<glyph name="seven" format="2">
  <advance width="882"/>
  <unicode hex="0037"/>
  <outline>
    <contour>
      <point x="881" y="966" type="curve"/>
      <point x="881" y="1056" type="line"/>
      <point x="752" y="1044"/>
      <point x="634" y="1038"/>
      <point x="525" y="1038" type="curve" smooth="yes"/>
      <point x="412" y="1038"/>
      <point x="299" y="1044"/>
      <point x="187" y="1056" type="curve"/>
      <point x="187" y="950" type="line"/>
      <point x="712" y="950" type="line"/>
      <point x="282" y="0" type="line"/>
      <point x="452" y="0" type="line"/>
      <point x="584" y="391"/>
      <point x="681" y="606"/>
    </contour>
  </outline>
</glyph>
<glyph name="eight" format="2">
  <advance width="998"/>
  <unicode hex="0038"/>
  <outline>
    <contour>
      <point x="601" y="57" type="curve" smooth="yes"/>
      <point x="484" y="57"/>
      <point x="390" y="149"/>
      <point x="390" y="267" type="curve" smooth="yes"/>
      <point x="390" y="383"/>
      <point x="484" y="476"/>
      <point x="601" y="476" type="curve" smooth="yes"/>
      <point x="721" y="476"/>
      <point x="812" y="381"/>
      <point x="812" y="267" type="curve" smooth="yes"/>
      <point x="812" y="151"/>
      <point x="720" y="57"/>
    </contour>
    <contour>
      <point x="599" y="578" type="curve" smooth="yes"/>
      <point x="483" y="578"/>
      <point x="392" y="670"/>
      <point x="392" y="784" type="curve" smooth="yes"/>
      <point x="392" y="901"/>
      <point x="486" y="991"/>
      <point x="599" y="991" type="curve" smooth="yes"/>
      <point x="714" y="991"/>
      <point x="807" y="900"/>
      <point x="807" y="784" type="curve" smooth="yes"/>
      <point x="807" y="670"/>
      <point x="715" y="578"/>
    </contour>
    <contour>
      <point x="598" y="1076" type="curve" smooth="yes"/>
      <point x="431" y="1076"/>
      <point x="227" y="990"/>
      <point x="227" y="788" type="curve" smooth="yes"/>
      <point x="227" y="673"/>
      <point x="286" y="586"/>
      <point x="405" y="528" type="curve"/>
      <point x="270" y="472"/>
      <point x="203" y="386"/>
      <point x="203" y="269" type="curve" smooth="yes"/>
      <point x="203" y="44"/>
      <point x="452" y="-23"/>
      <point x="600" y="-23" type="curve" smooth="yes"/>
      <point x="757" y="-23"/>
      <point x="997" y="49"/>
      <point x="997" y="269" type="curve" smooth="yes"/>
      <point x="997" y="384"/>
      <point x="930" y="471"/>
      <point x="795" y="528" type="curve"/>
      <point x="913" y="585"/>
      <point x="972" y="671"/>
      <point x="972" y="788" type="curve" smooth="yes"/>
      <point x="972" y="988"/>
      <point x="770" y="1076"/>
    </contour>
  </outline>
</glyph>
<glyph name="nine" format="2">
  <advance width="1072"/>
  <unicode hex="0039"/>
  <outline>
    <contour>
      <point x="391" y="731" type="curve" smooth="yes"/>
      <point x="391" y="880"/>
      <point x="474" y="1008"/>
      <point x="608" y="1008" type="curve" smooth="yes"/>
      <point x="836" y="1008"/>
      <point x="875" y="697"/>
      <point x="875" y="584" type="curve" smooth="yes"/>
      <point x="875" y="561"/>
      <point x="874" y="539"/>
      <point x="872" y="517" type="curve"/>
      <point x="803" y="467"/>
      <point x="730" y="442"/>
      <point x="653" y="442" type="curve" smooth="yes"/>
      <point x="471" y="442"/>
      <point x="391" y="586"/>
    </contour>
    <contour>
      <point x="604" y="1076" type="curve" smooth="yes"/>
      <point x="370" y="1076"/>
      <point x="204" y="923"/>
      <point x="204" y="715" type="curve" smooth="yes"/>
      <point x="204" y="482"/>
      <point x="403" y="372"/>
      <point x="600" y="372" type="curve" smooth="yes"/>
      <point x="697" y="372"/>
      <point x="786" y="393"/>
      <point x="869" y="436" type="curve"/>
      <point x="844" y="70"/>
      <point x="460" y="58"/>
      <point x="410" y="58" type="curve" smooth="yes"/>
      <point x="381" y="58"/>
      <point x="356" y="59"/>
      <point x="334" y="62" type="curve"/>
      <point x="318" y="-13" type="line"/>
      <point x="359" y="-18"/>
      <point x="399" y="-21"/>
      <point x="436" y="-21" type="curve" smooth="yes"/>
      <point x="811" y="-21"/>
      <point x="1070" y="219"/>
      <point x="1070" y="568" type="curve" smooth="yes"/>
      <point x="1070" y="866"/>
      <point x="876" y="1076"/>
    </contour>
  </outline>
</glyph>
<glyph name="colon" format="2">
  <advance width="414"/>
  <unicode hex="003A"/>
  <outline>
    <contour>
      <point x="282" y="248" type="curve" smooth="yes"/>
      <point x="210" y="248"/>
      <point x="146" y="204"/>
      <point x="146" y="122" type="curve" smooth="yes"/>
      <point x="146" y="44"/>
      <point x="204" y="-14"/>
      <point x="282" y="-14" type="curve" smooth="yes"/>
      <point x="360" y="-14"/>
      <point x="414" y="51"/>
      <point x="414" y="122" type="curve" smooth="yes"/>
      <point x="414" y="192"/>
      <point x="351" y="248"/>
    </contour>
    <contour>
      <point x="282" y="834" type="curve" smooth="yes"/>
      <point x="209" y="834"/>
      <point x="146" y="788"/>
      <point x="146" y="707" type="curve" smooth="yes"/>
      <point x="146" y="630"/>
      <point x="203" y="569"/>
      <point x="282" y="569" type="curve" smooth="yes"/>
      <point x="358" y="569"/>
      <point x="414" y="633"/>
      <point x="414" y="707" type="curve" smooth="yes"/>
      <point x="414" y="777"/>
      <point x="351" y="834"/>
    </contour>
  </outline>
</glyph>
<glyph name="semicolon" format="2">
  <advance width="412"/>
  <unicode hex="003B"/>
  <outline>
    <contour>
      <point x="278" y="242" type="curve" smooth="yes"/>
      <point x="205" y="242"/>
      <point x="146" y="195"/>
      <point x="146" y="115" type="curve" smooth="yes"/>
      <point x="146" y="48"/>
      <point x="187" y="-18"/>
      <point x="264" y="-18" type="curve" smooth="yes"/>
      <point x="283" y="-18"/>
      <point x="293" y="-29"/>
      <point x="293" y="-50" type="curve" smooth="yes"/>
      <point x="293" y="-127"/>
      <point x="199" y="-209"/>
      <point x="185" y="-221" type="curve"/>
      <point x="239" y="-270" type="line"/>
      <point x="351" y="-195"/>
      <point x="414" y="-40"/>
      <point x="414" y="80" type="curve" smooth="yes"/>
      <point x="414" y="227"/>
      <point x="318" y="242"/>
    </contour>
    <contour>
      <point x="282" y="584" type="curve" smooth="yes"/>
      <point x="209" y="584"/>
      <point x="146" y="538"/>
      <point x="146" y="457" type="curve" smooth="yes"/>
      <point x="146" y="381"/>
      <point x="202" y="318"/>
      <point x="282" y="318" type="curve" smooth="yes"/>
      <point x="358" y="318"/>
      <point x="414" y="384"/>
      <point x="414" y="457" type="curve" smooth="yes"/>
      <point x="414" y="527"/>
      <point x="351" y="584"/>
    </contour>
  </outline>
</glyph>
<glyph name="equal" format="2">
  <advance width="878"/>
  <unicode hex="003D"/>
  <outline>
    <contour>
      <point x="881" y="352" type="line"/>
      <point x="150" y="352" type="line"/>
      <point x="150" y="232" type="line"/>
      <point x="881" y="232" type="line"/>
    </contour>
    <contour>
      <point x="881" y="650" type="line"/>
      <point x="150" y="650" type="line"/>
      <point x="150" y="530" type="line"/>
      <point x="881" y="530" type="line"/>
    </contour>
  </outline>
</glyph>
<glyph name="greater" format="2">
  <advance width="940"/>
  <unicode hex="003E"/>
  <outline>
    <contour>
      <point x="948" y="519" type="line"/>
      <point x="151" y="942" type="line"/>
      <point x="151" y="819" type="line"/>
      <point x="759" y="465" type="line"/>
      <point x="151" y="113" type="line"/>
      <point x="151" y="-10" type="line"/>
      <point x="948" y="414" type="line"/>
    </contour>
  </outline>
</glyph>
<glyph name="question" format="2">
  <advance width="890"/>
  <unicode hex="003F"/>
  <outline>
    <contour>
      <point x="519" y="216" type="curve" smooth="yes"/>
      <point x="447" y="216"/>
      <point x="375" y="159"/>
      <point x="375" y="82" type="curve" smooth="yes"/>
      <point x="375" y="3"/>
      <point x="450" y="-47"/>
      <point x="519" y="-47" type="curve" smooth="yes"/>
      <point x="588" y="-47"/>
      <point x="663" y="3"/>
      <point x="663" y="82" type="curve" smooth="yes"/>
      <point x="663" y="161"/>
      <point x="592" y="216"/>
    </contour>
    <contour>
      <point x="469" y="1232" type="curve" smooth="yes"/>
      <point x="268" y="1232"/>
      <point x="75" y="1130"/>
      <point x="75" y="916" type="curve" smooth="yes"/>
      <point x="75" y="841"/>
      <point x="122" y="778"/>
      <point x="207" y="778" type="curve" smooth="yes"/>
      <point x="251" y="778"/>
      <point x="319" y="805"/>
      <point x="319" y="867" type="curve" smooth="yes"/>
      <point x="319" y="912"/>
      <point x="258" y="954"/>
      <point x="258" y="998" type="curve" smooth="yes"/>
      <point x="258" y="1106"/>
      <point x="352" y="1147"/>
      <point x="431" y="1147" type="curve" smooth="yes"/>
      <point x="564" y="1147"/>
      <point x="655" y="1032"/>
      <point x="655" y="909" type="curve" smooth="yes"/>
      <point x="655" y="691"/>
      <point x="398" y="599"/>
      <point x="398" y="365" type="curve" smooth="yes"/>
      <point x="398" y="338"/>
      <point x="404" y="308"/>
      <point x="415" y="275" type="curve"/>
      <point x="513" y="306" type="line"/>
      <point x="507" y="327"/>
      <point x="504" y="348"/>
      <point x="504" y="369" type="curve" smooth="yes"/>
      <point x="504" y="626"/>
      <point x="889" y="644"/>
      <point x="889" y="903" type="curve" smooth="yes"/>
      <point x="889" y="1118"/>
      <point x="651" y="1232"/>
    </contour>
  </outline>
</glyph>
<glyph name="at" format="2">
  <advance width="1315"/>
  <unicode hex="0040"/>
  <outline>
    <contour>
      <point x="694" y="341" type="curve" smooth="yes"/>
      <point x="547" y="341"/>
      <point x="517" y="532"/>
      <point x="517" y="608" type="curve" smooth="yes"/>
      <point x="517" y="699"/>
      <point x="559" y="870"/>
      <point x="699" y="870" type="curve" smooth="yes"/>
      <point x="793" y="870"/>
      <point x="854" y="775"/>
      <point x="854" y="692" type="curve" smooth="yes"/>
      <point x="854" y="523" type="line" smooth="yes"/>
      <point x="854" y="437"/>
      <point x="790" y="341"/>
    </contour>
    <contour>
      <point x="761" y="1227" type="curve" smooth="yes"/>
      <point x="391" y="1227"/>
      <point x="159" y="947"/>
      <point x="159" y="598" type="curve" smooth="yes"/>
      <point x="159" y="241"/>
      <point x="397" y="-20"/>
      <point x="764" y="-20" type="curve" smooth="yes"/>
      <point x="883" y="-20"/>
      <point x="992" y="16"/>
      <point x="1089" y="89" type="curve"/>
      <point x="1033" y="159" type="line"/>
      <point x="954" y="104"/>
      <point x="860" y="76"/>
      <point x="753" y="76" type="curve" smooth="yes"/>
      <point x="441" y="76"/>
      <point x="273" y="328"/>
      <point x="273" y="603" type="curve" smooth="yes"/>
      <point x="273" y="862"/>
      <point x="439" y="1142"/>
      <point x="745" y="1142" type="curve" smooth="yes"/>
      <point x="1030" y="1142"/>
      <point x="1141" y="893"/>
      <point x="1141" y="675" type="curve" smooth="yes"/>
      <point x="1141" y="649"/>
      <point x="1132" y="405"/>
      <point x="1026" y="405" type="curve" smooth="yes"/>
      <point x="989" y="405"/>
      <point x="942" y="456"/>
      <point x="942" y="492" type="curve" smooth="yes"/>
      <point x="942" y="941" type="line"/>
      <point x="854" y="941" type="line"/>
      <point x="854" y="851" type="line"/>
      <point x="801" y="917"/>
      <point x="738" y="950"/>
      <point x="664" y="950" type="curve" smooth="yes"/>
      <point x="499" y="950"/>
      <point x="385" y="783"/>
      <point x="385" y="607" type="curve" smooth="yes"/>
      <point x="385" y="432"/>
      <point x="498" y="263"/>
      <point x="664" y="263" type="curve" smooth="yes"/>
      <point x="769" y="263"/>
      <point x="836" y="337"/>
      <point x="858" y="365" type="curve"/>
      <point x="904" y="277"/>
      <point x="989" y="274"/>
      <point x="1002" y="274" type="curve" smooth="yes"/>
      <point x="1230" y="274"/>
      <point x="1315" y="530"/>
      <point x="1315" y="692" type="curve" smooth="yes"/>
      <point x="1315" y="1020"/>
      <point x="1072" y="1227"/>
    </contour>
  </outline>
</glyph>
<glyph name="B" format="2">
  <advance width="975"/>
  <unicode hex="0042"/>
  <outline>
    <contour>
      <point x="517" y="75" type="curve" smooth="yes"/>
      <point x="327" y="75" type="line"/>
      <point x="327" y="593" type="line"/>
      <point x="526" y="593" type="line" smooth="yes"/>
      <point x="678" y="593"/>
      <point x="788" y="500"/>
      <point x="788" y="341" type="curve" smooth="yes"/>
      <point x="788" y="174"/>
      <point x="671" y="75"/>
    </contour>
    <contour>
      <point x="446" y="660" type="curve" smooth="yes"/>
      <point x="406" y="660"/>
      <point x="366" y="664"/>
      <point x="327" y="672" type="curve"/>
      <point x="327" y="1136" type="line"/>
      <point x="526" y="1136" type="line" smooth="yes"/>
      <point x="652" y="1136"/>
      <point x="778" y="1056"/>
      <point x="778" y="909" type="curve" smooth="yes"/>
      <point x="778" y="727"/>
      <point x="589" y="660"/>
    </contour>
    <contour>
      <point x="738" y="638" type="curve"/>
      <point x="938" y="708"/>
      <point x="953" y="862"/>
      <point x="953" y="906" type="curve" smooth="yes"/>
      <point x="953" y="1110"/>
      <point x="757" y="1216"/>
      <point x="589" y="1216" type="curve" smooth="yes"/>
      <point x="505" y="1216"/>
      <point x="385" y="1209"/>
      <point x="300" y="1209" type="curve" smooth="yes"/>
      <point x="251" y="1209"/>
      <point x="202" y="1211"/>
      <point x="153" y="1216" type="curve"/>
      <point x="160" y="1025"/>
      <point x="163" y="828"/>
      <point x="163" y="625" type="curve" smooth="yes"/>
      <point x="163" y="449"/>
      <point x="160" y="239"/>
      <point x="153" y="-4" type="curve"/>
      <point x="198" y="-1"/>
      <point x="248" y="1"/>
      <point x="304" y="1" type="curve" smooth="yes"/>
      <point x="384" y="1"/>
      <point x="500" y="-4"/>
      <point x="582" y="-4" type="curve" smooth="yes"/>
      <point x="765" y="-4"/>
      <point x="974" y="98"/>
      <point x="974" y="344" type="curve" smooth="yes"/>
      <point x="974" y="561"/>
      <point x="797" y="623"/>
    </contour>
  </outline>
</glyph>
<glyph name="C" format="2">
  <advance width="1060"/>
  <unicode hex="0043"/>
  <outline>
    <contour>
      <point x="708" y="101" type="curve" smooth="yes"/>
      <point x="454" y="101"/>
      <point x="346" y="351"/>
      <point x="346" y="583" type="curve" smooth="yes"/>
      <point x="346" y="810"/>
      <point x="454" y="1101"/>
      <point x="723" y="1101" type="curve" smooth="yes"/>
      <point x="876" y="1101"/>
      <point x="968" y="991"/>
      <point x="1003" y="939" type="curve"/>
      <point x="1039" y="1019" type="line"/>
      <point x="915" y="1201"/>
      <point x="761" y="1230"/>
      <point x="676" y="1230" type="curve" smooth="yes"/>
      <point x="327" y="1230"/>
      <point x="159" y="901"/>
      <point x="159" y="589" type="curve" smooth="yes"/>
      <point x="159" y="269"/>
      <point x="333" y="-21"/>
      <point x="675" y="-21" type="curve" smooth="yes"/>
      <point x="871" y="-21"/>
      <point x="994" y="103"/>
      <point x="1053" y="184" type="curve"/>
      <point x="996" y="288" type="line"/>
      <point x="912" y="128"/>
      <point x="784" y="101"/>
    </contour>
  </outline>
</glyph>
<glyph name="D" format="2">
  <advance width="1065"/>
  <unicode hex="0044"/>
  <outline>
    <contour>
      <point x="500" y="75" type="curve" smooth="yes"/>
      <point x="327" y="75" type="line"/>
      <point x="327" y="1135" type="line"/>
      <point x="500" y="1135" type="line" smooth="yes"/>
      <point x="772" y="1135"/>
      <point x="879" y="837"/>
      <point x="879" y="606" type="curve" smooth="yes"/>
      <point x="879" y="375"/>
      <point x="777" y="75"/>
    </contour>
    <contour>
      <point x="556" y="1215" type="curve" smooth="yes"/>
      <point x="486" y="1215"/>
      <point x="387" y="1204"/>
      <point x="319" y="1204" type="curve" smooth="yes"/>
      <point x="270" y="1204"/>
      <point x="215" y="1208"/>
      <point x="153" y="1215" type="curve"/>
      <point x="167" y="997"/>
      <point x="174" y="814"/>
      <point x="174" y="666" type="curve" smooth="yes"/>
      <point x="174" y="471"/>
      <point x="167" y="247"/>
      <point x="153" y="-5" type="curve"/>
      <point x="220" y="2"/>
      <point x="277" y="5"/>
      <point x="324" y="5" type="curve" smooth="yes"/>
      <point x="392" y="5"/>
      <point x="489" y="-5"/>
      <point x="557" y="-5" type="curve" smooth="yes"/>
      <point x="889" y="-5"/>
      <point x="1063" y="288"/>
      <point x="1063" y="605" type="curve" smooth="yes"/>
      <point x="1063" y="917"/>
      <point x="893" y="1215"/>
    </contour>
  </outline>
</glyph>
<glyph name="F" format="2">
  <advance width="861"/>
  <unicode hex="0046"/>
  <outline>
    <contour>
      <point x="874" y="1212" type="line"/>
      <point x="727" y="1202"/>
      <point x="598" y="1197"/>
      <point x="487" y="1197" type="curve" smooth="yes"/>
      <point x="369" y="1197"/>
      <point x="258" y="1202"/>
      <point x="153" y="1212" type="curve"/>
      <point x="164" y="1025"/>
      <point x="169" y="836"/>
      <point x="169" y="645" type="curve" smooth="yes"/>
      <point x="169" y="482"/>
      <point x="164" y="265"/>
      <point x="153" y="-4" type="curve"/>
      <point x="327" y="-4" type="line"/>
      <point x="327" y="622" type="line"/>
      <point x="763" y="622" type="line"/>
      <point x="763" y="717" type="line"/>
      <point x="670" y="710"/>
      <point x="589" y="707"/>
      <point x="521" y="707" type="curve" smooth="yes"/>
      <point x="452" y="707"/>
      <point x="387" y="709"/>
      <point x="327" y="714" type="curve"/>
      <point x="327" y="1132" type="line"/>
      <point x="874" y="1132" type="line"/>
    </contour>
  </outline>
</glyph>
<glyph name="G" format="2">
  <advance width="1051"/>
  <unicode hex="0047"/>
  <outline>
    <contour>
      <point x="153" y="593" type="curve" smooth="yes"/>
      <point x="153" y="274"/>
      <point x="334" y="-21"/>
      <point x="665" y="-21" type="curve" smooth="yes"/>
      <point x="829" y="-21"/>
      <point x="957" y="19"/>
      <point x="1050" y="99" type="curve"/>
      <point x="1043" y="203"/>
      <point x="1039" y="301"/>
      <point x="1039" y="392" type="curve" smooth="yes"/>
      <point x="1039" y="471"/>
      <point x="1043" y="549"/>
      <point x="1051" y="626" type="curve"/>
      <point x="964" y="617"/>
      <point x="888" y="613"/>
      <point x="823" y="613" type="curve" smooth="yes"/>
      <point x="758" y="613"/>
      <point x="692" y="617"/>
      <point x="625" y="626" type="curve"/>
      <point x="625" y="546" type="line"/>
      <point x="876" y="546" type="line"/>
      <point x="876" y="91" type="line"/>
      <point x="836" y="76"/>
      <point x="792" y="68"/>
      <point x="744" y="68" type="curve" smooth="yes"/>
      <point x="459" y="68"/>
      <point x="341" y="356"/>
      <point x="341" y="584" type="curve" smooth="yes"/>
      <point x="341" y="841"/>
      <point x="477" y="1104"/>
      <point x="783" y="1104" type="curve" smooth="yes"/>
      <point x="922" y="1104"/>
      <point x="997" y="1017"/>
      <point x="1023" y="979" type="curve"/>
      <point x="1059" y="1059" type="line"/>
      <point x="951" y="1215"/>
      <point x="783" y="1231"/>
      <point x="718" y="1231" type="curve" smooth="yes"/>
      <point x="378" y="1231"/>
      <point x="153" y="968"/>
    </contour>
  </outline>
</glyph>
<glyph name="H" format="2">
  <advance width="1034"/>
  <unicode hex="0048"/>
  <outline>
    <contour>
      <point x="1034" y="1" type="line"/>
      <point x="1020" y="184"/>
      <point x="1013" y="376"/>
      <point x="1013" y="578" type="curve" smooth="yes"/>
      <point x="1013" y="764"/>
      <point x="1020" y="974"/>
      <point x="1034" y="1208" type="curve"/>
      <point x="860" y="1208" type="line"/>
      <point x="860" y="662" type="line"/>
      <point x="751" y="654"/>
      <point x="656" y="650"/>
      <point x="574" y="650" type="curve" smooth="yes"/>
      <point x="482" y="650"/>
      <point x="400" y="654"/>
      <point x="327" y="662" type="curve"/>
      <point x="327" y="1208" type="line"/>
      <point x="153" y="1208" type="line"/>
      <point x="167" y="1026"/>
      <point x="174" y="838"/>
      <point x="174" y="644" type="curve" smooth="yes"/>
      <point x="174" y="450"/>
      <point x="167" y="236"/>
      <point x="153" y="1" type="curve"/>
      <point x="327" y="1" type="line"/>
      <point x="327" y="573" type="line"/>
      <point x="860" y="573" type="line"/>
      <point x="860" y="1" type="line"/>
    </contour>
  </outline>
</glyph>
<glyph name="I" format="2">
  <advance width="335"/>
  <unicode hex="0049"/>
  <outline>
    <contour>
      <point x="329" y="0" type="line"/>
      <point x="318" y="179"/>
      <point x="312" y="365"/>
      <point x="312" y="558" type="curve" smooth="yes"/>
      <point x="312" y="739"/>
      <point x="318" y="956"/>
      <point x="329" y="1210" type="curve"/>
      <point x="163" y="1210" type="line"/>
      <point x="176" y="1023"/>
      <point x="183" y="834"/>
      <point x="183" y="642" type="curve" smooth="yes"/>
      <point x="183" y="455"/>
      <point x="176" y="241"/>
      <point x="163" y="0" type="curve"/>
    </contour>
  </outline>
</glyph>
<glyph name="J" format="2">
  <advance width="649"/>
  <unicode hex="004A"/>
  <outline>
    <contour>
      <point x="291" y="60" type="curve" smooth="yes"/>
      <point x="172" y="60"/>
      <point x="124" y="154"/>
      <point x="113" y="180" type="curve"/>
      <point x="59" y="140" type="line"/>
      <point x="139" y="-2"/>
      <point x="264" y="-22"/>
      <point x="329" y="-22" type="curve" smooth="yes"/>
      <point x="520" y="-22"/>
      <point x="648" y="129"/>
      <point x="648" y="313" type="curve" smooth="yes"/>
      <point x="648" y="484"/>
      <point x="626" y="710"/>
      <point x="626" y="881" type="curve" smooth="yes"/>
      <point x="626" y="992"/>
      <point x="634" y="1103"/>
      <point x="649" y="1212" type="curve"/>
      <point x="611" y="1209"/>
      <point x="581" y="1207"/>
      <point x="560" y="1207" type="curve" smooth="yes"/>
      <point x="539" y="1207"/>
      <point x="510" y="1209"/>
      <point x="475" y="1212" type="curve"/>
      <point x="475" y="276" type="line" smooth="yes"/>
      <point x="475" y="176"/>
      <point x="422" y="60"/>
    </contour>
  </outline>
</glyph>
<glyph name="K" format="2">
  <advance width="1025"/>
  <unicode hex="004B"/>
  <outline>
    <contour>
      <point x="327" y="587" type="curve"/>
      <point x="327" y="1210" type="line"/>
      <point x="153" y="1210" type="line"/>
      <point x="166" y="1017"/>
      <point x="172" y="819"/>
      <point x="172" y="614" type="curve" smooth="yes"/>
      <point x="172" y="421"/>
      <point x="166" y="216"/>
      <point x="153" y="1" type="curve"/>
      <point x="327" y="1" type="line"/>
      <point x="327" y="444" type="line"/>
      <point x="499" y="632" type="line"/>
      <point x="848" y="1" type="line"/>
      <point x="1056" y="1" type="line"/>
      <point x="848" y="284"/>
      <point x="710" y="562"/>
      <point x="626" y="772" type="curve"/>
      <point x="1018" y="1210" type="line"/>
      <point x="901" y="1210" type="line"/>
      <point x="792" y="1078"/>
      <point x="693" y="964"/>
    </contour>
  </outline>
</glyph>
<glyph name="L" format="2">
  <advance width="854"/>
  <unicode hex="004C"/>
  <outline>
    <contour>
      <point x="851" y="79" type="line"/>
      <point x="327" y="79" type="line"/>
      <point x="327" y="1208" type="line"/>
      <point x="153" y="1208" type="line"/>
      <point x="165" y="1023"/>
      <point x="171" y="831"/>
      <point x="171" y="630" type="curve" smooth="yes"/>
      <point x="171" y="423"/>
      <point x="165" y="213"/>
      <point x="153" y="0" type="curve"/>
      <point x="277" y="5"/>
      <point x="389" y="8"/>
      <point x="490" y="8" type="curve" smooth="yes"/>
      <point x="599" y="8"/>
      <point x="720" y="5"/>
      <point x="851" y="0" type="curve"/>
    </contour>
  </outline>
</glyph>
<glyph name="M" format="2">
  <advance width="1258"/>
  <unicode hex="004D"/>
  <outline>
    <contour>
      <point x="1051" y="1210" type="line"/>
      <point x="722" y="233" type="line"/>
      <point x="702" y="284"/>
      <point x="679" y="339"/>
      <point x="654" y="399" type="curve" smooth="yes"/>
      <point x="585" y="560"/>
      <point x="531" y="697"/>
      <point x="487" y="870" type="curve" smooth="yes"/>
      <point x="486" y="873"/>
      <point x="410" y="1191"/>
      <point x="405" y="1210" type="curve"/>
      <point x="163" y="1210" type="line"/>
      <point x="153" y="0" type="line"/>
      <point x="266" y="0" type="line"/>
      <point x="266" y="1067" type="line"/>
      <point x="616" y="0" type="line"/>
      <point x="757" y="0" type="line"/>
      <point x="1084" y="1066" type="line"/>
      <point x="1082" y="0" type="line"/>
      <point x="1257" y="0" type="line"/>
      <point x="1246" y="214"/>
      <point x="1240" y="419"/>
      <point x="1240" y="615" type="curve" smooth="yes"/>
      <point x="1240" y="800"/>
      <point x="1246" y="999"/>
      <point x="1257" y="1210" type="curve"/>
    </contour>
  </outline>
</glyph>
<glyph name="N" format="2">
  <advance width="1125"/>
  <unicode hex="004E"/>
  <outline>
    <contour>
      <point x="1064" y="1210" type="line"/>
      <point x="963" y="1210" type="line"/>
      <point x="963" y="231" type="line"/>
      <point x="613" y="650"/>
      <point x="427" y="1032"/>
      <point x="347" y="1210" type="curve"/>
      <point x="183" y="1210" type="line"/>
      <point x="173" y="0" type="line"/>
      <point x="286" y="0" type="line"/>
      <point x="286" y="987" type="line"/>
      <point x="890" y="0" type="line"/>
      <point x="1074" y="0" type="line"/>
    </contour>
  </outline>
</glyph>
<glyph name="P" format="2">
  <advance width="973"/>
  <unicode hex="0050"/>
  <outline>
    <contour>
      <point x="508" y="626" type="curve" smooth="yes"/>
      <point x="327" y="626" type="line"/>
      <point x="327" y="1134" type="line"/>
      <point x="518" y="1134" type="line" smooth="yes"/>
      <point x="664" y="1134"/>
      <point x="788" y="1039"/>
      <point x="788" y="878" type="curve" smooth="yes"/>
      <point x="788" y="703"/>
      <point x="646" y="626"/>
    </contour>
    <contour>
      <point x="578" y="1214" type="curve" smooth="yes"/>
      <point x="498" y="1214"/>
      <point x="383" y="1205"/>
      <point x="303" y="1205" type="curve" smooth="yes"/>
      <point x="256" y="1205"/>
      <point x="206" y="1208"/>
      <point x="153" y="1214" type="curve"/>
      <point x="164" y="1023"/>
      <point x="170" y="825"/>
      <point x="170" y="620" type="curve" smooth="yes"/>
      <point x="170" y="425"/>
      <point x="164" y="219"/>
      <point x="153" y="0" type="curve"/>
      <point x="327" y="0" type="line"/>
      <point x="327" y="548" type="line"/>
      <point x="557" y="548" type="line" smooth="yes"/>
      <point x="742" y="548"/>
      <point x="973" y="641"/>
      <point x="973" y="880" type="curve" smooth="yes"/>
      <point x="973" y="1108"/>
      <point x="764" y="1214"/>
    </contour>
  </outline>
</glyph>
<glyph name="Q" format="2">
  <advance width="1221"/>
  <unicode hex="0051"/>
  <outline>
    <contour>
      <point x="927" y="183" type="curve"/>
      <point x="832" y="343"/>
      <point x="760" y="415"/>
      <point x="626" y="439" type="curve"/>
      <point x="591" y="297" type="line"/>
      <point x="707" y="297"/>
      <point x="773" y="234"/>
      <point x="856" y="111" type="curve"/>
      <point x="808" y="77"/>
      <point x="753" y="60"/>
      <point x="692" y="60" type="curve" smooth="yes"/>
      <point x="426" y="60"/>
      <point x="337" y="422"/>
      <point x="337" y="624" type="curve" smooth="yes"/>
      <point x="337" y="882"/>
      <point x="436" y="1152"/>
      <point x="682" y="1152" type="curve" smooth="yes"/>
      <point x="951" y="1152"/>
      <point x="1037" y="790"/>
      <point x="1037" y="594" type="curve" smooth="yes"/>
      <point x="1037" y="361"/>
      <point x="963" y="232"/>
    </contour>
    <contour>
      <point x="687" y="1230" type="curve" smooth="yes"/>
      <point x="322" y="1230"/>
      <point x="149" y="911"/>
      <point x="149" y="609" type="curve" smooth="yes"/>
      <point x="149" y="283"/>
      <point x="340" y="-20"/>
      <point x="687" y="-20" type="curve" smooth="yes"/>
      <point x="768" y="-20"/>
      <point x="843" y="-4"/>
      <point x="911" y="28" type="curve"/>
      <point x="953" y="-36"/>
      <point x="1038" y="-163"/>
      <point x="1192" y="-175" type="curve"/>
      <point x="1223" y="-27" type="line"/>
      <point x="1137" y="-35"/>
      <point x="1062" y="-12"/>
      <point x="993" y="79" type="curve"/>
      <point x="1204" y="240"/>
      <point x="1224" y="512"/>
      <point x="1224" y="609" type="curve" smooth="yes"/>
      <point x="1224" y="933"/>
      <point x="1038" y="1230"/>
    </contour>
  </outline>
</glyph>
<glyph name="R" format="2">
  <advance width="1021"/>
  <unicode hex="0052"/>
  <outline>
    <contour>
      <point x="518" y="637" type="curve" smooth="yes"/>
      <point x="327" y="637" type="line"/>
      <point x="327" y="1133" type="line"/>
      <point x="529" y="1133" type="line" smooth="yes"/>
      <point x="666" y="1133"/>
      <point x="799" y="1052"/>
      <point x="799" y="888" type="curve" smooth="yes"/>
      <point x="799" y="715"/>
      <point x="655" y="637"/>
    </contour>
    <contour>
      <point x="980" y="894" type="curve" smooth="yes"/>
      <point x="980" y="1133"/>
      <point x="758" y="1213"/>
      <point x="587" y="1213" type="curve" smooth="yes"/>
      <point x="505" y="1213"/>
      <point x="384" y="1206"/>
      <point x="300" y="1206" type="curve" smooth="yes"/>
      <point x="243" y="1206"/>
      <point x="194" y="1208"/>
      <point x="153" y="1213" type="curve"/>
      <point x="164" y="1011"/>
      <point x="169" y="807"/>
      <point x="169" y="600" type="curve" smooth="yes"/>
      <point x="169" y="400"/>
      <point x="164" y="200"/>
      <point x="153" y="0" type="curve"/>
      <point x="327" y="0" type="line"/>
      <point x="327" y="557" type="line"/>
      <point x="522" y="557" type="line"/>
      <point x="831" y="0" type="line"/>
      <point x="1030" y="0" type="line"/>
      <point x="976" y="83"/>
      <point x="886" y="197"/>
      <point x="829" y="291" type="curve" smooth="yes"/>
      <point x="777" y="377"/>
      <point x="712" y="507"/>
      <point x="676" y="570" type="curve"/>
      <point x="850" y="581"/>
      <point x="980" y="717"/>
    </contour>
  </outline>
</glyph>
<glyph name="S" format="2">
  <advance width="969"/>
  <unicode hex="0053"/>
  <outline>
    <contour>
      <point x="571" y="1145" type="curve" smooth="yes"/>
      <point x="739" y="1145"/>
      <point x="836" y="1053"/>
      <point x="881" y="993" type="curve"/>
      <point x="940" y="1064" type="line"/>
      <point x="839" y="1175"/>
      <point x="714" y="1231"/>
      <point x="565" y="1231" type="curve" smooth="yes"/>
      <point x="361" y="1231"/>
      <point x="154" y="1116"/>
      <point x="154" y="863" type="curve" smooth="yes"/>
      <point x="154" y="634"/>
      <point x="347" y="572"/>
      <point x="520" y="537" type="curve" smooth="yes"/>
      <point x="657" y="507"/>
      <point x="795" y="472"/>
      <point x="795" y="304" type="curve" smooth="yes"/>
      <point x="795" y="155"/>
      <point x="672" y="65"/>
      <point x="537" y="65" type="curve" smooth="yes"/>
      <point x="320" y="65"/>
      <point x="222" y="221"/>
      <point x="195" y="268" type="curve"/>
      <point x="134" y="177" type="line"/>
      <point x="265" y="9"/>
      <point x="443" y="-20"/>
      <point x="551" y="-20" type="curve" smooth="yes"/>
      <point x="770" y="-20"/>
      <point x="963" y="116"/>
      <point x="963" y="365" type="curve" smooth="yes"/>
      <point x="963" y="575"/>
      <point x="845" y="666"/>
      <point x="579" y="736" type="curve" smooth="yes"/>
      <point x="423" y="778"/>
      <point x="311" y="826"/>
      <point x="311" y="931" type="curve" smooth="yes"/>
      <point x="311" y="1140"/>
      <point x="550" y="1145"/>
    </contour>
  </outline>
</glyph>
<glyph name="T" format="2">
  <advance width="1037"/>
  <unicode hex="0054"/>
  <outline>
    <contour>
      <point x="1033" y="1214" type="line"/>
      <point x="886" y="1203"/>
      <point x="735" y="1197"/>
      <point x="579" y="1197" type="curve" smooth="yes"/>
      <point x="424" y="1197"/>
      <point x="275" y="1203"/>
      <point x="130" y="1214" type="curve"/>
      <point x="130" y="1114" type="line"/>
      <point x="494" y="1114" type="line"/>
      <point x="505" y="935"/>
      <point x="510" y="751"/>
      <point x="510" y="562" type="curve" smooth="yes"/>
      <point x="510" y="373"/>
      <point x="505" y="185"/>
      <point x="494" y="0" type="curve"/>
      <point x="668" y="0" type="line"/>
      <point x="662" y="183"/>
      <point x="659" y="362"/>
      <point x="659" y="537" type="curve" smooth="yes"/>
      <point x="659" y="730"/>
      <point x="662" y="922"/>
      <point x="668" y="1114" type="curve"/>
      <point x="1033" y="1114" type="line"/>
    </contour>
  </outline>
</glyph>
<glyph name="V" format="2">
  <advance width="1111"/>
  <unicode hex="0056"/>
  <outline>
    <contour>
      <point x="1027" y="1210" type="line"/>
      <point x="677" y="173" type="line"/>
      <point x="526" y="501"/>
      <point x="412" y="812"/>
      <point x="325" y="1210" type="curve"/>
      <point x="124" y="1210" type="line"/>
      <point x="533" y="0" type="line"/>
      <point x="735" y="0" type="line"/>
      <point x="1129" y="1210" type="line"/>
    </contour>
  </outline>
</glyph>
<glyph name="W" format="2">
  <advance width="1619"/>
  <unicode hex="0057"/>
  <outline>
    <contour>
      <point x="1538" y="1210" type="line"/>
      <point x="1286" y="178" type="line"/>
      <point x="1126" y="617"/>
      <point x="1084" y="779"/>
      <point x="1033" y="1210" type="curve"/>
      <point x="831" y="1210" type="line"/>
      <point x="580" y="178" type="line"/>
      <point x="420" y="617"/>
      <point x="379" y="778"/>
      <point x="326" y="1210" type="curve"/>
      <point x="124" y="1210" type="line"/>
      <point x="434" y="0" type="line"/>
      <point x="638" y="0" type="line"/>
      <point x="883" y="1004" type="line"/>
      <point x="1141" y="0" type="line"/>
      <point x="1344" y="0" type="line"/>
      <point x="1640" y="1210" type="line"/>
    </contour>
  </outline>
</glyph>
<glyph name="X" format="2">
  <advance width="1045"/>
  <unicode hex="0058"/>
  <outline>
    <contour>
      <point x="1086" y="0" type="line"/>
      <point x="1018" y="94" type="line" smooth="yes"/>
      <point x="815" y="372"/>
      <point x="671" y="610"/>
      <point x="668" y="615" type="curve"/>
      <point x="1067" y="1209" type="line"/>
      <point x="945" y="1209" type="line"/>
      <point x="611" y="714" type="line"/>
      <point x="536" y="849"/>
      <point x="451" y="1014"/>
      <point x="357" y="1209" type="curve"/>
      <point x="150" y="1209" type="line"/>
      <point x="525" y="583" type="line"/>
      <point x="140" y="0" type="line"/>
      <point x="262" y="0" type="line"/>
      <point x="582" y="485" type="line"/>
      <point x="868" y="0" type="line"/>
    </contour>
  </outline>
</glyph>
<glyph name="Y" format="2">
  <advance width="957"/>
  <unicode hex="0059"/>
  <outline>
    <contour>
      <point x="665" y="290" type="curve" smooth="yes"/>
      <point x="665" y="324"/>
      <point x="669" y="478"/>
      <point x="677" y="497" type="curve" smooth="yes"/>
      <point x="977" y="1209" type="line"/>
      <point x="866" y="1209" type="line"/>
      <point x="607" y="660" type="line"/>
      <point x="597" y="677"/>
      <point x="580" y="703"/>
      <point x="557" y="738" type="curve" smooth="yes"/>
      <point x="477" y="861"/>
      <point x="418" y="959"/>
      <point x="320" y="1209" type="curve"/>
      <point x="116" y="1209" type="line"/>
      <point x="501" y="495" type="line"/>
      <point x="501" y="0" type="line"/>
      <point x="685" y="0" type="line"/>
      <point x="665" y="250"/>
      <point x="665" y="250"/>
    </contour>
  </outline>
</glyph>
<glyph name="Z" format="2">
  <advance width="951"/>
  <unicode hex="005A"/>
  <outline>
    <contour>
      <point x="951" y="99" type="line"/>
      <point x="338" y="99" type="line"/>
      <point x="951" y="1148" type="line"/>
      <point x="951" y="1214" type="line"/>
      <point x="814" y="1208"/>
      <point x="680" y="1205"/>
      <point x="549" y="1205" type="curve" smooth="yes"/>
      <point x="422" y="1205"/>
      <point x="292" y="1208"/>
      <point x="158" y="1214" type="curve"/>
      <point x="158" y="1114" type="line"/>
      <point x="753" y="1114" type="line"/>
      <point x="136" y="67" type="line"/>
      <point x="136" y="0" type="line"/>
      <point x="267" y="5"/>
      <point x="404" y="7"/>
      <point x="547" y="7" type="curve" smooth="yes"/>
      <point x="688" y="7"/>
      <point x="822" y="5"/>
      <point x="951" y="0" type="curve"/>
    </contour>
  </outline>
</glyph>
<glyph name="bracketleft" format="2">
  <advance width="438"/>
  <unicode hex="005B"/>
  <outline>
    <contour>
      <point x="504" y="-145" type="line"/>
      <point x="324" y="-145" type="line"/>
      <point x="324" y="1132" type="line"/>
      <point x="504" y="1132" type="line"/>
      <point x="504" y="1210" type="line"/>
      <point x="152" y="1210" type="line"/>
      <point x="163" y="983"/>
      <point x="168" y="749"/>
      <point x="168" y="507" type="curve" smooth="yes"/>
      <point x="168" y="255"/>
      <point x="163" y="12"/>
      <point x="152" y="-223" type="curve"/>
      <point x="504" y="-223" type="line"/>
    </contour>
  </outline>
</glyph>
<glyph name="backslash" format="2">
  <advance width="980"/>
  <unicode hex="005C"/>
  <outline>
    <contour>
      <point x="250" y="1225" type="line"/>
      <point x="141" y="1225" type="line"/>
      <point x="877" y="-221" type="line"/>
      <point x="986" y="-221" type="line"/>
    </contour>
  </outline>
</glyph>
<glyph name="bracketright" format="2">
  <advance width="465"/>
  <unicode hex="005D"/>
  <outline>
    <contour>
      <point x="464" y="-225" type="line"/>
      <point x="453" y="24"/>
      <point x="447" y="268"/>
      <point x="447" y="505" type="curve" smooth="yes"/>
      <point x="447" y="732"/>
      <point x="453" y="967"/>
      <point x="464" y="1208" type="curve"/>
      <point x="112" y="1208" type="line"/>
      <point x="112" y="1130" type="line"/>
      <point x="292" y="1130" type="line"/>
      <point x="292" y="-147" type="line"/>
      <point x="112" y="-147" type="line"/>
      <point x="112" y="-225" type="line"/>
    </contour>
  </outline>
</glyph>
<glyph name="asciicircum" format="2">
  <advance width="905"/>
  <unicode hex="005E"/>
  <outline>
    <contour>
      <point x="528" y="1095" type="curve"/>
      <point x="792" y="622" type="line"/>
      <point x="918" y="622" type="line"/>
      <point x="583" y="1225" type="line"/>
      <point x="473" y="1225" type="line"/>
      <point x="140" y="622" type="line"/>
      <point x="263" y="622" type="line"/>
      <point x="266" y="627"/>
      <point x="505" y="1054"/>
    </contour>
  </outline>
</glyph>
<glyph name="grave" format="2">
  <advance width="481"/>
  <unicode hex="0060"/>
  <outline>
    <contour>
      <point x="334" y="1236" type="line"/>
      <point x="126" y="1236" type="line"/>
      <point x="361" y="931" type="line"/>
      <point x="500" y="931" type="line"/>
    </contour>
  </outline>
</glyph>
<glyph name="b" format="2">
  <advance width="952"/>
  <unicode hex="0062"/>
  <outline>
    <contour>
      <point x="527" y="86" type="curve" smooth="yes"/>
      <point x="408" y="86"/>
      <point x="312" y="190"/>
      <point x="312" y="307" type="curve" smooth="yes"/>
      <point x="312" y="517"/>
      <point x="312" y="790"/>
      <point x="553" y="790" type="curve" smooth="yes"/>
      <point x="779" y="790"/>
      <point x="785" y="488"/>
      <point x="785" y="458" type="curve" smooth="yes"/>
      <point x="785" y="327"/>
      <point x="728" y="86"/>
    </contour>
    <contour>
      <point x="579" y="897" type="curve" smooth="yes"/>
      <point x="443" y="897"/>
      <point x="354" y="802"/>
      <point x="322" y="760" type="curve"/>
      <point x="322" y="1208" type="line"/>
      <point x="152" y="1208" type="line"/>
      <point x="165" y="968"/>
      <point x="172" y="777"/>
      <point x="172" y="635" type="curve" smooth="yes"/>
      <point x="172" y="472"/>
      <point x="165" y="261"/>
      <point x="152" y="0" type="curve"/>
      <point x="312" y="0" type="line"/>
      <point x="321" y="114" type="line"/>
      <point x="412" y="-8"/>
      <point x="529" y="-22"/>
      <point x="578" y="-22" type="curve" smooth="yes"/>
      <point x="826" y="-22"/>
      <point x="953" y="203"/>
      <point x="953" y="437" type="curve" smooth="yes"/>
      <point x="953" y="650"/>
      <point x="839" y="897"/>
    </contour>
  </outline>
</glyph>
<glyph name="c" format="2">
  <advance width="811"/>
  <unicode hex="0063"/>
  <outline>
    <contour>
      <point x="325" y="429" type="curve" smooth="yes"/>
      <point x="325" y="565"/>
      <point x="383" y="788"/>
      <point x="567" y="788" type="curve" smooth="yes"/>
      <point x="650" y="788"/>
      <point x="717" y="748"/>
      <point x="769" y="669" type="curve"/>
      <point x="796" y="745" type="line"/>
      <point x="726" y="848"/>
      <point x="638" y="899"/>
      <point x="533" y="899" type="curve" smooth="yes"/>
      <point x="288" y="899"/>
      <point x="158" y="670"/>
      <point x="158" y="433" type="curve" smooth="yes"/>
      <point x="158" y="218"/>
      <point x="272" y="-22"/>
      <point x="532" y="-22" type="curve" smooth="yes"/>
      <point x="641" y="-22"/>
      <point x="733" y="28"/>
      <point x="806" y="127" type="curve"/>
      <point x="764" y="221" type="line"/>
      <point x="716" y="129"/>
      <point x="647" y="83"/>
      <point x="556" y="83" type="curve" smooth="yes"/>
      <point x="325" y="83"/>
      <point x="325" y="425"/>
    </contour>
  </outline>
</glyph>
<glyph name="d" format="2">
  <advance width="963"/>
  <unicode hex="0064"/>
  <outline>
    <contour>
      <point x="567" y="85" type="curve" smooth="yes"/>
      <point x="382" y="85"/>
      <point x="325" y="328"/>
      <point x="325" y="452" type="curve" smooth="yes"/>
      <point x="325" y="582"/>
      <point x="374" y="790"/>
      <point x="559" y="790" type="curve" smooth="yes"/>
      <point x="666" y="790"/>
      <point x="774" y="714"/>
      <point x="782" y="598" type="curve" smooth="yes"/>
      <point x="791" y="488"/>
      <point x="795" y="411"/>
      <point x="795" y="367" type="curve" smooth="yes"/>
      <point x="795" y="297"/>
      <point x="778" y="85"/>
    </contour>
    <contour>
      <point x="534" y="901" type="curve" smooth="yes"/>
      <point x="269" y="901"/>
      <point x="157" y="642"/>
      <point x="157" y="436" type="curve" smooth="yes"/>
      <point x="157" y="227"/>
      <point x="268" y="-20"/>
      <point x="533" y="-20" type="curve" smooth="yes"/>
      <point x="677" y="-20"/>
      <point x="769" y="79"/>
      <point x="799" y="117" type="curve"/>
      <point x="808" y="2" type="line"/>
      <point x="958" y="2" type="line"/>
      <point x="944" y="251"/>
      <point x="937" y="462"/>
      <point x="937" y="635" type="curve" smooth="yes"/>
      <point x="937" y="764"/>
      <point x="944" y="956"/>
      <point x="958" y="1209" type="curve"/>
      <point x="788" y="1209" type="line"/>
      <point x="788" y="762" type="line"/>
      <point x="745" y="819"/>
      <point x="658" y="901"/>
    </contour>
  </outline>
</glyph>
<glyph name="e" format="2">
  <advance width="988"/>
  <unicode hex="0065"/>
  <outline>
    <contour>
      <point x="803" y="501" type="curve"/>
      <point x="336" y="501" type="line"/>
      <point x="340" y="627"/>
      <point x="413" y="787"/>
      <point x="584" y="787" type="curve" smooth="yes"/>
      <point x="755" y="787"/>
      <point x="806" y="621"/>
    </contour>
    <contour>
      <point x="589" y="900" type="curve" smooth="yes"/>
      <point x="327" y="900"/>
      <point x="151" y="703"/>
      <point x="151" y="447" type="curve" smooth="yes"/>
      <point x="151" y="168"/>
      <point x="333" y="-17"/>
      <point x="610" y="-17" type="curve" smooth="yes"/>
      <point x="807" y="-17"/>
      <point x="922" y="101"/>
      <point x="960" y="148" type="curve"/>
      <point x="917" y="237" type="line"/>
      <point x="848" y="135"/>
      <point x="738" y="77"/>
      <point x="626" y="77" type="curve" smooth="yes"/>
      <point x="359" y="77"/>
      <point x="328" y="306"/>
      <point x="328" y="411" type="curve" smooth="yes"/>
      <point x="328" y="413" type="line"/>
      <point x="980" y="413" type="line"/>
      <point x="980" y="476" type="line"/>
      <point x="982" y="703"/>
      <point x="859" y="900"/>
    </contour>
  </outline>
</glyph>
<glyph name="f" format="2">
  <advance width="589"/>
  <unicode hex="0066"/>
  <outline>
    <contour>
      <point x="210" y="942" type="curve" smooth="yes"/>
      <point x="210" y="941"/>
      <point x="211" y="822"/>
      <point x="211" y="819" type="curve"/>
      <point x="100" y="819" type="line"/>
      <point x="100" y="734" type="line"/>
      <point x="213" y="734" type="line"/>
      <point x="218" y="519"/>
      <point x="220" y="381"/>
      <point x="220" y="319" type="curve" smooth="yes"/>
      <point x="220" y="200"/>
      <point x="217" y="94"/>
      <point x="210" y="1" type="curve"/>
      <point x="380" y="1" type="line"/>
      <point x="370" y="228"/>
      <point x="365" y="472"/>
      <point x="365" y="734" type="curve"/>
      <point x="548" y="734" type="line"/>
      <point x="548" y="819" type="line"/>
      <point x="364" y="819" type="line"/>
      <point x="364" y="947"/>
      <point x="364" y="1127"/>
      <point x="496" y="1127" type="curve" smooth="yes"/>
      <point x="571" y="1127"/>
      <point x="619" y="1093"/>
      <point x="640" y="1025" type="curve"/>
      <point x="668" y="1115" type="line"/>
      <point x="623" y="1192"/>
      <point x="554" y="1231"/>
      <point x="462" y="1231" type="curve" smooth="yes"/>
      <point x="293" y="1231"/>
      <point x="210" y="1081"/>
    </contour>
  </outline>
</glyph>
<glyph name="g" format="2">
  <advance width="965"/>
  <unicode hex="0067"/>
  <outline>
    <contour>
      <point x="330" y="443" type="curve" smooth="yes"/>
      <point x="330" y="573"/>
      <point x="385" y="790"/>
      <point x="563" y="790" type="curve" smooth="yes"/>
      <point x="669" y="790"/>
      <point x="779" y="724"/>
      <point x="785" y="595" type="curve" smooth="yes"/>
      <point x="788" y="504"/>
      <point x="790" y="442"/>
      <point x="790" y="411" type="curve" smooth="yes"/>
      <point x="790" y="209"/>
      <point x="717" y="108"/>
      <point x="570" y="108" type="curve" smooth="yes"/>
      <point x="385" y="108"/>
      <point x="330" y="316"/>
    </contour>
    <contour>
      <point x="945" y="538" type="curve" smooth="yes"/>
      <point x="945" y="659"/>
      <point x="950" y="772"/>
      <point x="960" y="877" type="curve"/>
      <point x="798" y="877" type="line"/>
      <point x="789" y="770" type="line"/>
      <point x="703" y="892"/>
      <point x="568" y="900"/>
      <point x="535" y="900" type="curve" smooth="yes"/>
      <point x="312" y="900"/>
      <point x="157" y="683"/>
      <point x="157" y="442" type="curve" smooth="yes"/>
      <point x="157" y="234"/>
      <point x="291" y="2"/>
      <point x="529" y="2" type="curve" smooth="yes"/>
      <point x="666" y="2"/>
      <point x="754" y="93"/>
      <point x="785" y="132" type="curve"/>
      <point x="786" y="-4" type="line" smooth="yes"/>
      <point x="787" y="-157"/>
      <point x="692" y="-279"/>
      <point x="525" y="-279" type="curve" smooth="yes"/>
      <point x="381" y="-279"/>
      <point x="309" y="-170"/>
      <point x="288" y="-130" type="curve"/>
      <point x="242" y="-246" type="line"/>
      <point x="337" y="-369"/>
      <point x="485" y="-384"/>
      <point x="549" y="-384" type="curve" smooth="yes"/>
      <point x="738" y="-384"/>
      <point x="960" y="-276"/>
      <point x="960" y="-48" type="curve" smooth="yes"/>
      <point x="960" y="116"/>
      <point x="945" y="372"/>
    </contour>
  </outline>
</glyph>
<glyph name="h" format="2">
  <advance width="906"/>
  <unicode hex="0068"/>
  <outline>
    <contour>
      <point x="905" y="549" type="curve" smooth="yes"/>
      <point x="905" y="732"/>
      <point x="781" y="896"/>
      <point x="582" y="896" type="curve" smooth="yes"/>
      <point x="441" y="896"/>
      <point x="354" y="804"/>
      <point x="321" y="761" type="curve"/>
      <point x="321" y="1207" type="line"/>
      <point x="153" y="1207" type="line"/>
      <point x="164" y="1007"/>
      <point x="169" y="809"/>
      <point x="169" y="612" type="curve" smooth="yes"/>
      <point x="169" y="405"/>
      <point x="164" y="202"/>
      <point x="153" y="1" type="curve"/>
      <point x="321" y="1" type="line"/>
      <point x="321" y="580" type="line" smooth="yes"/>
      <point x="321" y="694"/>
      <point x="446" y="792"/>
      <point x="552" y="792" type="curve" smooth="yes"/>
      <point x="720" y="792"/>
      <point x="737" y="571"/>
      <point x="737" y="481" type="curve" smooth="yes"/>
      <point x="737" y="1" type="line"/>
      <point x="905" y="1" type="line"/>
      <point x="901" y="66"/>
      <point x="899" y="127"/>
      <point x="899" y="185" type="curve" smooth="yes"/>
      <point x="899" y="291"/>
      <point x="905" y="444"/>
    </contour>
  </outline>
</glyph>
<glyph name="i" format="2">
  <advance width="369"/>
  <unicode hex="0069"/>
  <outline>
    <contour>
      <point x="344" y="0" type="line"/>
      <point x="336" y="123"/>
      <point x="332" y="258"/>
      <point x="332" y="407" type="curve" smooth="yes"/>
      <point x="332" y="536"/>
      <point x="336" y="691"/>
      <point x="344" y="873" type="curve"/>
      <point x="181" y="873" type="line"/>
      <point x="197" y="742"/>
      <point x="205" y="606"/>
      <point x="205" y="464" type="curve" smooth="yes"/>
      <point x="205" y="322"/>
      <point x="197" y="167"/>
      <point x="181" y="0" type="curve"/>
    </contour>
    <contour>
      <point x="261" y="1197" type="curve" smooth="yes"/>
      <point x="203" y="1197"/>
      <point x="157" y="1149"/>
      <point x="157" y="1088" type="curve" smooth="yes"/>
      <point x="157" y="1030"/>
      <point x="202" y="979"/>
      <point x="261" y="979" type="curve" smooth="yes"/>
      <point x="320" y="979"/>
      <point x="365" y="1030"/>
      <point x="365" y="1088" type="curve" smooth="yes"/>
      <point x="365" y="1149"/>
      <point x="319" y="1197"/>
    </contour>
  </outline>
</glyph>
<glyph name="j" format="2">
  <advance width="514"/>
  <unicode hex="006A"/>
  <outline>
    <contour>
      <point x="204" y="-280" type="curve" smooth="yes"/>
      <point x="129" y="-280"/>
      <point x="81" y="-246"/>
      <point x="61" y="-178" type="curve"/>
      <point x="33" y="-268" type="line"/>
      <point x="78" y="-345"/>
      <point x="147" y="-384"/>
      <point x="238" y="-384" type="curve" smooth="yes"/>
      <point x="407" y="-384"/>
      <point x="489" y="-236"/>
      <point x="489" y="-95" type="curve" smooth="yes"/>
      <point x="489" y="85"/>
      <point x="479" y="346"/>
      <point x="479" y="527" type="curve" smooth="yes"/>
      <point x="479" y="655"/>
      <point x="482" y="772"/>
      <point x="489" y="878" type="curve"/>
      <point x="320" y="878" type="line"/>
      <point x="331" y="620"/>
      <point x="336" y="324"/>
      <point x="336" y="-9" type="curve" smooth="yes"/>
      <point x="336" y="-124"/>
      <point x="326" y="-280"/>
    </contour>
    <contour>
      <point x="404" y="1200" type="curve" smooth="yes"/>
      <point x="345" y="1200"/>
      <point x="298" y="1151"/>
      <point x="298" y="1091" type="curve" smooth="yes"/>
      <point x="298" y="1032"/>
      <point x="346" y="982"/>
      <point x="404" y="982" type="curve" smooth="yes"/>
      <point x="462" y="982"/>
      <point x="511" y="1031"/>
      <point x="511" y="1091" type="curve" smooth="yes"/>
      <point x="511" y="1152"/>
      <point x="463" y="1200"/>
    </contour>
  </outline>
</glyph>
<glyph name="k" format="2">
  <advance width="860"/>
  <unicode hex="006B"/>
  <outline>
    <contour>
      <point x="885" y="0" type="line"/>
      <point x="689" y="243"/>
      <point x="689" y="243"/>
      <point x="651" y="298" type="curve" smooth="yes"/>
      <point x="589" y="389"/>
      <point x="490" y="559"/>
      <point x="488" y="562" type="curve"/>
      <point x="817" y="873" type="line"/>
      <point x="703" y="873" type="line"/>
      <point x="320" y="497" type="line"/>
      <point x="320" y="573" type="line" smooth="yes"/>
      <point x="320" y="768"/>
      <point x="324" y="980"/>
      <point x="331" y="1209" type="curve"/>
      <point x="163" y="1209" type="line"/>
      <point x="174" y="1019"/>
      <point x="180" y="824"/>
      <point x="180" y="624" type="curve" smooth="yes"/>
      <point x="180" y="425"/>
      <point x="174" y="217"/>
      <point x="163" y="0" type="curve"/>
      <point x="331" y="0" type="line"/>
      <point x="326" y="123"/>
      <point x="322" y="253"/>
      <point x="321" y="388" type="curve"/>
      <point x="385" y="451" type="line"/>
      <point x="700" y="0" type="line"/>
    </contour>
  </outline>
</glyph>
<glyph name="l" format="2">
  <advance width="373"/>
  <unicode hex="006C"/>
  <outline>
    <contour>
      <point x="310" y="123" type="curve" smooth="yes"/>
      <point x="297" y="123"/>
      <point x="297" y="137"/>
      <point x="297" y="158" type="curve" smooth="yes"/>
      <point x="297" y="540"/>
      <point x="297" y="820"/>
      <point x="314" y="1209" type="curve"/>
      <point x="153" y="1209" type="line"/>
      <point x="164" y="988"/>
      <point x="169" y="787"/>
      <point x="169" y="606" type="curve" smooth="yes"/>
      <point x="169" y="450"/>
      <point x="156" y="225"/>
      <point x="156" y="68" type="curve" smooth="yes"/>
      <point x="156" y="62"/>
      <point x="157" y="0"/>
      <point x="205" y="0" type="curve" smooth="yes"/>
      <point x="343" y="0" type="line"/>
      <point x="343" y="125" type="line"/>
      <point x="330" y="125"/>
      <point x="318" y="123"/>
    </contour>
  </outline>
</glyph>
<glyph name="m" format="2">
  <advance width="1334"/>
  <unicode hex="006D"/>
  <outline>
    <contour>
      <point x="1335" y="557" type="curve" smooth="yes"/>
      <point x="1335" y="859"/>
      <point x="1160" y="901"/>
      <point x="1062" y="901" type="curve" smooth="yes"/>
      <point x="916" y="901"/>
      <point x="830" y="763"/>
      <point x="807" y="721" type="curve"/>
      <point x="767" y="815"/>
      <point x="675" y="901"/>
      <point x="558" y="901" type="curve" smooth="yes"/>
      <point x="425" y="901"/>
      <point x="340" y="779"/>
      <point x="321" y="749" type="curve"/>
      <point x="303" y="880" type="line"/>
      <point x="153" y="880" type="line"/>
      <point x="164" y="727"/>
      <point x="170" y="578"/>
      <point x="170" y="435" type="curve" smooth="yes"/>
      <point x="170" y="297"/>
      <point x="164" y="152"/>
      <point x="153" y="-1" type="curve"/>
      <point x="323" y="-1" type="line"/>
      <point x="323" y="562" type="line" smooth="yes"/>
      <point x="323" y="657"/>
      <point x="396" y="793"/>
      <point x="505" y="793" type="curve" smooth="yes"/>
      <point x="670" y="793"/>
      <point x="670" y="511"/>
      <point x="670" y="409" type="curve" smooth="yes"/>
      <point x="670" y="240"/>
      <point x="667" y="103"/>
      <point x="661" y="-1" type="curve"/>
      <point x="829" y="-1" type="line"/>
      <point x="829" y="562" type="line" smooth="yes"/>
      <point x="829" y="659"/>
      <point x="903" y="793"/>
      <point x="1011" y="793" type="curve" smooth="yes"/>
      <point x="1129" y="793"/>
      <point x="1167" y="662"/>
      <point x="1167" y="461" type="curve" smooth="yes"/>
      <point x="1167" y="369"/>
      <point x="1164" y="4"/>
      <point x="1164" y="-1" type="curve"/>
      <point x="1335" y="-1" type="line"/>
      <point x="1328" y="63"/>
      <point x="1325" y="127"/>
      <point x="1325" y="191" type="curve" smooth="yes"/>
      <point x="1325" y="298"/>
      <point x="1335" y="450"/>
    </contour>
  </outline>
</glyph>
<glyph name="n" format="2">
  <advance width="908"/>
  <unicode hex="006E"/>
  <outline>
    <contour>
      <point x="909" y="601" type="curve" smooth="yes"/>
      <point x="909" y="779"/>
      <point x="778" y="901"/>
      <point x="609" y="901" type="curve" smooth="yes"/>
      <point x="492" y="901"/>
      <point x="388" y="834"/>
      <point x="329" y="749" type="curve"/>
      <point x="310" y="878" type="line"/>
      <point x="163" y="878" type="line"/>
      <point x="174" y="725"/>
      <point x="180" y="579"/>
      <point x="180" y="441" type="curve" smooth="yes"/>
      <point x="180" y="300"/>
      <point x="174" y="153"/>
      <point x="163" y="0" type="curve"/>
      <point x="331" y="0" type="line"/>
      <point x="331" y="552" type="line" smooth="yes"/>
      <point x="331" y="680"/>
      <point x="426" y="799"/>
      <point x="560" y="799" type="curve" smooth="yes"/>
      <point x="717" y="799"/>
      <point x="741" y="626"/>
      <point x="741" y="519" type="curve" smooth="yes"/>
      <point x="741" y="0" type="line"/>
      <point x="909" y="0" type="line"/>
      <point x="900" y="83"/>
      <point x="896" y="155"/>
      <point x="896" y="217" type="curve" smooth="yes"/>
      <point x="896" y="327"/>
      <point x="909" y="491"/>
    </contour>
  </outline>
</glyph>
<glyph name="o" format="2">
  <advance width="994"/>
  <unicode hex="006F"/>
  <outline>
    <contour>
      <point x="570" y="56" type="curve" smooth="yes"/>
      <point x="335" y="56"/>
      <point x="328" y="405"/>
      <point x="328" y="445" type="curve" smooth="yes"/>
      <point x="328" y="541"/>
      <point x="347" y="820"/>
      <point x="574" y="820" type="curve" smooth="yes"/>
      <point x="786" y="820"/>
      <point x="818" y="562"/>
      <point x="818" y="451" type="curve" smooth="yes"/>
      <point x="818" y="253"/>
      <point x="749" y="56"/>
    </contour>
    <contour>
      <point x="572" y="900" type="curve" smooth="yes"/>
      <point x="305" y="900"/>
      <point x="152" y="682"/>
      <point x="152" y="444" type="curve" smooth="yes"/>
      <point x="152" y="179"/>
      <point x="325" y="-24"/>
      <point x="572" y="-24" type="curve" smooth="yes"/>
      <point x="821" y="-24"/>
      <point x="994" y="183"/>
      <point x="994" y="444" type="curve" smooth="yes"/>
      <point x="994" y="684"/>
      <point x="838" y="900"/>
    </contour>
  </outline>
</glyph>
<glyph name="p" format="2">
  <advance width="953"/>
  <unicode hex="0070"/>
  <outline>
    <contour>
      <point x="542" y="88" type="curve" smooth="yes"/>
      <point x="335" y="88"/>
      <point x="315" y="287"/>
      <point x="315" y="365" type="curve" smooth="yes"/>
      <point x="315" y="408"/>
      <point x="319" y="485"/>
      <point x="328" y="596" type="curve" smooth="yes"/>
      <point x="338" y="712"/>
      <point x="439" y="793"/>
      <point x="550" y="793" type="curve" smooth="yes"/>
      <point x="782" y="793"/>
      <point x="785" y="468"/>
      <point x="785" y="450" type="curve" smooth="yes"/>
      <point x="785" y="323"/>
      <point x="728" y="88"/>
    </contour>
    <contour>
      <point x="579" y="900" type="curve" smooth="yes"/>
      <point x="438" y="900"/>
      <point x="351" y="803"/>
      <point x="322" y="764" type="curve"/>
      <point x="313" y="881" type="line"/>
      <point x="153" y="881" type="line"/>
      <point x="166" y="619"/>
      <point x="173" y="406"/>
      <point x="173" y="242" type="curve" smooth="yes"/>
      <point x="173" y="86"/>
      <point x="166" y="-117"/>
      <point x="153" y="-368" type="curve"/>
      <point x="323" y="-368" type="line"/>
      <point x="323" y="118" type="line"/>
      <point x="415" y="-6"/>
      <point x="536" y="-18"/>
      <point x="580" y="-18" type="curve" smooth="yes"/>
      <point x="829" y="-18"/>
      <point x="954" y="212"/>
      <point x="954" y="441" type="curve" smooth="yes"/>
      <point x="954" y="675"/>
      <point x="827" y="900"/>
    </contour>
  </outline>
</glyph>
<glyph name="q" format="2">
  <advance width="953"/>
  <unicode hex="0071"/>
  <outline>
    <contour>
      <point x="565" y="88" type="curve" smooth="yes"/>
      <point x="378" y="88"/>
      <point x="322" y="306"/>
      <point x="322" y="440" type="curve" smooth="yes"/>
      <point x="322" y="567"/>
      <point x="375" y="793"/>
      <point x="562" y="793" type="curve" smooth="yes"/>
      <point x="620" y="793"/>
      <point x="670" y="774"/>
      <point x="713" y="734" type="curve" smooth="yes"/>
      <point x="781" y="673"/>
      <point x="790" y="614"/>
      <point x="790" y="421" type="curve" smooth="yes"/>
      <point x="790" y="281"/>
      <point x="769" y="88"/>
    </contour>
    <contour>
      <point x="528" y="900" type="curve" smooth="yes"/>
      <point x="262" y="900"/>
      <point x="153" y="645"/>
      <point x="153" y="441" type="curve" smooth="yes"/>
      <point x="153" y="212"/>
      <point x="278" y="-18"/>
      <point x="527" y="-18" type="curve" smooth="yes"/>
      <point x="671" y="-18"/>
      <point x="759" y="84"/>
      <point x="784" y="118" type="curve"/>
      <point x="784" y="-368" type="line"/>
      <point x="954" y="-368" type="line"/>
      <point x="941" y="-117"/>
      <point x="934" y="86"/>
      <point x="934" y="242" type="curve" smooth="yes"/>
      <point x="934" y="406"/>
      <point x="941" y="619"/>
      <point x="954" y="881" type="curve"/>
      <point x="795" y="881" type="line"/>
      <point x="786" y="764" type="line"/>
      <point x="691" y="889"/>
      <point x="569" y="900"/>
    </contour>
  </outline>
</glyph>
<glyph name="r" format="2">
  <advance width="679"/>
  <unicode hex="0072"/>
  <outline>
    <contour>
      <point x="320" y="730" type="curve"/>
      <point x="302" y="878" type="line"/>
      <point x="153" y="878" type="line"/>
      <point x="164" y="723"/>
      <point x="170" y="577"/>
      <point x="170" y="438" type="curve" smooth="yes"/>
      <point x="170" y="297"/>
      <point x="164" y="151"/>
      <point x="153" y="0" type="curve"/>
      <point x="322" y="0" type="line"/>
      <point x="321" y="366" type="line" smooth="yes"/>
      <point x="321" y="530"/>
      <point x="321" y="530"/>
      <point x="322" y="543" type="curve" smooth="yes"/>
      <point x="332" y="654"/>
      <point x="421" y="772"/>
      <point x="541" y="772" type="curve" smooth="yes"/>
      <point x="587" y="772"/>
      <point x="633" y="757"/>
      <point x="678" y="727" type="curve"/>
      <point x="740" y="874" type="line"/>
      <point x="698" y="892"/>
      <point x="655" y="901"/>
      <point x="611" y="901" type="curve" smooth="yes"/>
      <point x="442" y="901"/>
      <point x="349" y="777"/>
    </contour>
  </outline>
</glyph>
<glyph name="s" format="2">
  <advance width="889"/>
  <unicode hex="0073"/>
  <outline>
    <contour>
      <point x="510" y="809" type="curve" smooth="yes"/>
      <point x="685" y="809"/>
      <point x="788" y="720"/>
      <point x="807" y="702" type="curve"/>
      <point x="870" y="778" type="line"/>
      <point x="773" y="859"/>
      <point x="654" y="900"/>
      <point x="511" y="900" type="curve" smooth="yes"/>
      <point x="343" y="900"/>
      <point x="159" y="824"/>
      <point x="159" y="621" type="curve" smooth="yes"/>
      <point x="159" y="442"/>
      <point x="345" y="400"/>
      <point x="530" y="376" type="curve" smooth="yes"/>
      <point x="597" y="366"/>
      <point x="735" y="348"/>
      <point x="735" y="221" type="curve" smooth="yes"/>
      <point x="735" y="75"/>
      <point x="557" y="68"/>
      <point x="523" y="68" type="curve" smooth="yes"/>
      <point x="334" y="68"/>
      <point x="229" y="177"/>
      <point x="204" y="206" type="curve"/>
      <point x="139" y="125" type="line"/>
      <point x="263" y="-8"/>
      <point x="455" y="-21"/>
      <point x="525" y="-21" type="curve" smooth="yes"/>
      <point x="652" y="-21"/>
      <point x="886" y="28"/>
      <point x="886" y="252" type="curve" smooth="yes"/>
      <point x="886" y="450"/>
      <point x="673" y="518"/>
      <point x="538" y="542" type="curve" smooth="yes"/>
      <point x="406" y="563"/>
      <point x="312" y="578"/>
      <point x="312" y="668" type="curve" smooth="yes"/>
      <point x="312" y="797"/>
      <point x="456" y="809"/>
    </contour>
  </outline>
</glyph>
<glyph name="t" format="2">
  <advance width="546"/>
  <unicode hex="0074"/>
  <outline>
    <contour>
      <point x="446" y="80" type="curve" smooth="yes"/>
      <point x="344" y="80"/>
      <point x="341" y="215"/>
      <point x="341" y="303" type="curve" smooth="yes"/>
      <point x="341" y="484"/>
      <point x="342" y="645"/>
      <point x="345" y="786" type="curve"/>
      <point x="503" y="786" type="line"/>
      <point x="503" y="881" type="line"/>
      <point x="347" y="881" type="line"/>
      <point x="348" y="956"/>
      <point x="351" y="1046"/>
      <point x="356" y="1152" type="curve"/>
      <point x="188" y="1152" type="line"/>
      <point x="195" y="1053"/>
      <point x="198" y="971"/>
      <point x="198" y="906" type="curve" smooth="yes"/>
      <point x="198" y="881" type="line"/>
      <point x="115" y="881" type="line"/>
      <point x="115" y="786" type="line"/>
      <point x="197" y="786" type="line"/>
      <point x="197" y="542" type="line" smooth="yes"/>
      <point x="197" y="453"/>
      <point x="188" y="324"/>
      <point x="188" y="235" type="curve" smooth="yes"/>
      <point x="188" y="109"/>
      <point x="252" y="-23"/>
      <point x="416" y="-23" type="curve" smooth="yes"/>
      <point x="497" y="-23"/>
      <point x="547" y="8"/>
      <point x="585" y="82" type="curve"/>
      <point x="559" y="185" type="line"/>
      <point x="541" y="117"/>
      <point x="509" y="80"/>
    </contour>
  </outline>
</glyph>
<glyph name="v" format="2">
  <advance width="872"/>
  <unicode hex="0076"/>
  <outline>
    <contour>
      <point x="819" y="879" type="line"/>
      <point x="528" y="160" type="line"/>
      <point x="393" y="424"/>
      <point x="320" y="625"/>
      <point x="261" y="879" type="curve"/>
      <point x="85" y="879" type="line"/>
      <point x="426" y="0" type="line"/>
      <point x="573" y="0" type="line"/>
      <point x="933" y="879" type="line"/>
    </contour>
  </outline>
</glyph>
<glyph name="w" format="2">
  <advance width="1275"/>
  <unicode hex="0077"/>
  <outline>
    <contour>
      <point x="1191" y="879" type="line"/>
      <point x="999" y="165" type="line"/>
      <point x="917" y="384"/>
      <point x="862" y="583"/>
      <point x="831" y="880" type="curve"/>
      <point x="735" y="874" type="line"/>
      <point x="716" y="875"/>
      <point x="692" y="876"/>
      <point x="662" y="879" type="curve"/>
      <point x="657" y="879" type="line"/>
      <point x="465" y="165" type="line"/>
      <point x="358" y="451"/>
      <point x="320" y="663"/>
      <point x="298" y="879" type="curve"/>
      <point x="122" y="879" type="line"/>
      <point x="363" y="0" type="line"/>
      <point x="511" y="0" type="line"/>
      <point x="711" y="670" type="line"/>
      <point x="896" y="0" type="line"/>
      <point x="1044" y="0" type="line"/>
      <point x="1305" y="879" type="line"/>
    </contour>
  </outline>
</glyph>
<glyph name="x" format="2">
  <advance width="827"/>
  <unicode hex="0078"/>
  <outline>
    <contour>
      <point x="850" y="0" type="line"/>
      <point x="684" y="198"/>
      <point x="574" y="379"/>
      <point x="540" y="440" type="curve"/>
      <point x="835" y="879" type="line"/>
      <point x="721" y="879" type="line"/>
      <point x="490" y="535" type="line"/>
      <point x="423" y="665"/>
      <point x="364" y="837"/>
      <point x="350" y="879" type="curve"/>
      <point x="176" y="879" type="line"/>
      <point x="413" y="421" type="line"/>
      <point x="133" y="0" type="line"/>
      <point x="247" y="0" type="line"/>
      <point x="465" y="330" type="line"/>
      <point x="671" y="0" type="line"/>
    </contour>
  </outline>
</glyph>
<glyph name="y" format="2">
  <advance width="878"/>
  <unicode hex="0079"/>
  <outline>
    <contour>
      <point x="97" y="-179" type="curve"/>
      <point x="68" y="-180" type="line"/>
      <point x="53" y="-267" type="line"/>
      <point x="74" y="-373"/>
      <point x="174" y="-384"/>
      <point x="215" y="-384" type="curve" smooth="yes"/>
      <point x="294" y="-384"/>
      <point x="390" y="-346"/>
      <point x="482" y="-164" type="curve" smooth="yes"/>
      <point x="496" y="-136"/>
      <point x="556" y="3"/>
      <point x="557" y="5" type="curve" smooth="yes"/>
      <point x="917" y="879" type="line"/>
      <point x="803" y="879" type="line"/>
      <point x="512" y="166" type="line"/>
      <point x="393" y="394"/>
      <point x="327" y="532"/>
      <point x="245" y="879" type="curve"/>
      <point x="69" y="879" type="line"/>
      <point x="187" y="587"/>
      <point x="304" y="295"/>
      <point x="422" y="3" type="curve"/>
      <point x="421" y="1"/>
      <point x="418" y="-11"/>
      <point x="410" y="-33" type="curve" smooth="yes"/>
      <point x="371" y="-158"/>
      <point x="276" y="-270"/>
      <point x="195" y="-270" type="curve" smooth="yes"/>
      <point x="144" y="-270"/>
      <point x="96" y="-241"/>
    </contour>
  </outline>
</glyph>
<glyph name="z" format="2">
  <advance width="932"/>
  <unicode hex="007A"/>
  <outline>
    <contour>
      <point x="949" y="99" type="line"/>
      <point x="338" y="99" type="line"/>
      <point x="936" y="783" type="line"/>
      <point x="936" y="879" type="line"/>
      <point x="800" y="867"/>
      <point x="667" y="861"/>
      <point x="537" y="861" type="curve" smooth="yes"/>
      <point x="410" y="861"/>
      <point x="280" y="867"/>
      <point x="147" y="879" type="curve"/>
      <point x="147" y="780" type="line"/>
      <point x="710" y="780" type="line"/>
      <point x="120" y="95" type="line"/>
      <point x="120" y="2" type="line"/>
      <point x="266" y="13"/>
      <point x="405" y="19"/>
      <point x="536" y="19" type="curve" smooth="yes"/>
      <point x="666" y="19"/>
      <point x="804" y="13"/>
      <point x="949" y="2" type="curve"/>
    </contour>
  </outline>
</glyph>
<glyph name="braceleft" format="2">
  <advance width="528"/>
  <unicode hex="007B"/>
  <outline>
    <contour>
      <point x="421" y="-38" type="curve" smooth="yes"/>
      <point x="421" y="289" type="line" smooth="yes"/>
      <point x="421" y="388"/>
      <point x="393" y="455"/>
      <point x="338" y="490" type="curve"/>
      <point x="393" y="525"/>
      <point x="421" y="583"/>
      <point x="421" y="664" type="curve" smooth="yes"/>
      <point x="421" y="1014" type="line" smooth="yes"/>
      <point x="421" y="1122"/>
      <point x="472" y="1126"/>
      <point x="573" y="1126" type="curve"/>
      <point x="573" y="1214" type="line"/>
      <point x="447" y="1214" type="line" smooth="yes"/>
      <point x="322" y="1214"/>
      <point x="259" y="1147"/>
      <point x="259" y="1014" type="curve" smooth="yes"/>
      <point x="259" y="648" type="line" smooth="yes"/>
      <point x="259" y="546"/>
      <point x="222" y="546"/>
      <point x="138" y="546" type="curve"/>
      <point x="138" y="439" type="line"/>
      <point x="234" y="439"/>
      <point x="260" y="433"/>
      <point x="260" y="341" type="curve" smooth="yes"/>
      <point x="259" y="-28" type="line" smooth="yes"/>
      <point x="259" y="-194"/>
      <point x="362" y="-226"/>
      <point x="440" y="-227" type="curve" smooth="yes"/>
      <point x="573" y="-227" type="line"/>
      <point x="573" y="-140" type="line"/>
      <point x="571" y="-140"/>
      <point x="568" y="-140"/>
      <point x="564" y="-140" type="curve" smooth="yes"/>
      <point x="485" y="-140"/>
      <point x="421" y="-140"/>
    </contour>
  </outline>
</glyph>
<glyph name="bar" format="2">
  <advance width="259"/>
  <unicode hex="007C"/>
  <outline>
    <contour>
      <point x="262" y="1224" type="line"/>
      <point x="144" y="1224" type="line"/>
      <point x="156" y="985"/>
      <point x="162" y="746"/>
      <point x="162" y="507" type="curve" smooth="yes"/>
      <point x="162" y="264"/>
      <point x="156" y="23"/>
      <point x="144" y="-217" type="curve"/>
      <point x="262" y="-217" type="line"/>
    </contour>
  </outline>
</glyph>
<glyph name="braceright" format="2">
  <advance width="528"/>
  <unicode hex="007D"/>
  <outline>
    <contour>
      <point x="452" y="648" type="curve" smooth="yes"/>
      <point x="452" y="1014" type="line" smooth="yes"/>
      <point x="452" y="1147"/>
      <point x="389" y="1214"/>
      <point x="264" y="1214" type="curve" smooth="yes"/>
      <point x="138" y="1214" type="line"/>
      <point x="138" y="1126" type="line"/>
      <point x="139" y="1126"/>
      <point x="141" y="1126"/>
      <point x="143" y="1126" type="curve" smooth="yes"/>
      <point x="235" y="1126"/>
      <point x="290" y="1125"/>
      <point x="290" y="1014" type="curve" smooth="yes"/>
      <point x="290" y="664" type="line" smooth="yes"/>
      <point x="290" y="583"/>
      <point x="318" y="525"/>
      <point x="373" y="490" type="curve"/>
      <point x="318" y="455"/>
      <point x="290" y="388"/>
      <point x="290" y="289" type="curve" smooth="yes"/>
      <point x="290" y="-38" type="line" smooth="yes"/>
      <point x="290" y="-137"/>
      <point x="232" y="-140"/>
      <point x="138" y="-140" type="curve"/>
      <point x="138" y="-227" type="line"/>
      <point x="271" y="-227" type="line"/>
      <point x="423" y="-225"/>
      <point x="452" y="-112"/>
      <point x="452" y="-28" type="curve" smooth="yes"/>
      <point x="451" y="341" type="line" smooth="yes"/>
      <point x="451" y="433"/>
      <point x="477" y="439"/>
      <point x="573" y="439" type="curve"/>
      <point x="573" y="546" type="line"/>
      <point x="489" y="546"/>
      <point x="452" y="546"/>
    </contour>
  </outline>
</glyph>
<glyph name="asciitilde" format="2">
  <advance width="1220"/>
  <unicode hex="007E"/>
  <outline>
    <contour>
      <point x="957" y="681" type="curve" smooth="yes"/>
      <point x="754" y="681"/>
      <point x="590" y="825"/>
      <point x="387" y="825" type="curve" smooth="yes"/>
      <point x="194" y="825"/>
      <point x="160" y="638"/>
      <point x="156" y="530" type="curve"/>
      <point x="227" y="507" type="line"/>
      <point x="256" y="657"/>
      <point x="353" y="686"/>
      <point x="423" y="686" type="curve" smooth="yes"/>
      <point x="624" y="686"/>
      <point x="792" y="543"/>
      <point x="993" y="543" type="curve" smooth="yes"/>
      <point x="1186" y="543"/>
      <point x="1220" y="730"/>
      <point x="1224" y="838" type="curve"/>
      <point x="1153" y="861" type="line"/>
      <point x="1123" y="704"/>
      <point x="1017" y="681"/>
    </contour>
  </outline>
</glyph>
<glyph name="exclamdown" format="2">
  <advance width="384"/>
  <unicode hex="00A1"/>
  <outline>
    <contour>
      <point x="258" y="-11" type="curve" smooth="yes"/>
      <point x="291" y="-11"/>
      <point x="317" y="2"/>
      <point x="337" y="30" type="curve" smooth="yes"/>
      <point x="368" y="71"/>
      <point x="366" y="105"/>
      <point x="364" y="137" type="curve"/>
      <point x="293" y="856" type="line"/>
      <point x="217" y="856" type="line"/>
      <point x="148" y="129" type="line"/>
      <point x="148" y="114" type="line"/>
      <point x="146" y="52"/>
      <point x="186" y="-11"/>
    </contour>
    <contour>
      <point x="262" y="1212" type="curve" smooth="yes"/>
      <point x="180" y="1212"/>
      <point x="126" y="1149"/>
      <point x="126" y="1072" type="curve" smooth="yes"/>
      <point x="126" y="990"/>
      <point x="190" y="946"/>
      <point x="262" y="946" type="curve" smooth="yes"/>
      <point x="331" y="946"/>
      <point x="394" y="1002"/>
      <point x="394" y="1072" type="curve" smooth="yes"/>
      <point x="394" y="1145"/>
      <point x="338" y="1212"/>
    </contour>
  </outline>
</glyph>
<glyph name="cent" format="2">
  <advance width="936"/>
  <unicode hex="00A2"/>
  <outline>
    <contour>
      <point x="560" y="844" type="curve" smooth="yes"/>
      <point x="575" y="844"/>
      <point x="589" y="843"/>
      <point x="603" y="841" type="curve"/>
      <point x="374" y="158" type="line"/>
      <point x="321" y="227"/>
      <point x="294" y="327"/>
      <point x="294" y="459" type="curve" smooth="yes"/>
      <point x="294" y="548"/>
      <point x="313" y="844"/>
    </contour>
    <contour>
      <point x="577" y="68" type="curve" smooth="yes"/>
      <point x="530" y="68"/>
      <point x="491" y="76"/>
      <point x="460" y="91" type="curve"/>
      <point x="698" y="805" type="line"/>
      <point x="737" y="780"/>
      <point x="767" y="741"/>
      <point x="788" y="688" type="curve"/>
      <point x="895" y="756" type="line"/>
      <point x="848" y="815"/>
      <point x="792" y="860"/>
      <point x="726" y="889" type="curve"/>
      <point x="831" y="1202" type="line"/>
      <point x="723" y="1202" type="line"/>
      <point x="629" y="918" type="line"/>
      <point x="599" y="923"/>
      <point x="573" y="925"/>
      <point x="551" y="925" type="curve" smooth="yes"/>
      <point x="292" y="925"/>
      <point x="111" y="723"/>
      <point x="111" y="457" type="curve" smooth="yes"/>
      <point x="111" y="193"/>
      <point x="269" y="76"/>
      <point x="335" y="39" type="curve"/>
      <point x="247" y="-222" type="line"/>
      <point x="356" y="-222" type="line"/>
      <point x="430" y="1" type="line"/>
      <point x="471" y="-10"/>
      <point x="512" y="-15"/>
      <point x="551" y="-15" type="curve" smooth="yes"/>
      <point x="772" y="-15"/>
      <point x="895" y="113"/>
      <point x="943" y="179" type="curve"/>
      <point x="863" y="236" type="line"/>
      <point x="776" y="94"/>
      <point x="654" y="68"/>
    </contour>
  </outline>
</glyph>
<glyph name="sterling" format="2">
  <advance width="829"/>
  <unicode hex="00A3"/>
  <outline>
    <contour>
      <point x="527" y="412" type="curve" smooth="yes"/>
      <point x="527" y="465"/>
      <point x="512" y="518"/>
      <point x="483" y="570" type="curve"/>
      <point x="667" y="571" type="line"/>
      <point x="667" y="670" type="line"/>
      <point x="405" y="670" type="line"/>
      <point x="381" y="717"/>
      <point x="369" y="765"/>
      <point x="369" y="814" type="curve" smooth="yes"/>
      <point x="369" y="977"/>
      <point x="475" y="1135"/>
      <point x="627" y="1135" type="curve" smooth="yes"/>
      <point x="684" y="1135"/>
      <point x="728" y="1124"/>
      <point x="760" y="1102" type="curve"/>
      <point x="802" y="1189" type="line"/>
      <point x="739" y="1218"/>
      <point x="677" y="1232"/>
      <point x="614" y="1232" type="curve" smooth="yes"/>
      <point x="387" y="1232"/>
      <point x="236" y="1076"/>
      <point x="236" y="852" type="curve" smooth="yes"/>
      <point x="236" y="790"/>
      <point x="254" y="729"/>
      <point x="291" y="670" type="curve"/>
      <point x="187" y="670" type="line"/>
      <point x="187" y="571" type="line"/>
      <point x="357" y="572" type="line"/>
      <point x="381" y="524"/>
      <point x="393" y="475"/>
      <point x="393" y="425" type="curve" smooth="yes"/>
      <point x="393" y="185"/>
      <point x="220" y="106"/>
      <point x="144" y="83" type="curve"/>
      <point x="144" y="7" type="line"/>
      <point x="829" y="7" type="line"/>
      <point x="829" y="131" type="line"/>
      <point x="409" y="131" type="line"/>
      <point x="490" y="202"/>
      <point x="527" y="275"/>
    </contour>
  </outline>
</glyph>
<glyph name="currency" format="2">
  <advance width="776"/>
  <unicode hex="00A4"/>
  <outline>
    <contour>
      <point x="423" y="385" type="curve" smooth="yes"/>
      <point x="275" y="385"/>
      <point x="264" y="561"/>
      <point x="264" y="612" type="curve" smooth="yes"/>
      <point x="264" y="777"/>
      <point x="341" y="839"/>
      <point x="423" y="839" type="curve" smooth="yes"/>
      <point x="573" y="839"/>
      <point x="581" y="653"/>
      <point x="581" y="612" type="curve" smooth="yes"/>
      <point x="581" y="571"/>
      <point x="573" y="385"/>
    </contour>
    <contour>
      <point x="653" y="1001" type="line"/>
      <point x="539" y="887" type="line"/>
      <point x="503" y="903"/>
      <point x="464" y="911"/>
      <point x="423" y="911" type="curve" smooth="yes"/>
      <point x="383" y="911"/>
      <point x="344" y="903"/>
      <point x="306" y="888" type="curve"/>
      <point x="192" y="1001" type="line"/>
      <point x="101" y="913" type="line"/>
      <point x="199" y="816" type="line"/>
      <point x="144" y="759"/>
      <point x="116" y="691"/>
      <point x="116" y="612" type="curve" smooth="yes"/>
      <point x="116" y="533"/>
      <point x="144" y="465"/>
      <point x="199" y="408" type="curve"/>
      <point x="101" y="311" type="line"/>
      <point x="192" y="223" type="line"/>
      <point x="306" y="337" type="line"/>
      <point x="344" y="322"/>
      <point x="383" y="314"/>
      <point x="423" y="314" type="curve" smooth="yes"/>
      <point x="460" y="314"/>
      <point x="498" y="322"/>
      <point x="539" y="337" type="curve"/>
      <point x="653" y="223" type="line"/>
      <point x="744" y="312" type="line"/>
      <point x="646" y="408" type="line"/>
      <point x="701" y="467"/>
      <point x="729" y="535"/>
      <point x="729" y="612" type="curve" smooth="yes"/>
      <point x="729" y="690"/>
      <point x="701" y="758"/>
      <point x="645" y="816" type="curve"/>
      <point x="744" y="913" type="line"/>
    </contour>
  </outline>
</glyph>
<glyph name="yen" format="2">
  <advance width="957"/>
  <unicode hex="00A5"/>
  <outline>
    <contour>
      <point x="665" y="290" type="curve" smooth="yes"/>
      <point x="665" y="306"/>
      <point x="665" y="321"/>
      <point x="666" y="334" type="curve"/>
      <point x="911" y="334" type="line"/>
      <point x="911" y="438" type="line"/>
      <point x="670" y="438" type="line"/>
      <point x="673" y="473"/>
      <point x="675" y="492"/>
      <point x="677" y="497" type="curve" smooth="yes"/>
      <point x="709" y="574" type="line"/>
      <point x="911" y="574" type="line"/>
      <point x="911" y="678" type="line"/>
      <point x="753" y="678" type="line"/>
      <point x="977" y="1209" type="line"/>
      <point x="866" y="1209" type="line"/>
      <point x="607" y="661" type="line"/>
      <point x="598" y="675"/>
      <point x="582" y="701"/>
      <point x="558" y="738" type="curve" smooth="yes"/>
      <point x="426" y="940"/>
      <point x="378" y="1061"/>
      <point x="320" y="1209" type="curve"/>
      <point x="116" y="1209" type="line"/>
      <point x="402" y="678" type="line"/>
      <point x="246" y="678" type="line"/>
      <point x="246" y="574" type="line"/>
      <point x="458" y="574" type="line"/>
      <point x="501" y="495" type="line"/>
      <point x="501" y="438" type="line"/>
      <point x="246" y="438" type="line"/>
      <point x="246" y="334" type="line"/>
      <point x="501" y="334" type="line"/>
      <point x="501" y="0" type="line"/>
      <point x="685" y="0" type="line"/>
      <point x="665" y="250"/>
      <point x="665" y="250"/>
    </contour>
  </outline>
</glyph>
<glyph name="brokenbar" format="2">
  <advance width="224"/>
  <unicode hex="00A6"/>
  <outline>
    <contour>
      <point x="222" y="277" type="line"/>
      <point x="103" y="277" type="line"/>
      <point x="103" y="-374" type="line"/>
      <point x="222" y="-374" type="line"/>
    </contour>
    <contour>
      <point x="222" y="1198" type="line"/>
      <point x="103" y="1198" type="line"/>
      <point x="103" y="545" type="line"/>
      <point x="222" y="545" type="line"/>
    </contour>
  </outline>
</glyph>
<glyph name="section" format="2">
  <advance width="865"/>
  <unicode hex="00A7"/>
  <outline>
    <contour>
      <point x="610" y="230" type="curve"/>
      <point x="593" y="237"/>
      <point x="567" y="246"/>
      <point x="530" y="256" type="curve" smooth="yes"/>
      <point x="338" y="309"/>
      <point x="240" y="355"/>
      <point x="240" y="452" type="curve" smooth="yes"/>
      <point x="240" y="573"/>
      <point x="350" y="609"/>
      <point x="380" y="617" type="curve"/>
      <point x="406" y="607"/>
      <point x="454" y="594"/>
      <point x="524" y="580" type="curve" smooth="yes"/>
      <point x="723" y="540"/>
      <point x="723" y="432"/>
      <point x="723" y="399" type="curve" smooth="yes"/>
      <point x="723" y="293"/>
      <point x="632" y="241"/>
    </contour>
    <contour>
      <point x="310" y="953" type="curve" smooth="yes"/>
      <point x="310" y="1088"/>
      <point x="446" y="1126"/>
      <point x="528" y="1126" type="curve" smooth="yes"/>
      <point x="634" y="1126"/>
      <point x="720" y="1080"/>
      <point x="787" y="989" type="curve"/>
      <point x="850" y="1067" type="line"/>
      <point x="761" y="1168"/>
      <point x="652" y="1219"/>
      <point x="523" y="1219" type="curve" smooth="yes"/>
      <point x="341" y="1219"/>
      <point x="167" y="1111"/>
      <point x="167" y="895" type="curve" smooth="yes"/>
      <point x="167" y="804"/>
      <point x="200" y="731"/>
      <point x="267" y="678" type="curve"/>
      <point x="114" y="600"/>
      <point x="96" y="457"/>
      <point x="96" y="394" type="curve" smooth="yes"/>
      <point x="96" y="-10"/>
      <point x="651" y="180"/>
      <point x="651" y="-99" type="curve" smooth="yes"/>
      <point x="651" y="-223"/>
      <point x="533" y="-294"/>
      <point x="428" y="-294" type="curve" smooth="yes"/>
      <point x="307" y="-294"/>
      <point x="212" y="-233"/>
      <point x="141" y="-111" type="curve"/>
      <point x="78" y="-208" type="line"/>
      <point x="169" y="-327"/>
      <point x="290" y="-387"/>
      <point x="440" y="-387" type="curve" smooth="yes"/>
      <point x="637" y="-387"/>
      <point x="794" y="-259"/>
      <point x="794" y="-47" type="curve" smooth="yes"/>
      <point x="794" y="44"/>
      <point x="767" y="114"/>
      <point x="712" y="164" type="curve"/>
      <point x="852" y="251"/>
      <point x="866" y="396"/>
      <point x="866" y="451" type="curve" smooth="yes"/>
      <point x="866" y="860"/>
      <point x="310" y="706"/>
    </contour>
  </outline>
</glyph>
<glyph name="dieresis" format="2">
  <advance width="791"/>
  <unicode hex="00A8"/>
  <outline>
    <contour>
      <point x="236" y="1235" type="curve" smooth="yes"/>
      <point x="168" y="1235"/>
      <point x="100" y="1194"/>
      <point x="100" y="1112" type="curve" smooth="yes"/>
      <point x="100" y="1034"/>
      <point x="160" y="978"/>
      <point x="236" y="978" type="curve" smooth="yes"/>
      <point x="309" y="978"/>
      <point x="369" y="1040"/>
      <point x="369" y="1112" type="curve" smooth="yes"/>
      <point x="369" y="1184"/>
      <point x="303" y="1235"/>
    </contour>
    <contour>
      <point x="658" y="1235" type="curve" smooth="yes"/>
      <point x="590" y="1235"/>
      <point x="521" y="1195"/>
      <point x="521" y="1112" type="curve" smooth="yes"/>
      <point x="521" y="1035"/>
      <point x="580" y="978"/>
      <point x="658" y="978" type="curve" smooth="yes"/>
      <point x="732" y="978"/>
      <point x="790" y="1040"/>
      <point x="790" y="1112" type="curve" smooth="yes"/>
      <point x="790" y="1184"/>
      <point x="723" y="1235"/>
    </contour>
  </outline>
</glyph>
<glyph name="copyright" format="2">
  <advance width="1333"/>
  <unicode hex="00A9"/>
  <outline>
    <contour>
      <point x="558" y="607" type="curve" smooth="yes"/>
      <point x="558" y="680"/>
      <point x="572" y="904"/>
      <point x="748" y="904" type="curve" smooth="yes"/>
      <point x="824" y="904"/>
      <point x="879" y="860"/>
      <point x="914" y="773" type="curve"/>
      <point x="1013" y="842" type="line"/>
      <point x="940" y="940"/>
      <point x="850" y="989"/>
      <point x="741" y="989" type="curve" smooth="yes"/>
      <point x="510" y="989"/>
      <point x="401" y="790"/>
      <point x="401" y="605" type="curve" smooth="yes"/>
      <point x="401" y="419"/>
      <point x="511" y="219"/>
      <point x="741" y="219" type="curve" smooth="yes"/>
      <point x="869" y="219"/>
      <point x="971" y="275"/>
      <point x="1048" y="386" type="curve"/>
      <point x="971" y="445" type="line"/>
      <point x="918" y="352"/>
      <point x="848" y="305"/>
      <point x="761" y="305" type="curve" smooth="yes"/>
      <point x="583" y="305"/>
      <point x="558" y="498"/>
    </contour>
    <contour>
      <point x="721" y="55" type="curve" smooth="yes"/>
      <point x="423" y="55"/>
      <point x="184" y="298"/>
      <point x="184" y="598" type="curve" smooth="yes"/>
      <point x="184" y="898"/>
      <point x="422" y="1140"/>
      <point x="721" y="1140" type="curve" smooth="yes"/>
      <point x="1020" y="1140"/>
      <point x="1258" y="898"/>
      <point x="1258" y="598" type="curve" smooth="yes"/>
      <point x="1258" y="298"/>
      <point x="1019" y="55"/>
    </contour>
    <contour>
      <point x="721" y="1212" type="curve" smooth="yes"/>
      <point x="386" y="1212"/>
      <point x="112" y="936"/>
      <point x="112" y="599" type="curve" smooth="yes"/>
      <point x="112" y="264"/>
      <point x="380" y="-11"/>
      <point x="721" y="-11" type="curve" smooth="yes"/>
      <point x="1059" y="-11"/>
      <point x="1329" y="262"/>
      <point x="1329" y="599" type="curve" smooth="yes"/>
      <point x="1329" y="938"/>
      <point x="1060" y="1212"/>
    </contour>
  </outline>
</glyph>
<glyph name="ordfeminine" format="2">
  <advance width="553"/>
  <unicode hex="00AA"/>
  <outline>
    <contour>
      <point x="330" y="827" type="curve" smooth="yes"/>
      <point x="288" y="827"/>
      <point x="262" y="856"/>
      <point x="262" y="900" type="curve" smooth="yes"/>
      <point x="262" y="938"/>
      <point x="283" y="964"/>
      <point x="326" y="977" type="curve" smooth="yes"/>
      <point x="339" y="982"/>
      <point x="433" y="1003"/>
      <point x="434" y="1003" type="curve"/>
      <point x="435" y="990"/>
      <point x="435" y="970"/>
      <point x="435" y="944" type="curve" smooth="yes"/>
      <point x="435" y="881"/>
      <point x="395" y="827"/>
    </contour>
    <contour>
      <point x="540" y="1052" type="curve" smooth="yes"/>
      <point x="540" y="1168"/>
      <point x="454" y="1231"/>
      <point x="354" y="1231" type="curve" smooth="yes"/>
      <point x="277" y="1231"/>
      <point x="215" y="1199"/>
      <point x="168" y="1135" type="curve"/>
      <point x="212" y="1088" type="line"/>
      <point x="247" y="1159"/>
      <point x="305" y="1171"/>
      <point x="335" y="1171" type="curve" smooth="yes"/>
      <point x="416" y="1171"/>
      <point x="429" y="1095"/>
      <point x="431" y="1065" type="curve"/>
      <point x="422" y="1062"/>
      <point x="398" y="1057"/>
      <point x="360" y="1050" type="curve" smooth="yes"/>
      <point x="277" y="1037"/>
      <point x="157" y="1018"/>
      <point x="157" y="899" type="curve" smooth="yes"/>
      <point x="157" y="800"/>
      <point x="232" y="755"/>
      <point x="310" y="755" type="curve" smooth="yes"/>
      <point x="369" y="755"/>
      <point x="415" y="774"/>
      <point x="449" y="812" type="curve"/>
      <point x="451" y="763" type="line"/>
      <point x="551" y="763" type="line"/>
      <point x="540" y="830"/>
      <point x="535" y="884"/>
      <point x="535" y="924" type="curve" smooth="yes"/>
      <point x="535" y="961"/>
      <point x="540" y="1014"/>
    </contour>
  </outline>
</glyph>
<glyph name="guillemotleft" format="2">
  <advance width="723"/>
  <unicode hex="00AB"/>
  <outline>
    <contour>
      <point x="268" y="449" type="line"/>
      <point x="475" y="902" type="line"/>
      <point x="359" y="902" type="line"/>
      <point x="285" y="739"/>
      <point x="196" y="588"/>
      <point x="93" y="449" type="curve"/>
      <point x="198" y="308"/>
      <point x="286" y="158"/>
      <point x="359" y="-2" type="curve"/>
      <point x="475" y="-2" type="line"/>
    </contour>
    <contour>
      <point x="518" y="449" type="line"/>
      <point x="725" y="902" type="line"/>
      <point x="609" y="902" type="line"/>
      <point x="535" y="739"/>
      <point x="446" y="588"/>
      <point x="343" y="449" type="curve"/>
      <point x="448" y="308"/>
      <point x="536" y="158"/>
      <point x="609" y="-2" type="curve"/>
      <point x="725" y="-2" type="line"/>
    </contour>
  </outline>
</glyph>
<glyph name="logicalnot" format="2">
  <advance width="1010"/>
  <unicode hex="00AC"/>
  <outline>
    <contour>
      <point x="1015" y="810" type="line"/>
      <point x="101" y="810" type="line"/>
      <point x="101" y="700" type="line"/>
      <point x="869" y="700" type="line"/>
      <point x="869" y="333" type="line"/>
      <point x="1015" y="333" type="line"/>
    </contour>
  </outline>
</glyph>
<glyph name="uni00AD" format="2">
  <advance width="687"/>
  <unicode hex="00AD"/>
  <outline>
    <contour>
      <point x="693" y="500" type="line"/>
      <point x="98" y="500" type="line"/>
      <point x="98" y="383" type="line"/>
      <point x="693" y="383" type="line"/>
    </contour>
  </outline>
</glyph>
<glyph name="registered" format="2">
  <advance width="1333"/>
  <unicode hex="00AE"/>
  <outline>
    <contour>
      <point x="983" y="766" type="curve" smooth="yes"/>
      <point x="983" y="882"/>
      <point x="860" y="956"/>
      <point x="727" y="956" type="curve" smooth="yes"/>
      <point x="489" y="956" type="line"/>
      <point x="502" y="833"/>
      <point x="509" y="712"/>
      <point x="509" y="595" type="curve" smooth="yes"/>
      <point x="509" y="478"/>
      <point x="502" y="357"/>
      <point x="489" y="234" type="curve"/>
      <point x="594" y="234" type="line"/>
      <point x="594" y="560" type="line"/>
      <point x="694" y="560" type="line"/>
      <point x="878" y="234" type="line"/>
      <point x="1019" y="234" type="line"/>
      <point x="939" y="327"/>
      <point x="873" y="439"/>
      <point x="821" y="572" type="curve"/>
      <point x="918" y="590"/>
      <point x="983" y="668"/>
    </contour>
    <contour>
      <point x="659" y="624" type="curve" smooth="yes"/>
      <point x="594" y="624" type="line"/>
      <point x="594" y="891" type="line"/>
      <point x="703" y="891" type="line" smooth="yes"/>
      <point x="834" y="891"/>
      <point x="852" y="807"/>
      <point x="852" y="760" type="curve" smooth="yes"/>
      <point x="852" y="659"/>
      <point x="793" y="624"/>
    </contour>
    <contour>
      <point x="721" y="55" type="curve" smooth="yes"/>
      <point x="423" y="55"/>
      <point x="184" y="298"/>
      <point x="184" y="598" type="curve" smooth="yes"/>
      <point x="184" y="898"/>
      <point x="422" y="1140"/>
      <point x="721" y="1140" type="curve" smooth="yes"/>
      <point x="1017" y="1140"/>
      <point x="1258" y="899"/>
      <point x="1258" y="598" type="curve" smooth="yes"/>
      <point x="1258" y="298"/>
      <point x="1019" y="55"/>
    </contour>
    <contour>
      <point x="721" y="1212" type="curve" smooth="yes"/>
      <point x="378" y="1212"/>
      <point x="112" y="933"/>
      <point x="112" y="599" type="curve" smooth="yes"/>
      <point x="112" y="260"/>
      <point x="384" y="-11"/>
      <point x="721" y="-11" type="curve" smooth="yes"/>
      <point x="1059" y="-11"/>
      <point x="1329" y="262"/>
      <point x="1329" y="599" type="curve" smooth="yes"/>
      <point x="1329" y="939"/>
      <point x="1056" y="1212"/>
    </contour>
  </outline>
</glyph>
<glyph name="degree" format="2">
  <advance width="507"/>
  <unicode hex="00B0"/>
  <outline>
    <contour>
      <point x="387" y="1004" type="curve" smooth="yes"/>
      <point x="387" y="889"/>
      <point x="358" y="832"/>
      <point x="301" y="832" type="curve" smooth="yes"/>
      <point x="242" y="832"/>
      <point x="213" y="889"/>
      <point x="213" y="1004" type="curve" smooth="yes"/>
      <point x="213" y="1118"/>
      <point x="242" y="1175"/>
      <point x="301" y="1175" type="curve" smooth="yes"/>
      <point x="358" y="1175"/>
      <point x="387" y="1118"/>
    </contour>
    <contour>
      <point x="301" y="1232" type="curve" smooth="yes"/>
      <point x="98" y="1232"/>
      <point x="95" y="1016"/>
      <point x="95" y="1004" type="curve" smooth="yes"/>
      <point x="95" y="891"/>
      <point x="155" y="775"/>
      <point x="301" y="775" type="curve" smooth="yes"/>
      <point x="447" y="775"/>
      <point x="505" y="894"/>
      <point x="505" y="1004" type="curve" smooth="yes"/>
      <point x="505" y="1117"/>
      <point x="438" y="1232"/>
    </contour>
  </outline>
</glyph>
<glyph name="plusminus" format="2">
  <advance width="888"/>
  <unicode hex="00B1"/>
  <outline>
    <contour>
      <point x="868" y="126" type="line"/>
      <point x="123" y="126" type="line"/>
      <point x="123" y="9" type="line"/>
      <point x="868" y="9" type="line"/>
    </contour>
    <contour>
      <point x="889" y="577" type="line"/>
      <point x="591" y="577" type="line"/>
      <point x="591" y="891" type="line"/>
      <point x="404" y="891" type="line"/>
      <point x="404" y="577" type="line"/>
      <point x="103" y="577" type="line"/>
      <point x="103" y="461" type="line"/>
      <point x="404" y="461" type="line"/>
      <point x="404" y="164" type="line"/>
      <point x="591" y="164" type="line"/>
      <point x="591" y="461" type="line"/>
      <point x="889" y="461" type="line"/>
    </contour>
  </outline>
</glyph>
<glyph name="uni00B2" format="2">
  <advance width="543"/>
  <unicode hex="00B2"/>
  <outline>
    <contour>
      <point x="339" y="1228" type="curve" smooth="yes"/>
      <point x="288" y="1228"/>
      <point x="221" y="1215"/>
      <point x="151" y="1116" type="curve"/>
      <point x="176" y="1061" type="line"/>
      <point x="223" y="1126"/>
      <point x="262" y="1148"/>
      <point x="315" y="1148" type="curve" smooth="yes"/>
      <point x="388" y="1148"/>
      <point x="425" y="1114"/>
      <point x="425" y="1045" type="curve" smooth="yes"/>
      <point x="425" y="862"/>
      <point x="151" y="958"/>
      <point x="151" y="698" type="curve" smooth="yes"/>
      <point x="151" y="672" type="line"/>
      <point x="210" y="676"/>
      <point x="274" y="678"/>
      <point x="343" y="678" type="curve" smooth="yes"/>
      <point x="404" y="678"/>
      <point x="469" y="676"/>
      <point x="539" y="672" type="curve"/>
      <point x="539" y="742" type="line"/>
      <point x="281" y="742" type="line"/>
      <point x="287" y="920"/>
      <point x="543" y="828"/>
      <point x="543" y="1044" type="curve" smooth="yes"/>
      <point x="543" y="1169"/>
      <point x="437" y="1228"/>
    </contour>
  </outline>
</glyph>
<glyph name="uni00B3" format="2">
  <advance width="553"/>
  <unicode hex="00B3"/>
  <outline>
    <contour>
      <point x="335" y="1228" type="curve" smooth="yes"/>
      <point x="265" y="1228"/>
      <point x="208" y="1201"/>
      <point x="164" y="1147" type="curve"/>
      <point x="183" y="1091" type="line"/>
      <point x="216" y="1142"/>
      <point x="257" y="1167"/>
      <point x="304" y="1167" type="curve" smooth="yes"/>
      <point x="355" y="1167"/>
      <point x="425" y="1139"/>
      <point x="425" y="1073" type="curve" smooth="yes"/>
      <point x="425" y="997"/>
      <point x="325" y="994"/>
      <point x="308" y="994" type="curve" smooth="yes"/>
      <point x="245" y="994" type="line"/>
      <point x="245" y="927" type="line"/>
      <point x="329" y="927" type="line" smooth="yes"/>
      <point x="387" y="927"/>
      <point x="426" y="886"/>
      <point x="426" y="829" type="curve" smooth="yes"/>
      <point x="426" y="756"/>
      <point x="366" y="724"/>
      <point x="305" y="724" type="curve" smooth="yes"/>
      <point x="250" y="724"/>
      <point x="205" y="748"/>
      <point x="170" y="796" type="curve"/>
      <point x="139" y="736" type="line"/>
      <point x="188" y="685"/>
      <point x="252" y="659"/>
      <point x="331" y="659" type="curve" smooth="yes"/>
      <point x="409" y="659"/>
      <point x="550" y="698"/>
      <point x="550" y="833" type="curve" smooth="yes"/>
      <point x="550" y="889"/>
      <point x="523" y="932"/>
      <point x="469" y="963" type="curve"/>
      <point x="519" y="994"/>
      <point x="544" y="1031"/>
      <point x="544" y="1075" type="curve" smooth="yes"/>
      <point x="544" y="1168"/>
      <point x="437" y="1228"/>
    </contour>
  </outline>
</glyph>
<glyph name="acute" format="2">
  <advance width="451"/>
  <unicode hex="00B4"/>
  <outline>
    <contour>
      <point x="254" y="1232" type="line"/>
      <point x="88" y="927" type="line"/>
      <point x="227" y="927" type="line"/>
      <point x="462" y="1232" type="line"/>
    </contour>
  </outline>
</glyph>
<glyph name="mu" format="2">
  <advance width="904"/>
  <unicode hex="00B5"/>
  <outline>
    <contour>
      <point x="516" y="86" type="curve" smooth="yes"/>
      <point x="401" y="86"/>
      <point x="327" y="204"/>
      <point x="327" y="336" type="curve" smooth="yes"/>
      <point x="327" y="879" type="line"/>
      <point x="151" y="879" type="line"/>
      <point x="172" y="661"/>
      <point x="182" y="455"/>
      <point x="182" y="260" type="curve" smooth="yes"/>
      <point x="182" y="61"/>
      <point x="172" y="-148"/>
      <point x="151" y="-366" type="curve"/>
      <point x="327" y="-366" type="line"/>
      <point x="327" y="12" type="line"/>
      <point x="370" y="-11"/>
      <point x="416" y="-22"/>
      <point x="467" y="-22" type="curve" smooth="yes"/>
      <point x="580" y="-22"/>
      <point x="666" y="24"/>
      <point x="725" y="115" type="curve"/>
      <point x="725" y="18" type="line"/>
      <point x="901" y="18" type="line"/>
      <point x="894" y="175"/>
      <point x="891" y="316"/>
      <point x="891" y="442" type="curve" smooth="yes"/>
      <point x="891" y="567"/>
      <point x="894" y="709"/>
      <point x="901" y="867" type="curve"/>
      <point x="725" y="867" type="line"/>
      <point x="725" y="372" type="line" smooth="yes"/>
      <point x="725" y="254"/>
      <point x="665" y="86"/>
    </contour>
  </outline>
</glyph>
<glyph name="paragraph" format="2">
  <advance width="1020"/>
  <unicode hex="00B6"/>
  <outline>
    <contour>
      <point x="543" y="1200" type="curve" smooth="yes"/>
      <point x="317" y="1200"/>
      <point x="152" y="1068"/>
      <point x="152" y="869" type="curve" smooth="yes"/>
      <point x="152" y="576"/>
      <point x="461" y="542"/>
      <point x="607" y="542" type="curve"/>
      <point x="613" y="393"/>
      <point x="616" y="243"/>
      <point x="616" y="94" type="curve" smooth="yes"/>
      <point x="616" y="-59"/>
      <point x="613" y="-213"/>
      <point x="607" y="-367" type="curve"/>
      <point x="736" y="-367" type="line"/>
      <point x="736" y="1086" type="line"/>
      <point x="800" y="1086" type="line"/>
      <point x="800" y="-367" type="line"/>
      <point x="905" y="-367" type="line"/>
      <point x="888" y="-128"/>
      <point x="880" y="117"/>
      <point x="880" y="366" type="curve" smooth="yes"/>
      <point x="880" y="611"/>
      <point x="888" y="851"/>
      <point x="905" y="1086" type="curve"/>
      <point x="1043" y="1086" type="line"/>
      <point x="1043" y="1199" type="line"/>
      <point x="998" y="1196"/>
      <point x="944" y="1194"/>
      <point x="881" y="1194" type="curve" smooth="yes"/>
      <point x="781" y="1194"/>
      <point x="643" y="1200"/>
    </contour>
  </outline>
</glyph>
<glyph name="cedilla" format="2">
  <advance width="620"/>
  <unicode hex="00B8"/>
  <outline>
    <contour>
      <point x="498" y="-80" type="curve" smooth="yes"/>
      <point x="463" y="-80"/>
      <point x="437" y="-81"/>
      <point x="420" y="-84" type="curve"/>
      <point x="487" y="24" type="line"/>
      <point x="395" y="24" type="line"/>
      <point x="279" y="-165" type="line"/>
      <point x="314" y="-211" type="line"/>
      <point x="355" y="-185"/>
      <point x="398" y="-172"/>
      <point x="445" y="-172" type="curve" smooth="yes"/>
      <point x="496" y="-172"/>
      <point x="500" y="-201"/>
      <point x="500" y="-210" type="curve" smooth="yes"/>
      <point x="500" y="-274"/>
      <point x="419" y="-320"/>
      <point x="362" y="-320" type="curve" smooth="yes"/>
      <point x="317" y="-320"/>
      <point x="282" y="-304"/>
      <point x="257" y="-271" type="curve"/>
      <point x="176" y="-311" type="line"/>
      <point x="209" y="-368"/>
      <point x="275" y="-397"/>
      <point x="374" y="-397" type="curve" smooth="yes"/>
      <point x="475" y="-397"/>
      <point x="666" y="-351"/>
      <point x="666" y="-202" type="curve" smooth="yes"/>
      <point x="666" y="-91"/>
      <point x="533" y="-80"/>
    </contour>
  </outline>
</glyph>
<glyph name="uni00B9" format="2">
  <advance width="317"/>
  <unicode hex="00B9"/>
  <outline>
    <contour>
      <point x="128" y="1128" type="curve"/>
      <point x="128" y="1051" type="line"/>
      <point x="200" y="1089" type="line"/>
      <point x="200" y="659" type="line"/>
      <point x="317" y="659" type="line"/>
      <point x="308" y="762"/>
      <point x="303" y="852"/>
      <point x="303" y="930" type="curve" smooth="yes"/>
      <point x="303" y="1011"/>
      <point x="308" y="1103"/>
      <point x="317" y="1207" type="curve"/>
      <point x="223" y="1207" type="line"/>
      <point x="183" y="1164"/>
      <point x="149" y="1141"/>
    </contour>
  </outline>
</glyph>
<glyph name="ordmasculine" format="2">
  <advance width="595"/>
  <unicode hex="00BA"/>
  <outline>
    <contour>
      <point x="375" y="808" type="curve" smooth="yes"/>
      <point x="308" y="808"/>
      <point x="264" y="884"/>
      <point x="264" y="993" type="curve" smooth="yes"/>
      <point x="264" y="1156"/>
      <point x="348" y="1170"/>
      <point x="377" y="1170" type="curve" smooth="yes"/>
      <point x="484" y="1170"/>
      <point x="489" y="1022"/>
      <point x="489" y="995" type="curve" smooth="yes"/>
      <point x="489" y="963"/>
      <point x="483" y="808"/>
    </contour>
    <contour>
      <point x="376" y="1230" type="curve" smooth="yes"/>
      <point x="235" y="1230"/>
      <point x="156" y="1115"/>
      <point x="156" y="992" type="curve" smooth="yes"/>
      <point x="156" y="871"/>
      <point x="233" y="747"/>
      <point x="376" y="747" type="curve" smooth="yes"/>
      <point x="520" y="747"/>
      <point x="597" y="869"/>
      <point x="597" y="992" type="curve" smooth="yes"/>
      <point x="597" y="1115"/>
      <point x="516" y="1230"/>
    </contour>
  </outline>
</glyph>
<glyph name="guillemotright" format="2">
  <advance width="747"/>
  <unicode hex="00BB"/>
  <outline>
    <contour>
      <point x="505" y="449" type="curve"/>
      <point x="402" y="588"/>
      <point x="313" y="739"/>
      <point x="239" y="902" type="curve"/>
      <point x="123" y="902" type="line"/>
      <point x="330" y="449" type="line"/>
      <point x="123" y="-2" type="line"/>
      <point x="239" y="-2" type="line"/>
      <point x="312" y="158"/>
      <point x="400" y="308"/>
    </contour>
    <contour>
      <point x="755" y="449" type="curve"/>
      <point x="652" y="588"/>
      <point x="563" y="739"/>
      <point x="489" y="902" type="curve"/>
      <point x="373" y="902" type="line"/>
      <point x="580" y="449" type="line"/>
      <point x="373" y="-2" type="line"/>
      <point x="489" y="-2" type="line"/>
      <point x="562" y="158"/>
      <point x="650" y="308"/>
    </contour>
  </outline>
</glyph>
<glyph name="onequarter" format="2">
  <advance width="816"/>
  <unicode hex="00BC"/>
  <outline>
    <contour>
      <point x="447" y="198" type="line"/>
      <point x="623" y="417" type="line"/>
      <point x="623" y="198" type="line"/>
    </contour>
    <contour>
      <point x="809" y="198" type="line"/>
      <point x="731" y="198" type="line"/>
      <point x="731" y="271" type="line" smooth="yes"/>
      <point x="731" y="370"/>
      <point x="734" y="462"/>
      <point x="740" y="547" type="curve"/>
      <point x="641" y="547" type="line"/>
      <point x="595" y="488"/>
      <point x="549" y="408"/>
      <point x="503" y="354" type="curve" smooth="yes"/>
      <point x="462" y="303"/>
      <point x="384" y="225"/>
      <point x="347" y="182" type="curve"/>
      <point x="347" y="115" type="line"/>
      <point x="623" y="115" type="line"/>
      <point x="623" y="0" type="line"/>
      <point x="740" y="0" type="line"/>
      <point x="737" y="49"/>
      <point x="735" y="88"/>
      <point x="734" y="115" type="curve"/>
      <point x="809" y="115" type="line"/>
    </contour>
    <contour>
      <point x="630" y="908" type="line"/>
      <point x="122" y="20" type="line"/>
      <point x="188" y="-14" type="line"/>
      <point x="699" y="875" type="line"/>
    </contour>
    <contour>
      <point x="128" y="978" type="curve"/>
      <point x="128" y="901" type="line"/>
      <point x="200" y="939" type="line"/>
      <point x="200" y="509" type="line"/>
      <point x="317" y="509" type="line"/>
      <point x="308" y="612"/>
      <point x="303" y="702"/>
      <point x="303" y="780" type="curve" smooth="yes"/>
      <point x="303" y="861"/>
      <point x="308" y="953"/>
      <point x="317" y="1057" type="curve"/>
      <point x="223" y="1057" type="line"/>
      <point x="183" y="1014"/>
      <point x="149" y="991"/>
    </contour>
  </outline>
</glyph>
<glyph name="onehalf" format="2">
  <advance width="883"/>
  <unicode hex="00BD"/>
  <outline>
    <contour>
      <point x="630" y="908" type="line"/>
      <point x="122" y="20" type="line"/>
      <point x="188" y="-14" type="line"/>
      <point x="699" y="875" type="line"/>
    </contour>
    <contour>
      <point x="679" y="548" type="curve" smooth="yes"/>
      <point x="628" y="548"/>
      <point x="561" y="535"/>
      <point x="491" y="436" type="curve"/>
      <point x="516" y="381" type="line"/>
      <point x="563" y="446"/>
      <point x="602" y="468"/>
      <point x="655" y="468" type="curve" smooth="yes"/>
      <point x="728" y="468"/>
      <point x="765" y="434"/>
      <point x="765" y="365" type="curve" smooth="yes"/>
      <point x="765" y="182"/>
      <point x="491" y="278"/>
      <point x="491" y="18" type="curve" smooth="yes"/>
      <point x="491" y="-7" type="line"/>
      <point x="550" y="-3"/>
      <point x="614" y="-1"/>
      <point x="683" y="-1" type="curve" smooth="yes"/>
      <point x="744" y="-1"/>
      <point x="809" y="-3"/>
      <point x="879" y="-7" type="curve"/>
      <point x="879" y="62" type="line"/>
      <point x="621" y="62" type="line"/>
      <point x="627" y="240"/>
      <point x="883" y="148"/>
      <point x="883" y="364" type="curve" smooth="yes"/>
      <point x="883" y="489"/>
      <point x="777" y="548"/>
    </contour>
    <contour>
      <point x="128" y="978" type="curve"/>
      <point x="128" y="901" type="line"/>
      <point x="200" y="939" type="line"/>
      <point x="200" y="509" type="line"/>
      <point x="317" y="509" type="line"/>
      <point x="308" y="612"/>
      <point x="303" y="702"/>
      <point x="303" y="780" type="curve" smooth="yes"/>
      <point x="303" y="861"/>
      <point x="308" y="953"/>
      <point x="317" y="1057" type="curve"/>
      <point x="223" y="1057" type="line"/>
      <point x="183" y="1014"/>
      <point x="149" y="991"/>
    </contour>
  </outline>
</glyph>
<glyph name="threequarters" format="2">
  <advance width="960"/>
  <unicode hex="00BE"/>
  <outline>
    <contour>
      <point x="597" y="198" type="line"/>
      <point x="773" y="417" type="line"/>
      <point x="773" y="198" type="line"/>
    </contour>
    <contour>
      <point x="959" y="198" type="line"/>
      <point x="881" y="198" type="line"/>
      <point x="881" y="271" type="line" smooth="yes"/>
      <point x="881" y="370"/>
      <point x="884" y="462"/>
      <point x="890" y="547" type="curve"/>
      <point x="791" y="547" type="line"/>
      <point x="745" y="488"/>
      <point x="699" y="408"/>
      <point x="653" y="354" type="curve" smooth="yes"/>
      <point x="612" y="303"/>
      <point x="534" y="225"/>
      <point x="497" y="182" type="curve"/>
      <point x="497" y="115" type="line"/>
      <point x="773" y="115" type="line"/>
      <point x="773" y="0" type="line"/>
      <point x="890" y="0" type="line"/>
      <point x="887" y="49"/>
      <point x="885" y="88"/>
      <point x="884" y="115" type="curve"/>
      <point x="959" y="115" type="line"/>
    </contour>
    <contour>
      <point x="780" y="908" type="line"/>
      <point x="272" y="20" type="line"/>
      <point x="338" y="-14" type="line"/>
      <point x="849" y="875" type="line"/>
    </contour>
    <contour>
      <point x="355" y="1078" type="curve" smooth="yes"/>
      <point x="285" y="1078"/>
      <point x="228" y="1051"/>
      <point x="184" y="997" type="curve"/>
      <point x="203" y="941" type="line"/>
      <point x="236" y="992"/>
      <point x="277" y="1017"/>
      <point x="324" y="1017" type="curve" smooth="yes"/>
      <point x="375" y="1017"/>
      <point x="445" y="989"/>
      <point x="445" y="923" type="curve" smooth="yes"/>
      <point x="445" y="847"/>
      <point x="345" y="844"/>
      <point x="328" y="844" type="curve" smooth="yes"/>
      <point x="265" y="844" type="line"/>
      <point x="265" y="777" type="line"/>
      <point x="349" y="777" type="line" smooth="yes"/>
      <point x="407" y="777"/>
      <point x="446" y="736"/>
      <point x="446" y="679" type="curve" smooth="yes"/>
      <point x="446" y="606"/>
      <point x="386" y="574"/>
      <point x="325" y="574" type="curve" smooth="yes"/>
      <point x="270" y="574"/>
      <point x="225" y="598"/>
      <point x="190" y="646" type="curve"/>
      <point x="159" y="586" type="line"/>
      <point x="208" y="535"/>
      <point x="272" y="509"/>
      <point x="351" y="509" type="curve" smooth="yes"/>
      <point x="429" y="509"/>
      <point x="570" y="548"/>
      <point x="570" y="683" type="curve" smooth="yes"/>
      <point x="570" y="739"/>
      <point x="543" y="782"/>
      <point x="489" y="813" type="curve"/>
      <point x="539" y="844"/>
      <point x="564" y="881"/>
      <point x="564" y="925" type="curve" smooth="yes"/>
      <point x="564" y="1018"/>
      <point x="457" y="1078"/>
    </contour>
  </outline>
</glyph>
<glyph name="questiondown" format="2">
  <advance width="914"/>
  <unicode hex="00BF"/>
  <outline>
    <contour>
      <point x="520" y="-47" type="curve" smooth="yes"/>
      <point x="655" y="-47"/>
      <point x="914" y="10"/>
      <point x="914" y="267" type="curve" smooth="yes"/>
      <point x="914" y="354"/>
      <point x="856" y="405"/>
      <point x="792" y="405" type="curve" smooth="yes"/>
      <point x="721" y="405"/>
      <point x="670" y="366"/>
      <point x="670" y="323" type="curve" smooth="yes"/>
      <point x="670" y="267"/>
      <point x="731" y="232"/>
      <point x="731" y="185" type="curve" smooth="yes"/>
      <point x="731" y="44"/>
      <point x="582" y="36"/>
      <point x="546" y="36" type="curve" smooth="yes"/>
      <point x="436" y="36"/>
      <point x="334" y="142"/>
      <point x="334" y="274" type="curve" smooth="yes"/>
      <point x="334" y="494"/>
      <point x="591" y="580"/>
      <point x="591" y="818" type="curve" smooth="yes"/>
      <point x="591" y="845"/>
      <point x="585" y="875"/>
      <point x="574" y="908" type="curve"/>
      <point x="476" y="877"/>
      <point x="476" y="877"/>
      <point x="476" y="877" type="curve"/>
      <point x="482" y="857"/>
      <point x="485" y="834"/>
      <point x="485" y="808" type="curve" smooth="yes"/>
      <point x="485" y="702"/>
      <point x="396" y="614"/>
      <point x="292" y="548" type="curve" smooth="yes"/>
      <point x="100" y="424"/>
      <point x="100" y="323"/>
      <point x="100" y="265" type="curve" smooth="yes"/>
      <point x="100" y="100"/>
      <point x="298" y="-47"/>
    </contour>
    <contour>
      <point x="326" y="1102" type="curve" smooth="yes"/>
      <point x="326" y="1024"/>
      <point x="396" y="967"/>
      <point x="470" y="967" type="curve" smooth="yes"/>
      <point x="542" y="967"/>
      <point x="614" y="1024"/>
      <point x="614" y="1102" type="curve" smooth="yes"/>
      <point x="614" y="1181"/>
      <point x="540" y="1232"/>
      <point x="470" y="1232" type="curve" smooth="yes"/>
      <point x="400" y="1232"/>
      <point x="326" y="1181"/>
    </contour>
  </outline>
</glyph>
<glyph name="Agrave" format="2">
  <advance width="1164"/>
  <unicode hex="00C0"/>
  <outline>
    <contour>
      <point x="411" y="548" type="line"/>
      <point x="582" y="1040" type="line"/>
      <point x="774" y="548" type="line"/>
    </contour>
    <contour>
      <point x="1177" y="1" type="line"/>
      <point x="999" y="376"/>
      <point x="847" y="704"/>
      <point x="699" y="1212" type="curve"/>
      <point x="545" y="1212" type="line"/>
      <point x="130" y="1" type="line"/>
      <point x="232" y="1" type="line"/>
      <point x="378" y="447" type="line"/>
      <point x="443" y="452"/>
      <point x="513" y="454"/>
      <point x="588" y="454" type="curve" smooth="yes"/>
      <point x="667" y="454"/>
      <point x="742" y="452"/>
      <point x="811" y="447" type="curve"/>
      <point x="975" y="1" type="line"/>
    </contour>
    <contour>
      <point x="616" y="1299" type="line"/>
      <point x="564" y="1367"/>
      <point x="517" y="1441"/>
      <point x="474" y="1522" type="curve"/>
      <point x="283" y="1522" type="line"/>
      <point x="484" y="1299" type="line"/>
    </contour>
  </outline>
</glyph>
<glyph name="Acircumflex" format="2">
  <advance width="1149"/>
  <unicode hex="00C2"/>
  <outline>
    <contour>
      <point x="411" y="548" type="line"/>
      <point x="582" y="1040" type="line"/>
      <point x="774" y="548" type="line"/>
    </contour>
    <contour>
      <point x="1177" y="1" type="line"/>
      <point x="999" y="376"/>
      <point x="847" y="704"/>
      <point x="699" y="1212" type="curve"/>
      <point x="545" y="1212" type="line"/>
      <point x="130" y="1" type="line"/>
      <point x="232" y="1" type="line"/>
      <point x="378" y="447" type="line"/>
      <point x="443" y="452"/>
      <point x="513" y="454"/>
      <point x="588" y="454" type="curve" smooth="yes"/>
      <point x="667" y="454"/>
      <point x="742" y="452"/>
      <point x="811" y="447" type="curve"/>
      <point x="975" y="1" type="line"/>
    </contour>
    <contour>
      <point x="866" y="1301" type="line"/>
      <point x="794" y="1374"/>
      <point x="733" y="1448"/>
      <point x="683" y="1523" type="curve"/>
      <point x="554" y="1523" type="line"/>
      <point x="503" y="1454"/>
      <point x="440" y="1380"/>
      <point x="367" y="1301" type="curve"/>
      <point x="521" y="1301" type="line"/>
      <point x="614" y="1426" type="line"/>
      <point x="704" y="1301" type="line"/>
    </contour>
  </outline>
</glyph>
<glyph name="Atilde" format="2">
  <advance width="1152"/>
  <unicode hex="00C3"/>
  <outline>
    <contour>
      <point x="411" y="548" type="line"/>
      <point x="582" y="1040" type="line"/>
      <point x="774" y="548" type="line"/>
    </contour>
    <contour>
      <point x="1177" y="1" type="line"/>
      <point x="999" y="376"/>
      <point x="847" y="704"/>
      <point x="699" y="1212" type="curve"/>
      <point x="545" y="1212" type="line"/>
      <point x="130" y="1" type="line"/>
      <point x="232" y="1" type="line"/>
      <point x="378" y="447" type="line"/>
      <point x="443" y="452"/>
      <point x="513" y="454"/>
      <point x="588" y="454" type="curve" smooth="yes"/>
      <point x="667" y="454"/>
      <point x="742" y="452"/>
      <point x="811" y="447" type="curve"/>
      <point x="975" y="1" type="line"/>
    </contour>
    <contour>
      <point x="782" y="1421" type="curve" smooth="yes"/>
      <point x="695" y="1421"/>
      <point x="587" y="1498"/>
      <point x="500" y="1498" type="curve" smooth="yes"/>
      <point x="377" y="1498"/>
      <point x="361" y="1362"/>
      <point x="360" y="1307" type="curve"/>
      <point x="408" y="1285" type="line"/>
      <point x="420" y="1366"/>
      <point x="451" y="1384"/>
      <point x="505" y="1384" type="curve" smooth="yes"/>
      <point x="594" y="1384"/>
      <point x="698" y="1305"/>
      <point x="787" y="1305" type="curve" smooth="yes"/>
      <point x="873" y="1305"/>
      <point x="920" y="1372"/>
      <point x="928" y="1506" type="curve"/>
      <point x="879" y="1528" type="line"/>
      <point x="864" y="1432"/>
      <point x="824" y="1421"/>
    </contour>
  </outline>
</glyph>
<glyph name="Adieresis" format="2">
  <advance width="1149"/>
  <unicode hex="00C4"/>
  <outline>
    <contour>
      <point x="411" y="548" type="line"/>
      <point x="582" y="1040" type="line"/>
      <point x="774" y="548" type="line"/>
    </contour>
    <contour>
      <point x="1177" y="1" type="line"/>
      <point x="999" y="376"/>
      <point x="847" y="704"/>
      <point x="699" y="1212" type="curve"/>
      <point x="545" y="1212" type="line"/>
      <point x="130" y="1" type="line"/>
      <point x="232" y="1" type="line"/>
      <point x="378" y="447" type="line"/>
      <point x="443" y="452"/>
      <point x="513" y="454"/>
      <point x="588" y="454" type="curve" smooth="yes"/>
      <point x="667" y="454"/>
      <point x="742" y="452"/>
      <point x="811" y="447" type="curve"/>
      <point x="975" y="1" type="line"/>
    </contour>
    <contour>
      <point x="469" y="1505" type="curve" smooth="yes"/>
      <point x="416" y="1505"/>
      <point x="376" y="1462"/>
      <point x="376" y="1410" type="curve" smooth="yes"/>
      <point x="376" y="1357"/>
      <point x="414" y="1315"/>
      <point x="469" y="1315" type="curve" smooth="yes"/>
      <point x="521" y="1315"/>
      <point x="563" y="1355"/>
      <point x="563" y="1410" type="curve" smooth="yes"/>
      <point x="563" y="1462"/>
      <point x="522" y="1505"/>
    </contour>
    <contour>
      <point x="746" y="1505" type="curve" smooth="yes"/>
      <point x="693" y="1505"/>
      <point x="652" y="1462"/>
      <point x="652" y="1410" type="curve" smooth="yes"/>
      <point x="652" y="1355"/>
      <point x="694" y="1315"/>
      <point x="746" y="1315" type="curve" smooth="yes"/>
      <point x="801" y="1315"/>
      <point x="839" y="1357"/>
      <point x="839" y="1410" type="curve" smooth="yes"/>
      <point x="839" y="1462"/>
      <point x="799" y="1505"/>
    </contour>
  </outline>
</glyph>
<glyph name="Aring" format="2">
  <advance width="1140"/>
  <unicode hex="00C5"/>
  <outline>
    <contour>
      <point x="411" y="548" type="line"/>
      <point x="582" y="1040" type="line"/>
      <point x="774" y="548" type="line"/>
    </contour>
    <contour>
      <point x="612" y="1334" type="curve" smooth="yes"/>
      <point x="577" y="1334"/>
      <point x="552" y="1363"/>
      <point x="552" y="1394" type="curve" smooth="yes"/>
      <point x="552" y="1426"/>
      <point x="578" y="1453"/>
      <point x="612" y="1453" type="curve" smooth="yes"/>
      <point x="644" y="1453"/>
      <point x="671" y="1426"/>
      <point x="671" y="1394" type="curve" smooth="yes"/>
      <point x="671" y="1362"/>
      <point x="645" y="1334"/>
    </contour>
    <contour>
      <point x="1177" y="1" type="line"/>
      <point x="999" y="376"/>
      <point x="847" y="704"/>
      <point x="699" y="1212" type="curve"/>
      <point x="545" y="1212" type="line"/>
      <point x="130" y="1" type="line"/>
      <point x="232" y="1" type="line"/>
      <point x="378" y="447" type="line"/>
      <point x="443" y="452"/>
      <point x="513" y="454"/>
      <point x="588" y="454" type="curve" smooth="yes"/>
      <point x="667" y="454"/>
      <point x="742" y="452"/>
      <point x="811" y="447" type="curve"/>
      <point x="975" y="1" type="line"/>
    </contour>
    <contour>
      <point x="612" y="1499" type="curve" smooth="yes"/>
      <point x="554" y="1499"/>
      <point x="507" y="1452"/>
      <point x="507" y="1394" type="curve" smooth="yes"/>
      <point x="507" y="1335"/>
      <point x="553" y="1289"/>
      <point x="612" y="1289" type="curve" smooth="yes"/>
      <point x="670" y="1289"/>
      <point x="716" y="1337"/>
      <point x="716" y="1394" type="curve" smooth="yes"/>
      <point x="716" y="1451"/>
      <point x="670" y="1499"/>
    </contour>
  </outline>
</glyph>
<glyph name="AE" format="2">
  <advance width="1345"/>
  <unicode hex="00C6"/>
  <outline>
    <contour>
      <point x="700" y="548" type="line"/>
      <point x="411" y="548" type="line"/>
      <point x="620" y="1101" type="line"/>
      <point x="700" y="1101" type="line"/>
      <point x="700" y="756" type="line"/>
      <point x="701" y="673" type="line"/>
    </contour>
    <contour>
      <point x="1344" y="75" type="line"/>
      <point x="857" y="75" type="line"/>
      <point x="857" y="621" type="line"/>
      <point x="1233" y="621" type="line"/>
      <point x="1233" y="716" type="line"/>
      <point x="1145" y="709"/>
      <point x="1066" y="706"/>
      <point x="996" y="706" type="curve" smooth="yes"/>
      <point x="981" y="706"/>
      <point x="934" y="708"/>
      <point x="857" y="713" type="curve"/>
      <point x="857" y="1101" type="line"/>
      <point x="1344" y="1101" type="line"/>
      <point x="1344" y="1209" type="line"/>
      <point x="1197" y="1196"/>
      <point x="1074" y="1189"/>
      <point x="975" y="1189" type="curve" smooth="yes"/>
      <point x="835" y="1189"/>
      <point x="692" y="1196"/>
      <point x="545" y="1209" type="curve"/>
      <point x="119" y="1" type="line"/>
      <point x="232" y="1" type="line"/>
      <point x="378" y="447" type="line"/>
      <point x="435" y="452"/>
      <point x="508" y="454"/>
      <point x="597" y="454" type="curve" smooth="yes"/>
      <point x="620" y="454"/>
      <point x="654" y="453"/>
      <point x="699" y="452" type="curve"/>
      <point x="683" y="-4" type="line"/>
      <point x="834" y="2"/>
      <point x="940" y="5"/>
      <point x="1001" y="5" type="curve" smooth="yes"/>
      <point x="1087" y="5"/>
      <point x="1201" y="2"/>
      <point x="1344" y="-4" type="curve"/>
    </contour>
  </outline>
</glyph>
<glyph name="Ccedilla" format="2">
  <advance width="1060"/>
  <unicode hex="00C7"/>
  <outline>
    <contour>
      <point x="708" y="101" type="curve" smooth="yes"/>
      <point x="454" y="101"/>
      <point x="346" y="351"/>
      <point x="346" y="583" type="curve" smooth="yes"/>
      <point x="346" y="810"/>
      <point x="454" y="1101"/>
      <point x="723" y="1101" type="curve" smooth="yes"/>
      <point x="876" y="1101"/>
      <point x="968" y="991"/>
      <point x="1003" y="939" type="curve"/>
      <point x="1039" y="1019" type="line"/>
      <point x="915" y="1201"/>
      <point x="761" y="1230"/>
      <point x="676" y="1230" type="curve" smooth="yes"/>
      <point x="327" y="1230"/>
      <point x="159" y="901"/>
      <point x="159" y="589" type="curve" smooth="yes"/>
      <point x="159" y="304"/>
      <point x="305" y="-9"/>
      <point x="657" y="-21" type="curve"/>
      <point x="569" y="-165" type="line"/>
      <point x="604" y="-211" type="line"/>
      <point x="645" y="-185"/>
      <point x="688" y="-172"/>
      <point x="735" y="-172" type="curve" smooth="yes"/>
      <point x="786" y="-172"/>
      <point x="790" y="-201"/>
      <point x="790" y="-210" type="curve" smooth="yes"/>
      <point x="790" y="-274"/>
      <point x="709" y="-320"/>
      <point x="652" y="-320" type="curve" smooth="yes"/>
      <point x="607" y="-320"/>
      <point x="572" y="-304"/>
      <point x="547" y="-271" type="curve"/>
      <point x="466" y="-311" type="line"/>
      <point x="499" y="-368"/>
      <point x="565" y="-397"/>
      <point x="664" y="-397" type="curve" smooth="yes"/>
      <point x="765" y="-397"/>
      <point x="956" y="-351"/>
      <point x="956" y="-202" type="curve" smooth="yes"/>
      <point x="956" y="-91"/>
      <point x="823" y="-80"/>
      <point x="788" y="-80" type="curve" smooth="yes"/>
      <point x="753" y="-80"/>
      <point x="727" y="-81"/>
      <point x="710" y="-84" type="curve"/>
      <point x="753" y="-14" type="line"/>
      <point x="871" y="7"/>
      <point x="971" y="73"/>
      <point x="1053" y="184" type="curve"/>
      <point x="996" y="288" type="line"/>
      <point x="912" y="128"/>
      <point x="784" y="101"/>
    </contour>
  </outline>
</glyph>
<glyph name="Egrave" format="2">
  <advance width="876"/>
  <unicode hex="00C8"/>
  <outline>
    <contour>
      <point x="888" y="75" type="line"/>
      <point x="327" y="75" type="line"/>
      <point x="327" y="621" type="line"/>
      <point x="763" y="621" type="line"/>
      <point x="763" y="716" type="line"/>
      <point x="670" y="709"/>
      <point x="589" y="706"/>
      <point x="521" y="706" type="curve" smooth="yes"/>
      <point x="452" y="706"/>
      <point x="387" y="708"/>
      <point x="327" y="713" type="curve"/>
      <point x="327" y="1131" type="line"/>
      <point x="874" y="1131" type="line"/>
      <point x="874" y="1211" type="line"/>
      <point x="727" y="1201"/>
      <point x="598" y="1196"/>
      <point x="487" y="1196" type="curve" smooth="yes"/>
      <point x="369" y="1196"/>
      <point x="258" y="1201"/>
      <point x="153" y="1211" type="curve"/>
      <point x="164" y="1018"/>
      <point x="170" y="816"/>
      <point x="170" y="607" type="curve" smooth="yes"/>
      <point x="170" y="421"/>
      <point x="164" y="217"/>
      <point x="153" y="-4" type="curve"/>
      <point x="274" y="2"/>
      <point x="391" y="5"/>
      <point x="504" y="5" type="curve" smooth="yes"/>
      <point x="603" y="5"/>
      <point x="731" y="2"/>
      <point x="888" y="-4" type="curve"/>
    </contour>
    <contour>
      <point x="446" y="1299" type="line"/>
      <point x="394" y="1367"/>
      <point x="347" y="1441"/>
      <point x="304" y="1522" type="curve"/>
      <point x="113" y="1522" type="line"/>
      <point x="314" y="1299" type="line"/>
    </contour>
  </outline>
</glyph>
<glyph name="Ecircumflex" format="2">
  <advance width="876"/>
  <unicode hex="00CA"/>
  <outline>
    <contour>
      <point x="888" y="75" type="line"/>
      <point x="327" y="75" type="line"/>
      <point x="327" y="621" type="line"/>
      <point x="763" y="621" type="line"/>
      <point x="763" y="716" type="line"/>
      <point x="670" y="709"/>
      <point x="589" y="706"/>
      <point x="521" y="706" type="curve" smooth="yes"/>
      <point x="452" y="706"/>
      <point x="387" y="708"/>
      <point x="327" y="713" type="curve"/>
      <point x="327" y="1131" type="line"/>
      <point x="874" y="1131" type="line"/>
      <point x="874" y="1211" type="line"/>
      <point x="727" y="1201"/>
      <point x="598" y="1196"/>
      <point x="487" y="1196" type="curve" smooth="yes"/>
      <point x="369" y="1196"/>
      <point x="258" y="1201"/>
      <point x="153" y="1211" type="curve"/>
      <point x="164" y="1018"/>
      <point x="170" y="816"/>
      <point x="170" y="607" type="curve" smooth="yes"/>
      <point x="170" y="421"/>
      <point x="164" y="217"/>
      <point x="153" y="-4" type="curve"/>
      <point x="274" y="2"/>
      <point x="391" y="5"/>
      <point x="504" y="5" type="curve" smooth="yes"/>
      <point x="603" y="5"/>
      <point x="731" y="2"/>
      <point x="888" y="-4" type="curve"/>
    </contour>
    <contour>
      <point x="786" y="1301" type="line"/>
      <point x="714" y="1374"/>
      <point x="653" y="1448"/>
      <point x="603" y="1523" type="curve"/>
      <point x="474" y="1523" type="line"/>
      <point x="423" y="1454"/>
      <point x="360" y="1380"/>
      <point x="287" y="1301" type="curve"/>
      <point x="441" y="1301" type="line"/>
      <point x="534" y="1426" type="line"/>
      <point x="624" y="1301" type="line"/>
    </contour>
  </outline>
</glyph>
<glyph name="Igrave" format="2">
  <advance width="431"/>
  <unicode hex="00CC"/>
  <outline>
    <contour>
      <point x="429" y="0" type="line"/>
      <point x="418" y="179"/>
      <point x="412" y="365"/>
      <point x="412" y="558" type="curve" smooth="yes"/>
      <point x="412" y="739"/>
      <point x="418" y="956"/>
      <point x="429" y="1210" type="curve"/>
      <point x="263" y="1210" type="line"/>
      <point x="276" y="1023"/>
      <point x="283" y="834"/>
      <point x="283" y="642" type="curve" smooth="yes"/>
      <point x="283" y="455"/>
      <point x="276" y="241"/>
      <point x="263" y="0" type="curve"/>
    </contour>
    <contour>
      <point x="386" y="1299" type="line"/>
      <point x="334" y="1367"/>
      <point x="287" y="1441"/>
      <point x="244" y="1522" type="curve"/>
      <point x="53" y="1522" type="line"/>
      <point x="254" y="1299" type="line"/>
    </contour>
  </outline>
</glyph>
<glyph name="Icircumflex" format="2">
  <advance width="501"/>
  <unicode hex="00CE"/>
  <outline>
    <contour>
      <point x="399" y="0" type="line"/>
      <point x="388" y="179"/>
      <point x="382" y="365"/>
      <point x="382" y="558" type="curve" smooth="yes"/>
      <point x="382" y="739"/>
      <point x="388" y="956"/>
      <point x="399" y="1210" type="curve"/>
      <point x="233" y="1210" type="line"/>
      <point x="246" y="1023"/>
      <point x="253" y="834"/>
      <point x="253" y="642" type="curve" smooth="yes"/>
      <point x="253" y="455"/>
      <point x="246" y="241"/>
      <point x="233" y="0" type="curve"/>
    </contour>
    <contour>
      <point x="576" y="1301" type="line"/>
      <point x="504" y="1374"/>
      <point x="443" y="1448"/>
      <point x="393" y="1523" type="curve"/>
      <point x="264" y="1523" type="line"/>
      <point x="213" y="1454"/>
      <point x="150" y="1380"/>
      <point x="77" y="1301" type="curve"/>
      <point x="231" y="1301" type="line"/>
      <point x="324" y="1426" type="line"/>
      <point x="414" y="1301" type="line"/>
    </contour>
  </outline>
</glyph>
<glyph name="Idieresis" format="2">
  <advance width="512"/>
  <unicode hex="00CF"/>
  <outline>
    <contour>
      <point x="419" y="0" type="line"/>
      <point x="408" y="179"/>
      <point x="402" y="365"/>
      <point x="402" y="558" type="curve" smooth="yes"/>
      <point x="402" y="739"/>
      <point x="408" y="956"/>
      <point x="419" y="1210" type="curve"/>
      <point x="253" y="1210" type="line"/>
      <point x="266" y="1023"/>
      <point x="273" y="834"/>
      <point x="273" y="642" type="curve" smooth="yes"/>
      <point x="273" y="455"/>
      <point x="266" y="241"/>
      <point x="253" y="0" type="curve"/>
    </contour>
    <contour>
      <point x="199" y="1505" type="curve" smooth="yes"/>
      <point x="146" y="1505"/>
      <point x="106" y="1462"/>
      <point x="106" y="1410" type="curve" smooth="yes"/>
      <point x="106" y="1357"/>
      <point x="144" y="1315"/>
      <point x="199" y="1315" type="curve" smooth="yes"/>
      <point x="251" y="1315"/>
      <point x="293" y="1355"/>
      <point x="293" y="1410" type="curve" smooth="yes"/>
      <point x="293" y="1462"/>
      <point x="252" y="1505"/>
    </contour>
    <contour>
      <point x="476" y="1505" type="curve" smooth="yes"/>
      <point x="423" y="1505"/>
      <point x="382" y="1462"/>
      <point x="382" y="1410" type="curve" smooth="yes"/>
      <point x="382" y="1355"/>
      <point x="424" y="1315"/>
      <point x="476" y="1315" type="curve" smooth="yes"/>
      <point x="531" y="1315"/>
      <point x="569" y="1357"/>
      <point x="569" y="1410" type="curve" smooth="yes"/>
      <point x="569" y="1462"/>
      <point x="529" y="1505"/>
    </contour>
  </outline>
</glyph>
<glyph name="Eth" format="2">
  <advance width="1125"/>
  <unicode hex="00D0"/>
  <outline>
    <contour>
      <point x="560" y="75" type="curve" smooth="yes"/>
      <point x="387" y="75" type="line"/>
      <point x="387" y="571" type="line"/>
      <point x="698" y="573" type="line"/>
      <point x="695" y="654" type="line"/>
      <point x="387" y="654" type="line"/>
      <point x="387" y="1135" type="line"/>
      <point x="560" y="1135" type="line" smooth="yes"/>
      <point x="846" y="1135"/>
      <point x="939" y="814"/>
      <point x="939" y="606" type="curve" smooth="yes"/>
      <point x="939" y="363"/>
      <point x="830" y="75"/>
    </contour>
    <contour>
      <point x="616" y="1215" type="curve" smooth="yes"/>
      <point x="546" y="1215"/>
      <point x="449" y="1204"/>
      <point x="379" y="1204" type="curve" smooth="yes"/>
      <point x="336" y="1204"/>
      <point x="280" y="1208"/>
      <point x="213" y="1215" type="curve"/>
      <point x="228" y="994"/>
      <point x="235" y="814"/>
      <point x="234" y="675" type="curve" smooth="yes"/>
      <point x="234" y="654" type="line"/>
      <point x="77" y="654" type="line"/>
      <point x="77" y="570" type="line"/>
      <point x="234" y="571" type="line"/>
      <point x="232" y="399"/>
      <point x="225" y="207"/>
      <point x="213" y="-5" type="curve"/>
      <point x="276" y="2"/>
      <point x="333" y="5"/>
      <point x="384" y="5" type="curve" smooth="yes"/>
      <point x="452" y="5"/>
      <point x="549" y="-5"/>
      <point x="617" y="-5" type="curve" smooth="yes"/>
      <point x="954" y="-5"/>
      <point x="1123" y="294"/>
      <point x="1123" y="605" type="curve" smooth="yes"/>
      <point x="1123" y="909"/>
      <point x="956" y="1215"/>
    </contour>
  </outline>
</glyph>
<glyph name="Ntilde" format="2">
  <advance width="1125"/>
  <unicode hex="00D1"/>
  <outline>
    <contour>
      <point x="1064" y="1210" type="line"/>
      <point x="963" y="1210" type="line"/>
      <point x="963" y="231" type="line"/>
      <point x="613" y="650"/>
      <point x="427" y="1032"/>
      <point x="347" y="1210" type="curve"/>
      <point x="183" y="1210" type="line"/>
      <point x="173" y="0" type="line"/>
      <point x="286" y="0" type="line"/>
      <point x="286" y="987" type="line"/>
      <point x="890" y="0" type="line"/>
      <point x="1074" y="0" type="line"/>
    </contour>
    <contour>
      <point x="822" y="1421" type="curve" smooth="yes"/>
      <point x="735" y="1421"/>
      <point x="629" y="1498"/>
      <point x="540" y="1498" type="curve" smooth="yes"/>
      <point x="417" y="1498"/>
      <point x="401" y="1362"/>
      <point x="400" y="1307" type="curve"/>
      <point x="448" y="1285" type="line"/>
      <point x="460" y="1366"/>
      <point x="491" y="1384"/>
      <point x="545" y="1384" type="curve" smooth="yes"/>
      <point x="634" y="1384"/>
      <point x="740" y="1305"/>
      <point x="827" y="1305" type="curve" smooth="yes"/>
      <point x="913" y="1305"/>
      <point x="960" y="1372"/>
      <point x="968" y="1506" type="curve"/>
      <point x="919" y="1528" type="line"/>
      <point x="904" y="1432"/>
      <point x="864" y="1421"/>
    </contour>
  </outline>
</glyph>
<glyph name="Ograve" format="2">
  <advance width="1221"/>
  <unicode hex="00D2"/>
  <outline>
    <contour>
      <point x="692" y="59" type="curve" smooth="yes"/>
      <point x="439" y="59"/>
      <point x="337" y="386"/>
      <point x="337" y="614" type="curve" smooth="yes"/>
      <point x="337" y="812"/>
      <point x="406" y="1152"/>
      <point x="682" y="1152" type="curve" smooth="yes"/>
      <point x="938" y="1152"/>
      <point x="1037" y="810"/>
      <point x="1037" y="586" type="curve" smooth="yes"/>
      <point x="1037" y="344"/>
      <point x="945" y="59"/>
    </contour>
    <contour>
      <point x="687" y="1230" type="curve" smooth="yes"/>
      <point x="340" y="1230"/>
      <point x="149" y="926"/>
      <point x="149" y="600" type="curve" smooth="yes"/>
      <point x="149" y="271"/>
      <point x="341" y="-21"/>
      <point x="687" y="-21" type="curve" smooth="yes"/>
      <point x="1039" y="-21"/>
      <point x="1224" y="278"/>
      <point x="1224" y="600" type="curve" smooth="yes"/>
      <point x="1224" y="898"/>
      <point x="1056" y="1230"/>
    </contour>
    <contour>
      <point x="576" y="1299" type="line"/>
      <point x="524" y="1367"/>
      <point x="477" y="1441"/>
      <point x="434" y="1522" type="curve"/>
      <point x="243" y="1522" type="line"/>
      <point x="444" y="1299" type="line"/>
    </contour>
  </outline>
</glyph>
<glyph name="Oacute" format="2">
  <advance width="1221"/>
  <unicode hex="00D3"/>
  <outline>
    <contour>
      <point x="692" y="59" type="curve" smooth="yes"/>
      <point x="439" y="59"/>
      <point x="337" y="386"/>
      <point x="337" y="614" type="curve" smooth="yes"/>
      <point x="337" y="812"/>
      <point x="406" y="1152"/>
      <point x="682" y="1152" type="curve" smooth="yes"/>
      <point x="938" y="1152"/>
      <point x="1037" y="810"/>
      <point x="1037" y="586" type="curve" smooth="yes"/>
      <point x="1037" y="344"/>
      <point x="945" y="59"/>
    </contour>
    <contour>
      <point x="687" y="1230" type="curve" smooth="yes"/>
      <point x="340" y="1230"/>
      <point x="149" y="926"/>
      <point x="149" y="600" type="curve" smooth="yes"/>
      <point x="149" y="271"/>
      <point x="341" y="-21"/>
      <point x="687" y="-21" type="curve" smooth="yes"/>
      <point x="1039" y="-21"/>
      <point x="1224" y="278"/>
      <point x="1224" y="600" type="curve" smooth="yes"/>
      <point x="1224" y="898"/>
      <point x="1056" y="1230"/>
    </contour>
    <contour>
      <point x="888" y="1523" type="line"/>
      <point x="849" y="1444"/>
      <point x="801" y="1369"/>
      <point x="746" y="1300" type="curve"/>
      <point x="878" y="1300" type="line"/>
      <point x="1079" y="1523" type="line"/>
    </contour>
  </outline>
</glyph>
<glyph name="Ocircumflex" format="2">
  <advance width="1221"/>
  <unicode hex="00D4"/>
  <outline>
    <contour>
      <point x="692" y="59" type="curve" smooth="yes"/>
      <point x="439" y="59"/>
      <point x="337" y="386"/>
      <point x="337" y="614" type="curve" smooth="yes"/>
      <point x="337" y="812"/>
      <point x="406" y="1152"/>
      <point x="682" y="1152" type="curve" smooth="yes"/>
      <point x="938" y="1152"/>
      <point x="1037" y="810"/>
      <point x="1037" y="586" type="curve" smooth="yes"/>
      <point x="1037" y="344"/>
      <point x="945" y="59"/>
    </contour>
    <contour>
      <point x="687" y="1230" type="curve" smooth="yes"/>
      <point x="340" y="1230"/>
      <point x="149" y="926"/>
      <point x="149" y="600" type="curve" smooth="yes"/>
      <point x="149" y="271"/>
      <point x="341" y="-21"/>
      <point x="687" y="-21" type="curve" smooth="yes"/>
      <point x="1039" y="-21"/>
      <point x="1224" y="278"/>
      <point x="1224" y="600" type="curve" smooth="yes"/>
      <point x="1224" y="898"/>
      <point x="1056" y="1230"/>
    </contour>
    <contour>
      <point x="936" y="1301" type="line"/>
      <point x="864" y="1374"/>
      <point x="803" y="1448"/>
      <point x="753" y="1523" type="curve"/>
      <point x="624" y="1523" type="line"/>
      <point x="573" y="1454"/>
      <point x="510" y="1380"/>
      <point x="437" y="1301" type="curve"/>
      <point x="591" y="1301" type="line"/>
      <point x="684" y="1426" type="line"/>
      <point x="774" y="1301" type="line"/>
    </contour>
  </outline>
</glyph>
<glyph name="Otilde" format="2">
  <advance width="1221"/>
  <unicode hex="00D5"/>
  <outline>
    <contour>
      <point x="692" y="59" type="curve" smooth="yes"/>
      <point x="439" y="59"/>
      <point x="337" y="386"/>
      <point x="337" y="614" type="curve" smooth="yes"/>
      <point x="337" y="812"/>
      <point x="406" y="1152"/>
      <point x="682" y="1152" type="curve" smooth="yes"/>
      <point x="938" y="1152"/>
      <point x="1037" y="810"/>
      <point x="1037" y="586" type="curve" smooth="yes"/>
      <point x="1037" y="344"/>
      <point x="945" y="59"/>
    </contour>
    <contour>
      <point x="687" y="1230" type="curve" smooth="yes"/>
      <point x="340" y="1230"/>
      <point x="149" y="926"/>
      <point x="149" y="600" type="curve" smooth="yes"/>
      <point x="149" y="271"/>
      <point x="341" y="-21"/>
      <point x="687" y="-21" type="curve" smooth="yes"/>
      <point x="1039" y="-21"/>
      <point x="1224" y="278"/>
      <point x="1224" y="600" type="curve" smooth="yes"/>
      <point x="1224" y="898"/>
      <point x="1056" y="1230"/>
    </contour>
    <contour>
      <point x="862" y="1421" type="curve" smooth="yes"/>
      <point x="775" y="1421"/>
      <point x="667" y="1498"/>
      <point x="580" y="1498" type="curve" smooth="yes"/>
      <point x="457" y="1498"/>
      <point x="441" y="1362"/>
      <point x="440" y="1307" type="curve"/>
      <point x="488" y="1285" type="line"/>
      <point x="500" y="1366"/>
      <point x="531" y="1384"/>
      <point x="585" y="1384" type="curve" smooth="yes"/>
      <point x="674" y="1384"/>
      <point x="778" y="1305"/>
      <point x="867" y="1305" type="curve" smooth="yes"/>
      <point x="953" y="1305"/>
      <point x="1000" y="1372"/>
      <point x="1008" y="1506" type="curve"/>
      <point x="959" y="1528" type="line"/>
      <point x="944" y="1432"/>
      <point x="904" y="1421"/>
    </contour>
  </outline>
</glyph>
<glyph name="Odieresis" format="2">
  <advance width="1221"/>
  <unicode hex="00D6"/>
  <outline>
    <contour>
      <point x="692" y="59" type="curve" smooth="yes"/>
      <point x="439" y="59"/>
      <point x="337" y="386"/>
      <point x="337" y="614" type="curve" smooth="yes"/>
      <point x="337" y="812"/>
      <point x="406" y="1152"/>
      <point x="682" y="1152" type="curve" smooth="yes"/>
      <point x="938" y="1152"/>
      <point x="1037" y="810"/>
      <point x="1037" y="586" type="curve" smooth="yes"/>
      <point x="1037" y="344"/>
      <point x="945" y="59"/>
    </contour>
    <contour>
      <point x="687" y="1230" type="curve" smooth="yes"/>
      <point x="340" y="1230"/>
      <point x="149" y="926"/>
      <point x="149" y="600" type="curve" smooth="yes"/>
      <point x="149" y="271"/>
      <point x="341" y="-21"/>
      <point x="687" y="-21" type="curve" smooth="yes"/>
      <point x="1039" y="-21"/>
      <point x="1224" y="278"/>
      <point x="1224" y="600" type="curve" smooth="yes"/>
      <point x="1224" y="898"/>
      <point x="1056" y="1230"/>
    </contour>
    <contour>
      <point x="549" y="1505" type="curve" smooth="yes"/>
      <point x="496" y="1505"/>
      <point x="456" y="1462"/>
      <point x="456" y="1410" type="curve" smooth="yes"/>
      <point x="456" y="1357"/>
      <point x="494" y="1315"/>
      <point x="549" y="1315" type="curve" smooth="yes"/>
      <point x="601" y="1315"/>
      <point x="643" y="1355"/>
      <point x="643" y="1410" type="curve" smooth="yes"/>
      <point x="643" y="1462"/>
      <point x="602" y="1505"/>
    </contour>
    <contour>
      <point x="826" y="1505" type="curve" smooth="yes"/>
      <point x="773" y="1505"/>
      <point x="732" y="1462"/>
      <point x="732" y="1410" type="curve" smooth="yes"/>
      <point x="732" y="1355"/>
      <point x="774" y="1315"/>
      <point x="826" y="1315" type="curve" smooth="yes"/>
      <point x="881" y="1315"/>
      <point x="919" y="1357"/>
      <point x="919" y="1410" type="curve" smooth="yes"/>
      <point x="919" y="1462"/>
      <point x="879" y="1505"/>
    </contour>
  </outline>
</glyph>
<glyph name="multiply" format="2">
  <advance width="926"/>
  <unicode hex="00D7"/>
  <outline>
    <contour>
      <point x="812" y="828" type="line"/>
      <point x="518" y="534" type="line"/>
      <point x="226" y="826" type="line"/>
      <point x="144" y="743" type="line"/>
      <point x="435" y="451" type="line"/>
      <point x="157" y="173" type="line"/>
      <point x="239" y="88" type="line"/>
      <point x="518" y="368" type="line"/>
      <point x="798" y="88" type="line"/>
      <point x="881" y="171" type="line"/>
      <point x="601" y="451" type="line"/>
      <point x="893" y="743" type="line"/>
    </contour>
  </outline>
</glyph>
<glyph name="Oslash" format="2">
  <advance width="1221"/>
  <unicode hex="00D8"/>
  <outline>
    <contour>
      <point x="692" y="59" type="curve" smooth="yes"/>
      <point x="587" y="59"/>
      <point x="501" y="113"/>
      <point x="436" y="221" type="curve"/>
      <point x="984" y="885" type="line"/>
      <point x="1019" y="788"/>
      <point x="1037" y="689"/>
      <point x="1037" y="586" type="curve" smooth="yes"/>
      <point x="1037" y="344"/>
      <point x="945" y="59"/>
    </contour>
    <contour>
      <point x="682" y="1152" type="curve" smooth="yes"/>
      <point x="783" y="1152"/>
      <point x="866" y="1101"/>
      <point x="930" y="998" type="curve"/>
      <point x="383" y="337" type="line"/>
      <point x="352" y="426"/>
      <point x="337" y="519"/>
      <point x="337" y="614" type="curve" smooth="yes"/>
      <point x="337" y="812"/>
      <point x="406" y="1152"/>
    </contour>
    <contour>
      <point x="149" y="600" type="curve" smooth="yes"/>
      <point x="149" y="443"/>
      <point x="188" y="308"/>
      <point x="266" y="195" type="curve"/>
      <point x="106" y="1" type="line"/>
      <point x="255" y="1" type="line"/>
      <point x="342" y="107" type="line"/>
      <point x="435" y="22"/>
      <point x="550" y="-21"/>
      <point x="687" y="-21" type="curve" smooth="yes"/>
      <point x="1039" y="-21"/>
      <point x="1224" y="278"/>
      <point x="1224" y="600" type="curve" smooth="yes"/>
      <point x="1224" y="764"/>
      <point x="1182" y="905"/>
      <point x="1098" y="1022" type="curve"/>
      <point x="1255" y="1212" type="line"/>
      <point x="1106" y="1212" type="line"/>
      <point x="1020" y="1108" type="line"/>
      <point x="929" y="1189"/>
      <point x="818" y="1230"/>
      <point x="687" y="1230" type="curve" smooth="yes"/>
      <point x="340" y="1230"/>
      <point x="149" y="926"/>
    </contour>
  </outline>
</glyph>
<glyph name="Uacute" format="2">
  <advance width="1043"/>
  <unicode hex="00DA"/>
  <outline>
    <contour>
      <point x="640" y="82" type="curve" smooth="yes"/>
      <point x="461" y="82"/>
      <point x="337" y="204"/>
      <point x="337" y="388" type="curve" smooth="yes"/>
      <point x="337" y="1209" type="line"/>
      <point x="163" y="1209" type="line"/>
      <point x="170" y="1118"/>
      <point x="173" y="1025"/>
      <point x="173" y="930" type="curve" smooth="yes"/>
      <point x="173" y="769"/>
      <point x="162" y="547"/>
      <point x="162" y="385" type="curve" smooth="yes"/>
      <point x="162" y="128"/>
      <point x="368" y="-22"/>
      <point x="603" y="-22" type="curve" smooth="yes"/>
      <point x="867" y="-22"/>
      <point x="1044" y="156"/>
      <point x="1044" y="423" type="curve" smooth="yes"/>
      <point x="1044" y="1209" type="line"/>
      <point x="943" y="1209" type="line"/>
      <point x="943" y="388" type="line" smooth="yes"/>
      <point x="943" y="207"/>
      <point x="820" y="82"/>
    </contour>
    <contour>
      <point x="758" y="1523" type="line"/>
      <point x="719" y="1444"/>
      <point x="671" y="1369"/>
      <point x="616" y="1300" type="curve"/>
      <point x="748" y="1300" type="line"/>
      <point x="949" y="1523" type="line"/>
    </contour>
  </outline>
</glyph>
<glyph name="Ucircumflex" format="2">
  <advance width="1043"/>
  <unicode hex="00DB"/>
  <outline>
    <contour>
      <point x="640" y="82" type="curve" smooth="yes"/>
      <point x="461" y="82"/>
      <point x="337" y="204"/>
      <point x="337" y="388" type="curve" smooth="yes"/>
      <point x="337" y="1209" type="line"/>
      <point x="163" y="1209" type="line"/>
      <point x="170" y="1118"/>
      <point x="173" y="1025"/>
      <point x="173" y="930" type="curve" smooth="yes"/>
      <point x="173" y="769"/>
      <point x="162" y="547"/>
      <point x="162" y="385" type="curve" smooth="yes"/>
      <point x="162" y="128"/>
      <point x="368" y="-22"/>
      <point x="603" y="-22" type="curve" smooth="yes"/>
      <point x="867" y="-22"/>
      <point x="1044" y="156"/>
      <point x="1044" y="423" type="curve" smooth="yes"/>
      <point x="1044" y="1209" type="line"/>
      <point x="943" y="1209" type="line"/>
      <point x="943" y="388" type="line" smooth="yes"/>
      <point x="943" y="207"/>
      <point x="820" y="82"/>
    </contour>
    <contour>
      <point x="876" y="1301" type="line"/>
      <point x="804" y="1374"/>
      <point x="743" y="1448"/>
      <point x="693" y="1523" type="curve"/>
      <point x="564" y="1523" type="line"/>
      <point x="513" y="1454"/>
      <point x="450" y="1380"/>
      <point x="377" y="1301" type="curve"/>
      <point x="531" y="1301" type="line"/>
      <point x="624" y="1426" type="line"/>
      <point x="714" y="1301" type="line"/>
    </contour>
  </outline>
</glyph>
<glyph name="Udieresis" format="2">
  <advance width="1043"/>
  <unicode hex="00DC"/>
  <outline>
    <contour>
      <point x="640" y="82" type="curve" smooth="yes"/>
      <point x="461" y="82"/>
      <point x="337" y="204"/>
      <point x="337" y="388" type="curve" smooth="yes"/>
      <point x="337" y="1209" type="line"/>
      <point x="163" y="1209" type="line"/>
      <point x="170" y="1118"/>
      <point x="173" y="1025"/>
      <point x="173" y="930" type="curve" smooth="yes"/>
      <point x="173" y="769"/>
      <point x="162" y="547"/>
      <point x="162" y="385" type="curve" smooth="yes"/>
      <point x="162" y="128"/>
      <point x="368" y="-22"/>
      <point x="603" y="-22" type="curve" smooth="yes"/>
      <point x="867" y="-22"/>
      <point x="1044" y="156"/>
      <point x="1044" y="423" type="curve" smooth="yes"/>
      <point x="1044" y="1209" type="line"/>
      <point x="943" y="1209" type="line"/>
      <point x="943" y="388" type="line" smooth="yes"/>
      <point x="943" y="207"/>
      <point x="820" y="82"/>
    </contour>
    <contour>
      <point x="479" y="1505" type="curve" smooth="yes"/>
      <point x="426" y="1505"/>
      <point x="386" y="1462"/>
      <point x="386" y="1410" type="curve" smooth="yes"/>
      <point x="386" y="1357"/>
      <point x="424" y="1315"/>
      <point x="479" y="1315" type="curve" smooth="yes"/>
      <point x="531" y="1315"/>
      <point x="573" y="1355"/>
      <point x="573" y="1410" type="curve" smooth="yes"/>
      <point x="573" y="1462"/>
      <point x="532" y="1505"/>
    </contour>
    <contour>
      <point x="756" y="1505" type="curve" smooth="yes"/>
      <point x="703" y="1505"/>
      <point x="662" y="1462"/>
      <point x="662" y="1410" type="curve" smooth="yes"/>
      <point x="662" y="1355"/>
      <point x="704" y="1315"/>
      <point x="756" y="1315" type="curve" smooth="yes"/>
      <point x="811" y="1315"/>
      <point x="849" y="1357"/>
      <point x="849" y="1410" type="curve" smooth="yes"/>
      <point x="849" y="1462"/>
      <point x="809" y="1505"/>
    </contour>
  </outline>
</glyph>
<glyph name="Thorn" format="2">
  <advance width="954"/>
  <unicode hex="00DE"/>
  <outline>
    <contour>
      <point x="467" y="274" type="curve" smooth="yes"/>
      <point x="307" y="274" type="line"/>
      <point x="307" y="914" type="line"/>
      <point x="478" y="914" type="line" smooth="yes"/>
      <point x="637" y="914"/>
      <point x="747" y="763"/>
      <point x="747" y="594" type="curve" smooth="yes"/>
      <point x="747" y="445"/>
      <point x="648" y="274"/>
    </contour>
    <contour>
      <point x="516" y="1002" type="curve" smooth="yes"/>
      <point x="307" y="1002" type="line"/>
      <point x="307" y="1212" type="line"/>
      <point x="151" y="1212" type="line"/>
      <point x="170" y="1007"/>
      <point x="180" y="804"/>
      <point x="180" y="604" type="curve" smooth="yes"/>
      <point x="180" y="405"/>
      <point x="170" y="203"/>
      <point x="151" y="-2" type="curve"/>
      <point x="307" y="-2" type="line"/>
      <point x="307" y="188" type="line"/>
      <point x="516" y="188" type="line" smooth="yes"/>
      <point x="751" y="188"/>
      <point x="951" y="363"/>
      <point x="951" y="593" type="curve" smooth="yes"/>
      <point x="951" y="824"/>
      <point x="754" y="1002"/>
    </contour>
  </outline>
</glyph>
<glyph name="germandbls" format="2">
  <advance width="1069"/>
  <unicode hex="00DF"/>
  <outline>
    <contour>
      <point x="148" y="938" type="curve" smooth="yes"/>
      <point x="148" y="660"/>
      <point x="167" y="593"/>
      <point x="167" y="306" type="curve" smooth="yes"/>
      <point x="167" y="196"/>
      <point x="161" y="94"/>
      <point x="149" y="0" type="curve"/>
      <point x="337" y="0" type="line"/>
      <point x="337" y="934" type="line" smooth="yes"/>
      <point x="337" y="1054"/>
      <point x="397" y="1157"/>
      <point x="528" y="1157" type="curve" smooth="yes"/>
      <point x="719" y="1157"/>
      <point x="723" y="936"/>
      <point x="725" y="865" type="curve"/>
      <point x="582" y="865"/>
      <point x="490" y="755"/>
      <point x="490" y="620" type="curve" smooth="yes"/>
      <point x="490" y="446"/>
      <point x="595" y="410"/>
      <point x="763" y="352" type="curve" smooth="yes"/>
      <point x="885" y="309"/>
      <point x="889" y="248"/>
      <point x="889" y="202" type="curve" smooth="yes"/>
      <point x="889" y="168"/>
      <point x="871" y="136"/>
      <point x="836" y="105" type="curve" smooth="yes"/>
      <point x="816" y="88"/>
      <point x="786" y="79"/>
      <point x="746" y="79" type="curve" smooth="yes"/>
      <point x="651" y="79"/>
      <point x="556" y="140"/>
      <point x="543" y="232" type="curve"/>
      <point x="499" y="133" type="line"/>
      <point x="571" y="-22"/>
      <point x="727" y="-32"/>
      <point x="765" y="-32" type="curve" smooth="yes"/>
      <point x="924" y="-32"/>
      <point x="1061" y="79"/>
      <point x="1061" y="244" type="curve" smooth="yes"/>
      <point x="1061" y="553"/>
      <point x="631" y="487"/>
      <point x="631" y="652" type="curve" smooth="yes"/>
      <point x="631" y="723"/>
      <point x="708" y="778"/>
      <point x="820" y="778" type="curve" smooth="yes"/>
      <point x="845" y="778"/>
      <point x="873" y="777"/>
      <point x="904" y="776" type="curve"/>
      <point x="909" y="1209"/>
      <point x="639" y="1230"/>
      <point x="499" y="1230" type="curve" smooth="yes"/>
      <point x="342" y="1230"/>
      <point x="148" y="1130"/>
    </contour>
  </outline>
</glyph>
<glyph name="agrave" format="2">
  <advance width="999"/>
  <unicode hex="00E0"/>
  <outline>
    <contour>
      <point x="480" y="79" type="curve" smooth="yes"/>
      <point x="377" y="79"/>
      <point x="323" y="155"/>
      <point x="323" y="246" type="curve" smooth="yes"/>
      <point x="323" y="332"/>
      <point x="373" y="373"/>
      <point x="392" y="386" type="curve" smooth="yes"/>
      <point x="484" y="447"/>
      <point x="619" y="446"/>
      <point x="706" y="480" type="curve"/>
      <point x="709" y="398"/>
      <point x="711" y="349"/>
      <point x="711" y="333" type="curve" smooth="yes"/>
      <point x="711" y="204"/>
      <point x="627" y="79"/>
    </contour>
    <contour>
      <point x="880" y="549" type="curve" smooth="yes"/>
      <point x="880" y="763"/>
      <point x="728" y="900"/>
      <point x="523" y="900" type="curve" smooth="yes"/>
      <point x="326" y="900"/>
      <point x="218" y="779"/>
      <point x="182" y="730" type="curve"/>
      <point x="239" y="670" type="line"/>
      <point x="284" y="762"/>
      <point x="381" y="821"/>
      <point x="482" y="821" type="curve" smooth="yes"/>
      <point x="687" y="821"/>
      <point x="702" y="608"/>
      <point x="703" y="562" type="curve"/>
      <point x="632" y="539"/>
      <point x="496" y="518"/>
      <point x="474" y="514" type="curve" smooth="yes"/>
      <point x="431" y="508"/>
      <point x="326" y="485"/>
      <point x="252" y="439" type="curve" smooth="yes"/>
      <point x="163" y="383"/>
      <point x="153" y="285"/>
      <point x="153" y="243" type="curve" smooth="yes"/>
      <point x="153" y="69"/>
      <point x="288" y="-23"/>
      <point x="440" y="-23" type="curve" smooth="yes"/>
      <point x="634" y="-23"/>
      <point x="718" y="95"/>
      <point x="737" y="127" type="curve"/>
      <point x="741" y="-7" type="line"/>
      <point x="899" y="-7" type="line"/>
      <point x="880" y="108"/>
      <point x="871" y="209"/>
      <point x="871" y="294" type="curve" smooth="yes"/>
      <point x="871" y="368"/>
      <point x="880" y="474"/>
    </contour>
    <contour>
      <point x="456" y="1005" type="line"/>
      <point x="404" y="1073"/>
      <point x="357" y="1147"/>
      <point x="314" y="1228" type="curve"/>
      <point x="123" y="1228" type="line"/>
      <point x="324" y="1005" type="line"/>
    </contour>
  </outline>
</glyph>
<glyph name="acircumflex" format="2">
  <advance width="900"/>
  <unicode hex="00E2"/>
  <outline>
    <contour>
      <point x="480" y="79" type="curve" smooth="yes"/>
      <point x="377" y="79"/>
      <point x="323" y="155"/>
      <point x="323" y="246" type="curve" smooth="yes"/>
      <point x="323" y="332"/>
      <point x="373" y="373"/>
      <point x="392" y="386" type="curve" smooth="yes"/>
      <point x="484" y="447"/>
      <point x="619" y="446"/>
      <point x="706" y="480" type="curve"/>
      <point x="709" y="398"/>
      <point x="711" y="349"/>
      <point x="711" y="333" type="curve" smooth="yes"/>
      <point x="711" y="204"/>
      <point x="627" y="79"/>
    </contour>
    <contour>
      <point x="880" y="549" type="curve" smooth="yes"/>
      <point x="880" y="763"/>
      <point x="728" y="900"/>
      <point x="523" y="900" type="curve" smooth="yes"/>
      <point x="326" y="900"/>
      <point x="218" y="779"/>
      <point x="182" y="730" type="curve"/>
      <point x="239" y="670" type="line"/>
      <point x="284" y="762"/>
      <point x="381" y="821"/>
      <point x="482" y="821" type="curve" smooth="yes"/>
      <point x="687" y="821"/>
      <point x="702" y="608"/>
      <point x="703" y="562" type="curve"/>
      <point x="632" y="539"/>
      <point x="496" y="518"/>
      <point x="474" y="514" type="curve" smooth="yes"/>
      <point x="431" y="508"/>
      <point x="326" y="485"/>
      <point x="252" y="439" type="curve" smooth="yes"/>
      <point x="163" y="383"/>
      <point x="153" y="285"/>
      <point x="153" y="243" type="curve" smooth="yes"/>
      <point x="153" y="69"/>
      <point x="288" y="-23"/>
      <point x="440" y="-23" type="curve" smooth="yes"/>
      <point x="634" y="-23"/>
      <point x="718" y="95"/>
      <point x="737" y="127" type="curve"/>
      <point x="741" y="-7" type="line"/>
      <point x="899" y="-7" type="line"/>
      <point x="880" y="108"/>
      <point x="871" y="209"/>
      <point x="871" y="294" type="curve" smooth="yes"/>
      <point x="871" y="368"/>
      <point x="880" y="474"/>
    </contour>
    <contour>
      <point x="766" y="1008" type="line"/>
      <point x="694" y="1081"/>
      <point x="633" y="1155"/>
      <point x="583" y="1230" type="curve"/>
      <point x="454" y="1230" type="line"/>
      <point x="403" y="1161"/>
      <point x="340" y="1087"/>
      <point x="267" y="1008" type="curve"/>
      <point x="421" y="1008" type="line"/>
      <point x="514" y="1133" type="line"/>
      <point x="604" y="1008" type="line"/>
    </contour>
  </outline>
</glyph>
<glyph name="atilde" format="2">
  <advance width="900"/>
  <unicode hex="00E3"/>
  <outline>
    <contour>
      <point x="480" y="79" type="curve" smooth="yes"/>
      <point x="377" y="79"/>
      <point x="323" y="155"/>
      <point x="323" y="246" type="curve" smooth="yes"/>
      <point x="323" y="332"/>
      <point x="373" y="373"/>
      <point x="392" y="386" type="curve" smooth="yes"/>
      <point x="484" y="447"/>
      <point x="619" y="446"/>
      <point x="706" y="480" type="curve"/>
      <point x="709" y="398"/>
      <point x="711" y="349"/>
      <point x="711" y="333" type="curve" smooth="yes"/>
      <point x="711" y="204"/>
      <point x="627" y="79"/>
    </contour>
    <contour>
      <point x="880" y="549" type="curve" smooth="yes"/>
      <point x="880" y="763"/>
      <point x="728" y="900"/>
      <point x="523" y="900" type="curve" smooth="yes"/>
      <point x="326" y="900"/>
      <point x="218" y="779"/>
      <point x="182" y="730" type="curve"/>
      <point x="239" y="670" type="line"/>
      <point x="284" y="762"/>
      <point x="381" y="821"/>
      <point x="482" y="821" type="curve" smooth="yes"/>
      <point x="687" y="821"/>
      <point x="702" y="608"/>
      <point x="703" y="562" type="curve"/>
      <point x="632" y="539"/>
      <point x="496" y="518"/>
      <point x="474" y="514" type="curve" smooth="yes"/>
      <point x="431" y="508"/>
      <point x="326" y="485"/>
      <point x="252" y="439" type="curve" smooth="yes"/>
      <point x="163" y="383"/>
      <point x="153" y="285"/>
      <point x="153" y="243" type="curve" smooth="yes"/>
      <point x="153" y="69"/>
      <point x="288" y="-23"/>
      <point x="440" y="-23" type="curve" smooth="yes"/>
      <point x="634" y="-23"/>
      <point x="718" y="95"/>
      <point x="737" y="127" type="curve"/>
      <point x="741" y="-7" type="line"/>
      <point x="899" y="-7" type="line"/>
      <point x="880" y="108"/>
      <point x="871" y="209"/>
      <point x="871" y="294" type="curve" smooth="yes"/>
      <point x="871" y="368"/>
      <point x="880" y="474"/>
    </contour>
    <contour>
      <point x="662" y="1121" type="curve" smooth="yes"/>
      <point x="575" y="1121"/>
      <point x="467" y="1198"/>
      <point x="380" y="1198" type="curve" smooth="yes"/>
      <point x="257" y="1198"/>
      <point x="241" y="1062"/>
      <point x="240" y="1007" type="curve"/>
      <point x="288" y="985" type="line"/>
      <point x="300" y="1066"/>
      <point x="331" y="1084"/>
      <point x="385" y="1084" type="curve" smooth="yes"/>
      <point x="474" y="1084"/>
      <point x="578" y="1005"/>
      <point x="667" y="1005" type="curve" smooth="yes"/>
      <point x="753" y="1005"/>
      <point x="800" y="1072"/>
      <point x="808" y="1206" type="curve"/>
      <point x="759" y="1228" type="line"/>
      <point x="744" y="1132"/>
      <point x="704" y="1121"/>
    </contour>
  </outline>
</glyph>
